<svg width="512" height="448" viewBox="0 0 512 448" fill="none" xmlns="http://www.w3.org/2000/svg">
<path d="M493.44 232.32L378.027 113.067C369.92 104.533 356.267 104.32 347.947 112.64C339.413 120.747 339.2 134.4 347.52 142.72L457.173 255.787H106.667C71.4667 255.787 42.6667 226.987 42.6667 191.787V21.3333C42.6667 9.6 33.0667 0 21.3333 0C9.6 0 0 9.6 0 21.3333V192C0 250.88 47.7867 298.667 106.667 298.667H456.96L347.307 411.733C339.2 420.267 339.413 433.707 347.733 441.813C351.787 445.867 357.12 447.787 362.667 447.787C368.213 447.787 373.76 445.653 378.027 441.387L493.227 322.347C518.187 297.387 518.187 256.853 493.44 232.107V232.32Z" fill="#0F1035"/>
</svg>
