<svg width="6116" height="1716" viewBox="0 0 6116 1716" fill="none" xmlns="http://www.w3.org/2000/svg">
<path d="M793.867 5.14822C750.667 18.0816 674.267 39.6816 671.467 39.6816C669.733 39.6816 667.867 40.2149 667.2 40.8816C666.133 41.9482 597.733 61.5482 517.867 83.8149C495.867 89.9482 410.933 114.215 356.133 129.948L321.067 140.082L259.467 220.215C225.467 264.348 158.267 351.682 109.867 414.348C61.6 477.015 21.3333 529.815 20.2667 531.682C19.0667 534.082 15.8667 583.815 9.2 706.348L0 877.682L3.86667 902.348C6 915.948 12 954.615 17.2 988.348L26.6667 1049.68L35.4667 1067.01C40.2667 1076.48 50.6667 1096.35 58.5333 1111.01C66.4 1125.68 80.9333 1153.01 90.6667 1171.68C118 1224.21 129.733 1246.75 149.867 1284.88L168.4 1320.08L195.867 1344.21C210.933 1357.41 224.133 1369.28 225.2 1370.35C227.6 1372.75 262.8 1403.95 304.667 1440.61C333.733 1466.08 334.267 1466.48 429.2 1530.48L524.533 1594.88L547.2 1598.48C650.133 1615.28 813.333 1639.68 821.6 1639.68C828 1639.68 835.333 1638.35 846.267 1635.15C854.8 1632.61 944.4 1606.48 1045.2 1577.01C1146 1547.55 1247.6 1517.81 1270.93 1511.01C1300.67 1502.35 1314 1497.81 1315.2 1496.08C1316.13 1494.75 1369.47 1424.35 1433.73 1339.68C1507.73 1242.21 1551.73 1185.28 1553.6 1184.75C1555.2 1184.21 1561.6 1182.88 1567.87 1181.68C1593.47 1176.75 1629.87 1162.61 1652.8 1148.88C1721.47 1107.81 1769.33 1042.88 1786.93 967.015C1788.8 958.882 1790.8 949.682 1791.2 946.348C1792 940.882 1791.47 941.548 1785.47 953.815C1768.93 987.282 1747.6 1014.48 1719.87 1037.68C1700 1054.21 1672 1070.75 1649.73 1079.15C1640.53 1082.61 1613.07 1090.61 1612.4 1089.95C1612.27 1089.81 1612.93 1078.21 1613.87 1064.35C1614.93 1050.35 1616.4 1027.55 1617.2 1013.68C1618 999.682 1618.93 987.548 1619.2 986.615C1619.6 985.815 1621.33 985.015 1623.33 985.015C1625.33 985.015 1634.13 983.548 1643.07 981.682C1702.93 969.548 1747.2 940.082 1770.53 896.615C1778.27 882.215 1780.93 872.882 1781.87 856.348C1784.13 820.482 1774.93 776.215 1758.27 742.482C1738.67 703.015 1703.73 669.282 1658.53 646.082C1638.27 635.682 1612.27 627.282 1595.2 625.548C1590.53 625.015 1586.13 624.348 1585.47 623.815C1584.67 623.282 1558.53 556.215 1527.47 474.482L1471.07 326.082L1396.4 266.748C1355.47 234.082 1281.73 175.282 1232.53 136.215C1183.47 97.1482 1136.13 59.2816 1127.47 52.3482L1111.73 39.4149L1097.47 37.5482C1062.53 33.0149 848.533 3.54822 837.2 1.68156C819.067 -1.11844 813.333 -0.718445 793.867 5.14822ZM835.867 11.0149C916.4 21.6816 1039.2 38.6149 1039.73 39.0149C1040 39.2816 965.6 39.5482 874.4 39.5482C783.2 39.4149 709.733 39.0149 711.2 38.3482C712.667 37.8149 728.267 33.2816 745.867 28.3482C763.467 23.4149 785.733 17.0149 795.2 14.3482C815.467 8.48156 815.867 8.34822 835.867 11.0149ZM1100.67 67.2816C1099.33 78.2149 1093.2 121.148 1087.33 162.748L1076.53 238.482L1033.87 217.148C1010.4 205.548 971.733 186.348 947.867 174.615C808.133 105.948 716.267 60.6149 704.533 54.6149L691.2 47.8149H897.333L1103.33 47.6816L1100.67 67.2816ZM786.933 105.148C847.867 135.415 903.6 162.748 910.533 166.215C917.467 169.548 942.133 181.682 965.2 193.148C988.267 204.615 1020.53 220.482 1036.93 228.348C1053.2 236.348 1066.13 243.282 1065.6 243.815C1064.93 244.348 1052.27 248.215 1037.2 252.348C1022.13 256.615 1003.33 262.082 995.2 264.482C980.267 269.015 697.867 349.548 641.333 365.415C624.133 370.348 609.733 374.082 609.467 373.682C608.8 373.015 615.6 338.615 646.133 189.682C676.267 42.3482 674.533 50.3482 675.333 50.3482C675.6 50.3482 725.867 75.0149 786.933 105.148ZM637.333 189.148C612 311.815 601.067 364.482 599.2 372.615C598.533 375.415 592.8 373.682 448.8 325.415C366.533 297.948 299.067 275.282 298.8 275.015C298.667 274.882 312.8 266.082 330.133 255.682C347.6 245.148 369.067 232.082 377.867 226.615C396 215.282 506.667 148.215 601.067 91.2816C635.867 70.2149 664.533 53.2816 664.8 53.4149C664.933 53.6816 652.667 114.748 637.333 189.148ZM1125.6 62.6149C1179.2 104.482 1447.87 318.748 1447.33 319.282C1447.07 319.548 1389.87 307.415 1320.4 292.348C1250.8 277.282 1169.87 259.682 1140.53 253.415C1111.2 247.148 1086.67 241.548 1086.13 241.015C1084.93 239.948 1111.47 53.0149 1112.8 53.0149C1113.07 53.0149 1118.8 57.2816 1125.6 62.6149ZM603.067 79.8149C557.6 107.415 409.467 196.748 404.533 199.682C402.4 200.882 377.067 216.215 348.267 233.548C319.467 250.882 295.733 265.015 295.467 265.015C295.2 265.015 299.867 247.148 305.867 225.282C311.867 203.548 319.2 177.015 322 166.348L327.2 147.148L351.867 140.215C430 118.215 494.267 99.9482 559.2 81.1482C599.6 69.5482 633.467 59.9482 634.4 59.8149C635.467 59.6816 621.467 68.7482 603.067 79.8149ZM308.4 182.482C305.733 191.548 298.933 215.815 293.2 236.215L282.8 273.548L264.267 291.682C254.133 301.548 213.467 341.548 173.867 380.348C79.3333 473.148 65.2 486.748 70 480.348C77.6 470.348 163.333 359.148 194 319.548C210.8 297.815 244.4 254.215 268.533 222.615C292.8 191.148 312.667 165.415 312.933 165.548C313.067 165.815 311.067 173.415 308.4 182.482ZM1073.2 252.348C1073.2 252.748 1067.6 272.082 1060.67 295.282C1042.93 355.415 1034.53 383.815 1024.27 419.682C1019.33 436.882 1015.2 451.282 1014.93 451.548C1014.67 451.815 1006 448.482 995.467 443.948C960.267 428.615 925.067 419.015 877.867 411.548C852.8 407.682 802.533 406.615 773.2 409.548C748 411.948 719.067 417.548 697.333 424.082L682.267 428.748L648.133 405.948C629.333 393.415 614.533 383.015 615.2 382.748C622.4 380.482 698.533 358.615 834.533 319.682C988.133 275.815 1016.8 267.548 1054.53 256.482C1070.27 251.815 1073.2 251.148 1073.2 252.348ZM1152.53 264.882C1334.93 304.348 1460.4 331.682 1460.93 332.348C1461.73 333.148 1464 324.748 1417.87 495.015C1395.47 577.815 1376.4 646.082 1375.47 646.615C1374.67 647.148 1373.33 647.415 1372.53 647.282C1371.87 647.015 1325.47 582.348 1269.47 503.548C1160.93 350.615 1143.87 326.615 1116.13 287.815C1094 257.015 1090.27 251.682 1090.93 251.682C1091.07 251.682 1118.93 257.682 1152.53 264.882ZM1106.4 289.282C1143.87 342.348 1155.6 359.015 1205.33 428.615C1231.33 465.148 1277.73 530.348 1308.4 573.415C1368.53 658.082 1367.2 655.682 1355.33 655.682C1352.4 655.548 1312.67 651.815 1267.2 647.282L1184.67 638.882L1178.53 624.882C1156.27 573.015 1128.53 535.015 1088.53 501.282C1071.2 486.748 1059.87 478.615 1041.87 467.948C1033.07 462.615 1025.07 457.948 1024.27 457.415C1023.07 456.615 1025.2 447.415 1033.07 421.015C1038.8 401.548 1046.27 376.348 1049.6 365.015C1055.33 345.415 1077.47 269.415 1080.13 259.948C1080.8 257.548 1081.87 255.948 1082.4 256.348C1083.07 256.615 1093.87 271.548 1106.4 289.282ZM430.8 328.882C507.333 354.482 574.8 377.148 580.933 379.282L592 383.015L575.6 395.282C561.6 405.682 484.933 461.015 241.2 636.748C215.867 655.015 195.067 669.548 194.8 669.015C194.533 668.348 283.733 308.215 289.333 287.282C290 284.615 290.933 282.348 291.2 282.348C291.6 282.348 354.4 303.282 430.8 328.882ZM277.867 293.282C277.6 294.215 256.267 379.948 230.533 483.682C204.8 587.415 183.467 672.482 183.333 672.615C183.2 672.882 158.133 650.348 127.6 622.748C97.2 595.015 62.6667 563.682 50.8 553.015L29.3333 533.815L65.6 498.348C85.6 478.882 116.933 448.482 135.2 430.748C153.6 413.015 193.2 374.482 223.2 345.148C253.333 315.815 278 291.682 278.133 291.682C278.267 291.682 278.133 292.482 277.867 293.282ZM1523.07 487.415C1551.33 561.548 1574.53 622.615 1574.53 622.882C1574.53 623.148 1566.93 623.415 1557.6 623.415C1538.27 623.548 1526.4 625.015 1507.2 629.682C1481.33 635.815 1455.73 647.948 1433.87 664.348L1420.8 674.082L1408.67 669.682C1389.6 662.748 1388.67 662.348 1390 661.148C1403.87 648.748 1423.6 634.748 1438.8 626.215C1446.8 621.815 1447.73 621.015 1443.87 621.815C1434.13 623.682 1416 629.415 1402.13 634.882L1387.6 640.748L1388.53 637.148C1390 631.282 1463.87 358.215 1466.13 350.348L1468.27 343.015L1469.87 347.682C1470.8 350.215 1494.8 413.148 1523.07 487.415ZM629.2 404.748C639.867 411.682 653.867 420.748 660.4 424.748L672.267 432.082L662.133 435.682C652 439.415 620.667 454.748 611.6 460.615L606.533 463.682V427.015C606.533 397.948 606.933 390.348 608.267 391.148C609.067 391.682 618.533 397.815 629.2 404.748ZM597.867 419.948C598.4 435.548 598.533 452.882 598.267 458.215L597.867 468.215L581.2 480.082C572.133 486.615 560.667 495.148 555.867 499.015C545.2 507.815 516.4 537.148 506.533 549.415C485.733 575.148 463.867 610.748 451.2 639.682C433.333 680.082 418.933 735.815 416.4 774.615C415.867 782.615 415.067 789.015 414.533 789.015C413.867 789.015 380.8 772.882 340.933 753.282C301.2 733.548 252.133 709.415 232.133 699.682C207.333 687.548 196.267 681.415 197.2 680.482C197.867 679.815 219.333 663.948 244.933 645.548C294.8 609.282 517.067 448.348 556.533 419.948C569.733 410.348 583.867 400.215 587.867 397.282C591.867 394.348 595.6 391.815 596 391.815C596.533 391.682 597.333 404.482 597.867 419.948ZM848.8 548.215C947.2 612.215 961.2 621.415 961.2 622.215C961.2 622.615 954.133 627.815 945.6 633.682C937.2 639.415 923.867 649.015 916 654.748C904.133 663.682 843.6 707.282 772.267 758.482C762.667 765.415 721.733 794.882 681.333 823.948C640.933 853.148 607.6 877.015 607.2 877.015C606.8 877.015 606.533 818.082 606.533 745.948V615.015L616.933 604.882C639.733 582.482 661.2 567.282 688.133 554.348C708.133 544.882 735.733 535.148 752.267 531.682C771.2 527.815 784.4 526.215 804.8 525.282L813.067 525.015L848.8 548.215ZM875.867 530.482C897.333 534.082 919.067 540.082 938.533 547.815C958 555.548 979.867 567.282 979.867 570.082C979.867 571.948 968 613.282 967.2 614.215C966.667 614.748 906.533 575.682 863.2 546.615L832.533 526.082L846.533 527.015C854.267 527.548 867.467 529.015 875.867 530.482ZM53.8667 567.682C66.1333 579.015 99.3333 609.548 127.733 635.415C158.933 663.948 179.2 683.282 179.067 684.748C179.067 685.948 146.933 763.682 107.733 857.282L36.5333 1027.68L36.2667 1017.95C36.1333 1012.75 35.0667 952.482 33.8667 884.348C32.8 816.082 31.2 734.482 30.5333 703.015C27.4667 562.082 27.3333 544.615 29.6 545.815C30.6667 546.482 41.6 556.348 53.8667 567.682ZM994.4 577.948C1012 591.015 1025.73 604.615 1039.07 622.215C1040.67 624.215 1042.27 624.215 999.2 620.215C986.8 619.148 976.4 617.948 976.133 617.682C975.867 617.415 978.133 608.615 981.2 598.082C984.267 587.548 986.933 577.948 987.333 576.615C988.267 573.682 988.8 573.682 994.4 577.948ZM598.4 753.015L598.933 879.682L586.4 873.815C552.533 858.082 533.6 847.815 532.667 844.748C531.467 839.948 531.733 801.682 533.2 787.682C536.4 757.282 541.2 736.615 551.467 708.348C562.533 678.482 572 660.615 588.8 637.948C593.6 631.548 597.6 626.348 597.733 626.348C597.733 626.348 598.133 683.415 598.4 753.015ZM1001.87 629.682C1011.47 630.748 1025.6 632.215 1033.6 632.882C1045.33 633.682 1048.27 634.348 1049.73 636.482C1054.4 642.748 1067.2 670.748 1071.87 684.748L1077.07 700.348L1139.2 700.748C1200.13 701.015 1201.2 701.015 1201.2 698.482C1201.2 695.148 1192.8 662.482 1190 654.482C1188.8 651.282 1188 648.482 1188.13 648.348C1188.4 648.082 1223.33 651.548 1265.87 655.815C1308.4 660.082 1344.13 663.548 1345.2 663.682C1346.27 663.682 1344.8 665.282 1341.87 667.282C1338.93 669.148 1329.73 676.482 1321.47 683.415C1274 723.148 1239.73 781.282 1227.2 842.748C1225.33 851.815 1223.87 860.882 1223.87 862.615C1223.87 865.682 1202.93 896.615 1201.73 895.415C1201.47 895.148 1202.8 880.482 1204.53 863.015C1206.4 845.415 1207.87 830.215 1207.87 829.282C1207.87 828.082 1189.2 827.682 1119.2 827.682H1030.67L1029.2 821.948C1028.27 818.882 1022 795.682 1014.93 770.348C1008 745.015 999.067 711.682 994.933 696.348C990.933 680.882 984.933 659.148 981.733 648.082C978.533 636.882 975.867 627.415 975.867 627.148C975.867 626.748 977.867 626.748 980.267 627.015C982.533 627.415 992.4 628.615 1001.87 629.682ZM985.333 696.348C992.8 721.948 1021.2 825.415 1021.2 826.615C1021.2 827.282 964.533 827.682 895.2 827.682H769.2V883.682C769.2 927.548 768.8 939.682 767.6 939.682C766.667 939.682 731.2 927.415 688.8 912.482L611.733 885.415L616.133 882.082C620.133 879.015 750 785.682 773.333 768.882C778.933 765.015 804.667 746.348 830.533 727.682C856.267 709.015 883.467 689.415 890.933 684.082C933.067 654.215 956.8 637.148 961.6 633.415L967.067 629.148L973.6 653.415C977.067 666.748 982.4 686.082 985.333 696.348ZM1567.2 664.082C1571.6 665.148 1579.2 667.015 1584 668.348L1592.93 670.615L1601.2 692.748C1605.87 705.015 1612.53 722.482 1616 731.682C1619.6 740.748 1622.27 748.482 1622 748.748C1621.73 749.015 1608.67 744.215 1593.07 738.348C1567.47 728.482 1536.27 716.882 1465.2 690.748C1452.4 686.082 1441.33 681.682 1440.8 681.148C1439.6 679.948 1463.6 670.082 1475.2 667.148C1496 661.815 1504 661.015 1531.87 661.682C1548.93 661.948 1562.13 662.882 1567.2 664.082ZM23.7333 842.348C24.5333 907.948 25.4667 966.482 25.7333 972.348L26.4 983.015L24.4 971.682C21.3333 954.615 13.3333 906.215 10.8 890.082C8.66667 876.082 8.8 874.215 14.5333 768.748L20.5333 661.682L21.3333 692.348C21.8667 709.148 22.9333 776.748 23.7333 842.348ZM1398.8 675.415C1406 678.082 1411.87 680.882 1411.87 681.415C1412 682.082 1406.93 687.948 1400.67 694.482C1394.4 701.148 1389.2 705.682 1389.2 704.748C1389.2 703.815 1387.73 695.682 1386 686.615C1384 675.815 1383.47 670.348 1384.4 670.348C1385.2 670.482 1391.73 672.748 1398.8 675.415ZM1620.8 682.348C1679.47 711.148 1726.93 783.548 1730.13 849.015C1730.93 866.882 1729.47 876.082 1723.73 887.548C1713.73 907.548 1690.53 917.148 1660.8 913.282C1649.2 911.815 1627.47 906.482 1625.6 904.482C1625.07 904.082 1626.4 880.348 1628.27 851.948C1630.27 823.548 1632.53 790.482 1633.33 778.348L1634.8 756.348L1626.8 735.015C1622.4 723.282 1615.47 705.148 1611.47 694.615C1607.07 683.415 1604.67 675.682 1605.6 675.682C1606.53 675.682 1613.33 678.615 1620.8 682.348ZM1376 725.015C1372.4 730.482 1369.73 735.282 1370.13 735.682C1370.53 736.082 1371.87 734.882 1373.07 733.015C1376.13 728.348 1382.8 720.882 1383.33 721.415C1383.6 721.682 1390.8 758.482 1399.2 803.148C1407.6 847.815 1414.8 885.548 1415.2 887.015C1415.87 890.482 1404.8 898.215 1387.6 906.482L1375.87 911.948L1378.53 915.682C1386.27 926.615 1402 939.815 1416.93 947.948C1422.53 951.015 1427.2 954.615 1427.73 956.215C1428.4 957.682 1431.07 971.015 1433.73 985.682C1436.4 1000.35 1441.07 1024.88 1444 1040.21C1446.93 1055.41 1449.07 1068.35 1448.67 1068.61C1447.6 1069.68 1426.4 1057.68 1414.67 1049.28C1334.27 991.815 1295.07 892.215 1314.67 795.015C1322.53 756.215 1343.47 712.748 1367.6 685.148L1375.2 676.482L1378.93 695.815L1382.67 715.148L1376 725.015ZM1493.6 710.748C1529.73 724.215 1573.73 740.615 1591.47 747.148C1609.33 753.682 1623.87 759.548 1623.87 760.082C1623.87 760.615 1613.07 786.615 1599.73 817.815L1575.6 874.348L1570 869.415C1564.8 864.748 1561.87 861.282 1547.07 842.615C1526.67 817.015 1500.13 805.815 1480.67 814.748C1476.53 816.748 1470.53 820.348 1467.33 823.015C1460.13 828.882 1449.73 843.682 1443.33 857.148C1439.07 866.082 1425.07 883.948 1423.47 882.348C1423.2 881.948 1415.87 844.482 1407.33 799.015C1398.8 753.548 1391.47 715.548 1391.2 714.615C1390.53 712.615 1404.8 700.748 1417.87 692.482C1423.07 689.148 1427.33 686.482 1427.6 686.482C1427.87 686.348 1457.47 697.415 1493.6 710.748ZM290.933 738.748C343.867 764.748 393.333 788.748 400.667 792.215L414.267 798.615L414.933 834.215C415.733 878.348 419.867 907.015 430.667 945.682C434.8 960.215 446.533 993.015 450 999.948L451.867 1003.55L374.267 1067.15C308 1121.28 296.533 1130.35 295.6 1128.21C295.067 1126.75 272 1029.01 244.533 911.015C216.933 792.882 194.133 695.282 193.733 693.948C193.333 692.748 193.333 691.682 193.867 691.682C194.267 691.682 238 712.882 290.933 738.748ZM206.533 790.348C217.6 837.682 240 933.682 256.4 1003.68C272.8 1073.68 286 1131.28 285.733 1131.55C285.333 1131.95 214 1107.81 92.5333 1066.35C63.2 1056.21 39.2 1047.55 39.2 1046.88C39.2 1046.21 71.8667 967.548 111.867 871.948C168.533 736.482 184.667 698.882 185.467 701.282C186 703.015 195.467 743.015 206.533 790.348ZM1620.53 839.148C1618.67 868.482 1616.8 894.348 1616.4 896.748L1615.73 901.148L1608.13 896.882C1596.93 890.615 1582.4 880.748 1582.8 879.682C1589.6 862.748 1623.2 785.282 1623.6 785.548C1623.87 785.815 1622.4 809.948 1620.53 839.148ZM570.933 875.815C583.2 881.948 593.067 887.415 592.933 887.948C592.667 888.482 582.667 897.015 570.533 906.882C556 918.882 548.267 924.482 547.733 923.282C544.533 917.415 534.533 870.882 534.533 862.215V858.348L541.6 861.548C545.333 863.282 558.533 869.682 570.933 875.815ZM1225.2 948.082C1234.27 1001.68 1258.4 1052.88 1292.27 1089.81C1295.87 1093.81 1298.53 1097.41 1298.13 1097.81C1297.73 1098.21 1262.4 1091.01 1219.6 1081.81C1176.93 1072.61 1140 1064.75 1137.73 1064.21L1133.6 1063.41L1145.73 1045.28C1159.6 1024.35 1171.33 1002.21 1181.07 978.615C1188.67 959.948 1192.27 948.215 1195.87 929.015C1198.4 915.682 1198.53 915.415 1209.47 900.482L1220.53 885.282L1221.33 908.082C1221.87 921.415 1223.47 938.215 1225.2 948.082ZM787.867 956.348C862.267 982.615 943.333 1011.15 967.867 1019.68L1012.53 1035.41L1003.2 1044.35C960.267 1084.88 905.2 1110.08 843.867 1117.15C812.4 1120.75 768.133 1117.01 736.533 1108.21C704.4 1099.15 666.8 1080.08 641.6 1060.08C638.933 1057.95 637.067 1049.01 623.867 978.348C615.733 934.748 608.667 897.682 608.267 895.948C607.6 893.148 608.667 893.415 630 900.882C642.4 905.148 713.467 930.215 787.867 956.348ZM613.867 971.548C621.6 1013.01 627.6 1047.01 627.467 1047.28C627.2 1047.55 621.333 1041.81 614.4 1034.75C593.467 1013.15 578.4 991.815 565.2 965.015C555.2 944.748 551.2 934.482 552.667 933.015C557.333 928.348 599.2 894.748 599.467 895.415C599.6 895.948 606.133 930.215 613.867 971.548ZM1055.87 951.948C1056.67 955.148 1058 959.948 1058.8 962.615C1060.13 967.282 1059.87 968.215 1053.2 979.948C1041.47 1000.35 1021.33 1027.68 1018 1027.68C1016.8 1027.68 896.667 985.682 799.2 951.282L785.867 946.482H920.133L1054.4 946.348L1055.87 951.948ZM1067.6 950.615C1066.27 954.348 1066 954.615 1065.07 952.215C1063.33 947.948 1063.73 946.348 1066.4 946.348C1068.8 946.348 1068.93 946.748 1067.6 950.615ZM1464.53 968.615C1481.73 974.482 1508.13 981.282 1520.27 983.015C1523.73 983.548 1526.93 984.482 1527.33 985.148C1527.73 985.815 1522.93 998.215 1516.67 1012.61C1510.53 1027.15 1501.2 1048.88 1496.13 1061.01C1490.93 1073.01 1486.13 1083.15 1485.2 1083.41C1482.4 1084.35 1460 1075.55 1459.33 1073.15C1458.93 1071.95 1457.73 1065.28 1456.53 1058.35C1454.4 1046.08 1439.33 967.548 1437.87 961.282C1437.2 958.348 1437.2 958.348 1442.13 960.482C1444.93 961.682 1455.07 965.282 1464.53 968.615ZM1577.33 987.815C1591.87 987.815 1605.2 987.415 1607.07 986.882C1609.07 986.348 1610.53 986.615 1610.53 987.415C1610.53 988.215 1609.73 999.815 1608.67 1013.28C1607.6 1026.75 1606 1049.81 1605.07 1064.61C1603.73 1087.15 1603.07 1091.81 1601.33 1092.21C1591.07 1095.41 1551.33 1096.48 1533.2 1094.35C1522.8 1093.01 1495.73 1087.95 1494.93 1087.15C1494.67 1087.01 1504.27 1064.21 1516.13 1036.48L1537.6 986.082L1544.27 986.882C1548 987.415 1562.8 987.815 1577.33 987.815ZM463.867 1027.15C472.4 1043.81 490.533 1071.68 503.333 1087.68C517.467 1105.41 552 1139.15 569.333 1152.08C594.4 1170.75 621.867 1187.01 645.067 1197.15L656.267 1201.95L670.133 1275.15C677.6 1315.41 683.733 1349.41 683.467 1350.61C683.333 1352.48 666.933 1343.81 608.533 1311.01C567.467 1287.95 481.6 1239.81 417.6 1204.08C353.733 1168.35 301.6 1138.88 301.6 1138.75C303.333 1137.01 455.333 1013.01 455.867 1013.01C456.267 1013.01 459.867 1019.41 463.867 1027.15ZM155.2 1097.81C214.667 1118.08 268.8 1136.48 275.733 1138.88C282.667 1141.28 288.533 1143.81 288.8 1144.48C288.933 1145.15 296.933 1203.81 306.533 1275.01C316.133 1346.08 325.2 1412.48 326.667 1422.35C328 1432.21 329.067 1441.41 328.933 1442.75C328.667 1444.48 324.267 1439.41 315.867 1427.81C292 1394.88 283.2 1382.88 215.867 1291.68C178.667 1241.41 145.2 1196.08 141.467 1191.01C137.6 1185.81 121.6 1164.21 105.867 1143.01C57.2 1077.55 45.2 1061.01 46.2667 1061.01C46.8 1061.01 95.8667 1077.55 155.2 1097.81ZM1225.07 1091.68C1272.27 1101.95 1311.87 1111.15 1313.07 1112.08C1344.67 1139.28 1376.27 1158.48 1408.13 1170.08L1418.53 1173.81L1354.13 1225.95C1318.8 1254.48 1251.6 1309.01 1204.8 1346.88C1158 1384.88 1119.47 1415.68 1119.33 1415.41C1119.07 1415.15 1114 1345.41 1108.13 1260.35L1097.2 1105.81L1102.27 1100.21C1104.93 1097.01 1111.87 1089.15 1117.6 1082.61L1128 1070.61L1133.6 1071.95C1136.67 1072.61 1177.87 1081.55 1225.07 1091.68ZM79.8667 1123.01C89.7333 1136.48 113.6 1168.88 133.467 1195.81C199.6 1285.01 214.133 1304.75 240.267 1340.35C249.867 1353.55 268.267 1378.35 281.2 1395.55C308.933 1432.75 308.8 1432.61 300.267 1425.01C248 1378.35 233.733 1365.68 225.2 1358.35C219.733 1353.68 206.267 1342.08 195.467 1332.48C173.2 1312.75 177.333 1319.15 145.467 1257.55C101.733 1173.28 94.1333 1158.75 91.8667 1155.01C88.2667 1149.01 66.5333 1107.68 66.5333 1106.88C66.5333 1105.15 69.3333 1108.48 79.8667 1123.01ZM1099.87 1267.01C1105.73 1350.48 1110.4 1419.01 1110 1419.28C1109.2 1420.21 705.733 1360.61 704.4 1359.41C704.267 1359.15 714.4 1351.01 726.933 1341.41C739.6 1331.68 772.933 1306.08 801.2 1284.35C829.467 1262.61 858.133 1240.75 864.8 1235.55C877.067 1226.21 877.333 1226.08 896.8 1221.01C964 1203.68 1025.87 1170.35 1078.4 1123.15C1083.87 1118.21 1088.4 1114.48 1088.67 1114.75C1088.93 1115.01 1094 1183.55 1099.87 1267.01ZM428.533 1221.01C624.933 1331.01 676.533 1359.95 677.467 1360.88C678 1361.28 649.2 1369.95 613.467 1379.95C577.733 1390.08 501.867 1411.55 444.667 1427.68C387.6 1443.81 340.667 1456.88 340.4 1456.61C340.133 1456.35 338.133 1442.08 335.867 1424.88C333.6 1407.81 324.533 1339.81 315.867 1274.08C307.067 1208.35 299.867 1153.28 299.867 1151.68V1148.75L305.6 1152.08C308.667 1153.81 364 1184.88 428.533 1221.01ZM1435.6 1178.48C1439.07 1179.41 1442.4 1180.48 1442.93 1181.01C1443.47 1181.55 1414.93 1247.95 1379.47 1328.48C1343.87 1409.01 1313.47 1478.21 1311.87 1481.95C1310.27 1485.81 1308.4 1489.01 1307.87 1489.01C1307.2 1489.01 1292.4 1483.81 1274.93 1477.55C1257.47 1471.28 1217.07 1456.88 1185.2 1445.41C1153.33 1434.08 1126.67 1424.35 1126.13 1423.81C1125.6 1423.28 1141.73 1409.28 1162.13 1392.75C1365.2 1228.21 1428.4 1177.01 1428.8 1177.01C1429.07 1177.01 1432.13 1177.68 1435.6 1178.48ZM1507.47 1186.88C1527.6 1187.01 1538 1187.41 1537.47 1188.35C1536.4 1190.21 1333.07 1458.75 1331.6 1460.35C1330 1462.08 1331.47 1458.61 1394.53 1315.68C1424.8 1247.15 1450.27 1189.15 1451.33 1186.88L1453.07 1182.88L1464.8 1184.75C1472.53 1186.08 1486.93 1186.75 1507.47 1186.88ZM674.8 1208.88C720.667 1225.68 794 1235.15 841.733 1230.48C850.4 1229.68 857.733 1229.15 857.867 1229.28C858.133 1229.55 833.067 1248.88 802.267 1272.35C771.467 1295.81 734.8 1323.81 720.8 1334.48C706.667 1345.28 695.067 1353.81 694.8 1353.68C694.533 1353.55 688.4 1321.28 681.2 1282.21C673.867 1243.01 667.6 1209.95 667.333 1208.61C666.667 1205.81 666.267 1205.81 674.8 1208.88ZM709.333 1411.01C720.267 1433.68 732.267 1458.08 735.733 1465.01C751.067 1495.41 814.8 1627.95 814.267 1628.35C814 1628.75 782.267 1617.68 743.733 1603.81C634.267 1564.35 596.8 1550.88 471.2 1506.35C406.667 1483.41 353.467 1464.21 352.933 1463.81C352 1463.01 497.333 1421.55 566.533 1402.75C580.8 1398.88 613.6 1389.81 639.2 1382.48C664.933 1375.15 686.667 1369.28 687.6 1369.41C688.533 1369.55 698.267 1388.21 709.333 1411.01ZM727.867 1373.01C782.8 1380.48 1102.53 1427.28 1103.2 1427.95C1103.47 1428.21 1090.27 1437.95 1074 1449.81C1057.87 1461.55 996.8 1506.08 938.267 1548.75C879.867 1591.28 830.667 1627.01 828.933 1628.21L825.733 1630.35L785.6 1547.28C726.4 1425.01 701.067 1372.61 700.267 1370.48C699.6 1369.15 700.4 1368.88 703.333 1369.55C705.467 1369.95 716.533 1371.55 727.867 1373.01ZM1206.13 1461.95C1254.8 1479.28 1294.53 1493.95 1294.53 1494.35C1294.53 1495.15 1281.47 1499.01 1062.53 1563.01C885.333 1615.01 850.133 1625.15 849.6 1624.61C849.467 1624.35 856 1619.28 864.267 1613.28C872.4 1607.28 932.267 1563.68 997.2 1516.35C1062.13 1469.01 1115.73 1430.35 1116.53 1430.35C1117.2 1430.35 1157.6 1444.61 1206.13 1461.95ZM480.533 1519.01C630.4 1572.88 653.467 1581.15 718.533 1604.21C750.4 1615.55 775.867 1624.88 775.2 1624.88C774.4 1625.01 745.333 1620.48 710.533 1615.01C620.4 1600.75 574.133 1593.55 551.867 1590.35C541.2 1588.75 531.067 1587.01 529.2 1586.35C526 1585.41 374.133 1483.68 371.2 1480.75C370.267 1479.68 370.667 1479.55 372.533 1480.21C374 1480.88 422.667 1498.21 480.533 1519.01Z" fill="#001A23"/>
<path d="M5586 345.015C5568.67 350.215 5556.53 384.349 5528 508.349C5523.6 527.415 5516.93 558.882 5513.2 578.349C5509.47 597.815 5506.13 615.015 5505.73 616.615L5505.2 619.682L5383.47 619.949L5261.87 620.349L5292.53 641.282L5323.2 662.349H5394.93H5466.53L5484 650.215C5493.6 643.549 5501.6 638.349 5501.87 638.615C5502 638.882 5500.8 648.615 5499.2 660.349C5495.47 686.615 5492.4 717.549 5490.53 745.682C5488.67 773.815 5485.47 816.882 5483.87 834.349C5483.2 842.082 5482.27 855.549 5481.87 864.349C5481.47 873.149 5480.53 890.882 5479.87 903.682C5479.2 916.482 5477.87 938.349 5477.2 952.349C5476.4 966.215 5475.47 983.015 5475.2 989.682C5472.4 1038.88 5471.87 1052.35 5471.6 1072.35C5471.47 1084.75 5471.2 1091.82 5470.93 1087.95C5470.67 1084.22 5469.73 1081.02 5469.07 1081.02C5467.47 1081.02 5452.53 1089.95 5434.53 1101.68C5418.27 1112.22 5390.27 1129.82 5367.6 1143.82C5334.13 1164.48 5279.73 1192.35 5254.53 1201.95C5249.87 1203.68 5243.6 1206.35 5240.53 1207.68C5217.6 1217.95 5152 1239.95 5110.8 1251.28C5060.67 1264.88 4983.73 1281.15 4931.87 1289.02C4844.13 1302.48 4773.2 1309.95 4666.53 1316.88C4554.13 1324.22 4406.8 1321.15 4294.53 1308.88C4252 1304.35 4182.13 1294.08 4135.87 1285.68C3981.2 1257.42 3825.87 1233.15 3685.2 1215.02C3659.2 1211.68 3626.53 1207.42 3612.53 1205.68C3530 1194.88 3452 1187.42 3375.2 1183.02C3354.67 1181.82 3334.53 1180.48 3330.53 1180.08L3323.2 1179.42L3335.2 1175.15C3363.47 1164.88 3389.07 1148.88 3410.93 1127.82C3437.6 1102.08 3456.67 1072.35 3466.93 1040.22C3476.67 1010.22 3476.27 1013.95 3476.8 927.282L3477.33 849.015H3450.67H3423.87V821.682V794.349H3396.53H3369.2V821.682V849.015H3396.53H3423.87V875.682V902.349H3396.67H3369.47L3368.93 945.949C3368.4 989.149 3368.27 989.815 3364.67 1001.68C3350.27 1048.75 3310 1078.88 3261.87 1078.62C3239.73 1078.48 3222 1073.15 3204.27 1061.42C3172.93 1040.62 3155.87 1007.82 3155.87 968.215V958.349H3140.8C3132.4 958.349 3120.13 957.949 3113.47 957.549L3101.2 956.615V930.215V903.682H3128.53H3155.87V847.682V791.682H3128.53H3101.2V772.482V753.282L3105.33 752.482C3107.6 752.082 3120 751.682 3132.67 751.682H3155.87V725.149C3155.87 710.482 3155.33 698.215 3154.67 697.815C3154.13 697.415 3141.73 697.415 3127.33 697.949L3101.2 698.749V717.949V737.015H3073.87H3046.53V764.349V791.682H3073.87H3101.2V847.682V903.682H3073.73H3046.27L3046.93 950.615C3047.6 1000.75 3048.4 1008.88 3055.33 1032.75C3064.93 1066.22 3084.8 1099.55 3109.87 1124.22C3132.4 1146.62 3161.47 1165.42 3187.2 1174.35C3193.73 1176.62 3193.6 1176.62 3151.2 1177.42C3090.93 1178.62 3053.07 1181.15 2983.2 1188.35C2849.33 1202.35 2695.47 1235.55 2582 1274.88C2506.53 1301.15 2411.2 1351.95 2359.33 1393.42C2291.73 1447.82 2255.47 1494.88 2242.4 1545.68C2238.8 1559.68 2238.27 1581.82 2241.07 1608.35C2242.27 1621.15 2242.27 1628.22 2240.93 1643.68C2237.87 1677.68 2240.27 1687.95 2254.4 1701.55C2262.53 1709.15 2274.8 1715.68 2280.8 1715.55C2282.8 1715.55 2295.07 1709.95 2307.87 1703.15L2331.2 1690.62L2333.6 1684.22C2335.33 1679.28 2335.73 1674.62 2335.47 1665.68C2334.93 1649.15 2331.47 1642.08 2317.6 1628.22C2306.8 1617.55 2295.33 1601.55 2288.4 1587.42L2284.67 1579.68L2286.4 1566.22C2290.27 1534.35 2299.73 1512.35 2320.93 1485.15C2350.8 1446.62 2414.8 1398.35 2486 1360.75C2598.13 1301.28 2726.13 1263.55 2901.2 1238.35C2994.27 1225.02 3060.13 1220.08 3161.87 1218.75C3287.2 1217.15 3351.6 1222.75 3525.87 1250.35C3692 1276.75 3876.53 1303.95 4053.2 1328.35C4066.8 1330.22 4083.33 1332.62 4089.87 1333.68C4122.93 1338.88 4201.47 1348.62 4233.87 1351.68C4242.67 1352.48 4254.4 1353.68 4259.87 1354.35C4284.8 1357.68 4371.73 1363.68 4430.4 1366.35C4547.33 1371.55 4720.93 1364.22 4844.53 1348.88C4856.27 1347.42 4870.4 1345.68 4875.87 1345.02C4894.13 1342.88 4899.07 1342.22 4911.2 1340.35C4917.87 1339.28 4927.07 1337.82 4931.87 1337.15C4936.67 1336.35 4947.73 1334.48 4956.53 1333.02C4965.33 1331.42 4976.13 1329.55 4980.53 1328.88C5041.6 1318.88 5131.33 1296.62 5192.53 1276.35C5272.93 1249.82 5329.73 1222.75 5397.87 1178.48C5404.53 1174.22 5417.33 1165.95 5426.53 1160.35C5435.73 1154.62 5447.6 1147.15 5453.07 1143.82L5462.93 1137.68L5467.2 1125.02L5471.47 1112.35L5472.27 1118.35C5472.8 1121.68 5473.47 1136.88 5473.87 1152.35C5474.67 1180.35 5478.13 1231.55 5481.73 1268.62C5488.67 1338.62 5500.8 1395.42 5514.8 1422.48C5525.47 1443.42 5533.33 1448.62 5551.47 1447.15C5567.47 1445.68 5575.6 1442.75 5582.53 1435.68C5595.2 1423.02 5600.27 1408.35 5629.2 1301.02C5647.2 1234.75 5657.47 1203.82 5680.4 1147.42C5726.27 1034.22 5765.73 955.015 5785.47 935.949L5790.13 931.549L5790.93 975.949C5792.27 1043.82 5795.2 1081.82 5801.87 1114.88C5812.13 1165.55 5830.53 1195.95 5857.2 1206.62C5868.53 1211.15 5888.93 1210.75 5903.2 1205.82C5935.07 1194.75 5970.8 1163.28 6006.8 1114.35C6030.67 1082.08 6056 1041.15 6081.87 993.682C6084.53 988.482 6091.6 976.082 6097.47 966.082C6103.33 956.082 6109.6 943.549 6111.47 938.215C6115.47 926.482 6116.8 911.149 6114.67 900.749C6113.2 894.082 6112.53 893.015 6108.8 891.682C6106.4 890.882 6101.2 889.949 6097.2 889.415C6083.33 888.082 6075.47 893.815 6060.53 916.215C6055.2 924.349 6045.6 940.882 6039.2 953.015C6014.53 999.549 5979.6 1055.55 5952.67 1091.68C5933.73 1117.02 5911.87 1137.15 5894.13 1145.42C5877.73 1153.15 5878.27 1153.28 5872.8 1141.15C5870.13 1135.28 5866.4 1125.42 5864.67 1119.28C5857.07 1093.28 5856 1080.75 5854.53 1009.68C5852.67 917.149 5848.27 886.349 5834.13 865.415C5828 856.482 5824 853.949 5814.67 853.282C5795.33 851.949 5775.47 859.282 5760.27 873.415C5746.8 885.949 5739.47 897.282 5715.47 941.149C5653.73 1054.75 5632.53 1103.55 5587.87 1236.35C5579.33 1261.95 5569.33 1289.95 5565.73 1298.35L5559.2 1313.68L5558.93 1306.35C5557.2 1265.02 5554.4 1129.28 5554.4 1093.42C5554.8 903.549 5578.4 645.815 5609.2 497.015C5621.6 436.882 5625.2 410.882 5625.2 382.082C5625.2 366.082 5623.6 349.682 5622 347.949C5621.33 347.282 5595.2 343.682 5591.87 343.815C5590.8 343.815 5588.13 344.482 5586 345.015Z" fill="#001A23"/>
<path d="M2731.6 525.015C2731.2 526.082 2728.53 533.949 2725.73 542.349C2707.73 597.949 2681.87 642.349 2646.27 679.149L2639.6 686.082L2643.07 739.815C2644.93 769.415 2646.53 795.015 2646.53 796.615C2646.53 798.615 2648.13 800.215 2652.4 802.349C2660 805.949 2667.33 814.082 2671.33 823.149L2674.53 830.349H2736.4H2798.27L2800 825.282C2803.2 815.282 2813.6 803.949 2822.67 800.749C2825.33 799.682 2825.47 797.815 2829.33 734.749L2832.4 685.149L2819.73 672.082C2787.2 638.615 2762.4 594.082 2744.93 538.082C2742.53 530.215 2740 523.682 2739.47 523.682C2738.93 523.682 2738.8 565.815 2739.33 617.282L2740.27 710.882L2744.13 714.082C2752.13 720.749 2747.2 734.349 2736.67 734.349C2730.27 734.349 2728 733.282 2725.87 728.882C2722.67 722.749 2723.33 718.482 2728.53 713.549L2733.2 709.149L2732.93 616.082C2732.67 564.882 2732.13 523.949 2731.6 525.015Z" fill="#001A23"/>
<path d="M3986.93 533.282C3983.47 538.615 3969.73 559.949 3956.27 580.749C3942.8 601.549 3931.87 618.749 3931.87 619.015C3931.87 619.415 3972.53 682.482 4005.6 733.682C4012.27 743.949 4041.07 788.349 4069.47 832.349L4121.2 912.215V1049.28C4121.2 1124.62 4121.6 1186.35 4122.27 1186.35C4122.8 1186.22 4146.8 1149.55 4175.73 1104.88L4228.27 1023.42L4228 952.215L4227.87 880.882L4142.4 749.949C4095.33 677.949 4043.07 597.549 4026.13 571.415C4009.07 545.282 3994.8 523.815 3994.13 523.815C3993.6 523.682 3990.4 528.082 3986.93 533.282Z" fill="#001A23"/>
<path d="M4346.93 535.949C4303.6 601.949 4238.53 702.882 4238.53 704.082C4238.67 706.082 4299.07 798.749 4300.67 799.282C4301.33 799.549 4303.6 796.882 4305.87 793.282C4308 789.816 4318.8 773.149 4329.73 756.349C4356.93 714.482 4363.07 705.016 4372.53 690.349C4377.07 683.416 4384 672.616 4388.13 666.349C4392.13 660.082 4398.27 650.482 4401.87 645.016C4405.33 639.549 4410.27 631.949 4412.67 628.216C4415.2 624.482 4417.2 620.349 4417.2 619.016C4417.2 617.682 4412.4 609.282 4406.4 600.349C4400.53 591.416 4387.2 570.616 4376.8 554.349C4366.4 537.949 4357.2 524.349 4356.53 524.082C4355.73 523.816 4351.47 529.149 4346.93 535.949Z" fill="#001A23"/>
<path d="M3825.2 560.215C3821.87 562.615 3762.53 597.549 3693.2 637.549C3623.87 677.682 3565.07 712.082 3562.53 714.215C3547.33 726.349 3539.07 748.749 3542.4 768.882C3544.27 780.482 3550.13 792.482 3558 800.482C3564 806.615 3590.27 823.282 3616.53 837.682C3625.6 842.615 3686.13 877.549 3717.2 895.682C3725.6 900.615 3735.6 906.349 3739.2 908.482C3742.93 910.482 3748.4 913.815 3751.6 915.815L3757.33 919.415L3747.6 925.149C3742.27 928.215 3731.6 934.482 3724.13 939.149L3710.27 947.549L3700.13 941.415C3694.4 938.082 3683.6 931.682 3675.87 927.282C3601.87 885.015 3570.4 866.482 3566.13 862.482C3555.6 852.615 3551.2 837.949 3554.93 825.282C3557.33 817.282 3556.13 816.482 3551.33 822.749C3544.13 832.215 3541.87 839.282 3541.87 853.682C3541.87 866.082 3542.13 867.682 3546.4 876.349C3549.2 881.949 3553.73 888.215 3557.87 892.349C3564.13 898.482 3570.93 902.749 3617.2 929.415C3624.93 933.815 3648.8 947.682 3670.27 959.949C3696.13 974.882 3710.13 982.215 3711.6 981.682C3713.73 980.882 3775.6 945.682 3804.93 928.749C3812.4 924.349 3818.53 920.215 3818.53 919.549C3818.53 919.015 3809.73 913.415 3798.93 907.282C3770.53 891.282 3712.13 857.415 3686.53 842.215C3674.4 835.149 3655.07 823.815 3643.47 817.282L3622.4 805.415L3680.13 772.082C3711.87 753.815 3742.13 736.482 3747.2 733.682C3752.4 730.882 3767.07 722.215 3779.87 714.615C3812.27 695.282 3818.67 692.482 3841.07 687.682C3860.27 683.682 3868.27 675.815 3868.4 661.149C3868.4 646.215 3858.8 635.682 3843.87 634.615C3833.2 633.815 3828.93 636.215 3816.27 650.082C3801.33 666.349 3792.27 672.349 3721.87 712.082C3710.13 718.615 3692.8 728.749 3683.2 734.349C3673.73 740.082 3649.07 754.349 3628.67 766.215L3591.33 787.815L3586 784.082C3583.07 781.949 3578.8 777.815 3576.67 774.749C3573.33 769.949 3572.8 767.949 3572.8 760.082C3572.8 744.615 3575.47 741.549 3601.33 726.482C3707.07 664.882 3831.73 593.149 3839.2 589.415C3846.67 585.682 3860.27 581.415 3870.53 579.682C3881.87 577.682 3889.6 573.149 3893.87 565.815C3899.2 556.749 3898.67 555.682 3888.8 555.682C3882 555.682 3879.73 556.215 3877.87 558.349C3876.4 559.949 3873.73 561.015 3870.93 561.015C3868.13 561.015 3865.6 560.082 3864.27 558.349C3862.13 555.949 3860.27 555.682 3846.53 555.682C3831.2 555.815 3831.2 555.815 3825.2 560.215ZM3846.93 653.015C3851.6 656.749 3852.4 660.082 3849.87 665.015C3848.13 668.349 3847.07 669.015 3842.93 669.015C3840.27 669.015 3836.93 668.082 3835.6 666.749C3831.2 662.882 3833.2 653.949 3838.93 651.682C3843.07 650.082 3843.07 650.082 3846.93 653.015Z" fill="#001A23"/>
<path d="M2663.87 604.349C2625.07 615.015 2587.07 634.482 2558 658.349C2545.07 668.882 2520.8 694.082 2511.33 706.749C2483.33 744.215 2466.27 784.082 2457.87 831.015C2454.8 847.415 2453.73 886.215 2455.73 905.149C2462.53 969.815 2490.67 1029.15 2536.53 1075.15C2550.4 1089.02 2574 1108.75 2575.2 1107.42C2575.6 1107.15 2576.27 1101.68 2576.67 1095.42L2577.6 1083.95L2556.93 1063.42C2545.6 1052.22 2532.67 1038.22 2528.4 1032.35C2490.67 981.282 2474 924.215 2477.47 858.615C2480.93 791.815 2515.87 722.349 2568 679.015C2592.13 658.882 2621.87 641.815 2648.4 632.882L2661.6 628.349L2668.53 617.682C2678 603.015 2679.07 601.015 2676.93 601.149C2676 601.149 2670.13 602.615 2663.87 604.349Z" fill="#001A23"/>
<path d="M2794.53 601.815C2794.53 604.482 2810.67 629.015 2812.4 629.015C2815.87 629.015 2846.53 641.415 2857.2 647.149C2928.13 685.549 2976.13 750.882 2991.2 829.682C2998.93 870.482 2995.33 920.349 2981.87 959.815C2962.93 1015.02 2926.93 1061.28 2877.33 1094.08L2862 1104.22L2874.67 1107.28C2881.6 1108.88 2888.67 1110.22 2890.4 1110.35C2894 1110.35 2902.53 1104.62 2918.53 1091.02C2957.07 1058.35 2986.8 1014.08 3003.07 965.282C3014.27 931.415 3018 905.282 3016.8 868.349C3016 842.215 3013.87 827.149 3007.87 803.815C2983.6 711.015 2909.87 635.015 2816.53 607.149C2798.27 601.682 2794.53 600.749 2794.53 601.815Z" fill="#001A23"/>
<path d="M1941.6 629.282C1938.67 634.615 1927.2 655.148 1915.87 675.015C1904.67 694.748 1888.53 723.282 1880.13 738.348C1871.73 753.415 1854.27 783.682 1841.2 805.682C1828.13 827.682 1809.87 858.615 1800.67 874.348C1791.33 890.082 1784 903.948 1784.27 905.148C1784.53 906.348 1799.07 931.815 1816.53 961.815C1872 1057.28 1883.07 1076.48 1914.8 1132.35L1946 1187.01L2036.27 1187.41C2085.87 1187.55 2126.53 1187.41 2126.53 1187.01C2126.53 1186.75 2120 1175.68 2112 1162.75C2104.13 1149.68 2091.07 1127.28 2083.2 1113.01C2075.33 1098.75 2061.2 1074.75 2051.87 1059.68C2032.67 1028.48 1999.73 972.748 1980.53 938.348C1973.33 925.548 1966 912.482 1964.27 909.415L1961.07 903.815L1980 871.415C1990.4 853.548 2003.73 830.748 2009.6 820.615C2015.47 810.482 2020.67 802.348 2021.33 802.615C2024 803.548 2103.87 939.548 2138.13 1001.68C2165.33 1050.88 2183.2 1082.08 2201.87 1113.01C2212.13 1130.21 2226 1154.08 2232.67 1165.95L2244.53 1187.68H2260.8C2275.07 1187.68 2277.07 1187.41 2277.73 1185.28C2278.13 1184.08 2281.07 1178.48 2284.27 1173.01C2294.13 1155.68 2342.27 1072.48 2361.87 1038.35C2372.27 1020.35 2394 982.748 2410.4 954.882L2440 904.082L2399.07 834.882C2376.53 796.748 2351.47 753.948 2343.47 739.682C2335.47 725.415 2322.4 702.215 2314.53 688.348C2306.67 674.348 2294.93 653.282 2288.4 641.415L2276.53 619.682H2186.27C2136.53 619.682 2095.87 619.948 2095.87 620.348C2095.87 620.748 2101.33 629.815 2108 640.482C2121.07 661.548 2134.93 685.548 2151.47 715.682C2181.2 769.815 2216.27 831.548 2244.93 880.215L2258.93 903.948L2255.07 910.882C2252.93 914.748 2240.13 937.682 2226.53 962.082C2212.93 986.348 2201.47 1005.81 2200.93 1005.28C2197.07 1001.15 2120.27 869.682 2078.53 795.682C2071.73 783.548 2058.53 761.015 2049.2 745.682C2033.6 719.815 2026.4 707.015 1990.8 642.615L1978.13 619.682H1962.4H1946.67L1941.6 629.282ZM2249.87 680.615C2252.67 685.682 2261.73 701.015 2269.87 715.015C2302.93 771.015 2373.33 893.015 2376.8 900.482C2379.07 905.015 2379.47 904.215 2345.2 962.348C2333.2 982.882 2307.33 1027.15 2281.87 1071.01C2261.07 1106.75 2259.73 1109.01 2258.53 1108.35C2258 1107.95 2253.07 1099.68 2247.73 1089.95C2242.53 1080.35 2236.4 1069.28 2234.4 1065.55L2230.53 1058.88L2247.33 1029.55C2300.67 936.748 2318.53 905.148 2318.53 903.948C2318.53 903.282 2308.93 886.215 2297.33 866.082C2285.6 845.948 2262.8 806.082 2246.67 777.548C2230.53 749.015 2210.27 713.948 2201.6 699.682C2192.93 685.415 2185.73 673.282 2185.47 672.748C2185.2 672.082 2198.4 671.682 2214.8 671.682H2244.67L2249.87 680.615ZM1975.33 721.015C1981.73 731.682 1988.13 742.482 1989.6 745.015L1992.27 749.682L1985.6 761.015C1974.13 780.482 1905.07 901.282 1904.4 903.015C1904 903.815 1907.2 910.882 1911.6 918.482C1915.87 926.082 1930.67 952.482 1944.4 977.015C1958.27 1001.55 1975.87 1033.01 1983.6 1047.01C1991.47 1060.88 2000 1075.28 2002.67 1079.01C2006.93 1084.88 2034.53 1133.41 2034.53 1135.01C2034.53 1135.41 2021.73 1135.68 2006.13 1135.68H1977.73L1940.93 1073.95C1920.8 1040.08 1894.13 994.348 1881.87 972.348C1869.6 950.348 1856 926.082 1851.6 918.615C1847.07 910.615 1844 903.948 1844.4 902.748C1844.93 901.548 1856.27 881.415 1869.73 857.815C1883.07 834.348 1909.07 788.748 1927.33 756.748C1953.2 711.148 1960.8 698.748 1962 700.082C1962.93 700.882 1968.8 710.348 1975.33 721.015Z" fill="#001A23"/>
<path d="M3047.47 637.949C3046.93 647.949 3046.53 660.215 3046.53 665.282V674.349H3073.87H3101.2V647.015V619.682H3074.8H3048.27L3047.47 637.949Z" fill="#001A23"/>
<path d="M4485.33 623.282C4484.4 625.415 4477.73 637.149 4470.67 649.682C4463.47 662.082 4455.73 675.682 4453.6 679.682C4451.33 683.682 4445.2 694.749 4439.87 704.349C4434.4 713.815 4427.6 726.215 4424.53 731.682C4413.07 752.349 4400.93 773.549 4398 778.215C4396.27 780.882 4389.6 791.949 4383.2 803.015C4376.67 813.949 4367.73 829.282 4363.2 837.015C4358.67 844.749 4348.8 861.549 4341.2 874.349C4333.6 887.149 4326.67 899.015 4325.6 900.749C4323.87 903.549 4324.13 904.615 4329.6 914.082C4332.93 919.682 4336.8 926.482 4338.13 929.015C4341.87 935.549 4377.33 996.482 4385.87 1011.02C4389.73 1017.55 4395.33 1027.15 4398.13 1032.35C4401.07 1037.42 4415.2 1062.08 4429.47 1087.02C4443.73 1111.95 4456.93 1135.02 4458.8 1138.35C4467.6 1153.95 4479.33 1174.35 4482.93 1180.62L4487.07 1187.68H4577.6H4668.13L4664.4 1181.28C4662.4 1177.82 4655.47 1166.62 4649.07 1156.35C4642.8 1146.08 4634.27 1131.68 4630.27 1124.35C4615.07 1096.62 4609.07 1086.22 4592.93 1059.55C4583.73 1044.48 4574.8 1029.82 4572.93 1026.88C4571.07 1024.08 4564.8 1013.55 4559.07 1003.68C4553.47 993.815 4546.27 981.415 4543.2 976.349C4528.4 951.415 4502.53 905.282 4502.53 903.815C4502.53 902.882 4503.6 900.482 4505.07 898.615C4506.4 896.615 4509.33 891.682 4511.6 887.682C4513.73 883.682 4519.6 873.415 4524.53 865.015C4529.47 856.615 4537.87 842.215 4543.2 833.015C4548.53 823.815 4554.93 813.015 4557.33 808.749L4562 801.282L4564.13 804.749C4565.2 806.749 4574 821.282 4583.6 837.149C4606.27 874.882 4667.2 981.015 4693.87 1029.02C4717.6 1071.82 4724.13 1083.15 4742.93 1114.08C4750.13 1125.95 4762.53 1147.28 4770.4 1161.42L4784.67 1187.02L4800.67 1187.42L4816.8 1187.82L4822.4 1178.08C4825.6 1172.75 4838.93 1149.42 4852.13 1126.35C4885.07 1068.88 4891.73 1057.28 4895.87 1050.35C4897.87 1047.02 4908.67 1028.48 4919.87 1009.02C4938.8 975.949 4953.87 950.215 4962.67 935.282C4964.8 931.815 4966.53 928.749 4966.53 928.482C4966.53 928.349 4969.6 923.149 4973.2 917.015C4976.93 910.882 4979.87 905.149 4979.87 904.082C4979.87 903.149 4971.33 887.815 4960.93 870.215C4938.67 832.882 4929.87 817.949 4926.53 812.349C4921.6 803.682 4909.73 783.682 4902.53 771.682C4898.27 764.749 4892.53 754.749 4889.87 749.682C4887.07 744.482 4880.13 732.215 4874.53 722.349C4868.8 712.482 4862.27 700.749 4859.87 696.349C4848.27 675.282 4842.4 664.749 4836.53 654.349C4833.07 648.082 4827.33 637.949 4823.87 631.682L4817.6 620.349L4726.67 619.949C4676.67 619.815 4636 620.082 4636.27 620.615C4636.67 621.282 4643.73 632.749 4651.87 646.349C4660.13 659.949 4682.53 698.882 4701.6 733.015C4756 830.482 4759.87 837.415 4763.33 843.015C4765.2 845.949 4774 860.882 4782.93 876.215L4799.33 904.082L4787.47 925.549C4780.8 937.415 4769.73 957.149 4762.8 969.682C4755.87 982.082 4748.4 995.549 4746.27 999.282L4742.4 1006.35L4731.6 988.615C4725.6 979.015 4717.33 965.282 4713.2 958.349C4702.67 940.749 4641.73 834.882 4621.2 798.349C4611.87 781.815 4598.4 758.749 4591.2 747.015C4576.13 722.749 4565.33 703.549 4522.67 626.082L4519.2 619.682H4503.07H4486.93L4485.33 623.282ZM4790.4 680.615C4793.07 685.282 4799.6 696.615 4805.07 705.949C4810.53 715.415 4821.6 734.349 4829.87 748.349C4838 762.215 4849.6 782.082 4855.47 792.349C4861.33 802.615 4871.73 820.615 4878.53 832.349C4885.33 844.082 4892.4 856.349 4894.27 859.682C4896.13 863.015 4902.67 874.349 4908.67 884.882L4919.73 904.215L4917.33 908.215C4915.87 910.482 4911.87 917.415 4908.13 923.682C4880.8 970.749 4862.67 1001.95 4857.2 1011.02C4853.73 1016.88 4847.6 1027.42 4843.6 1034.35C4832 1054.35 4803.73 1102.75 4801.6 1106.08C4799.73 1109.15 4799.6 1109.15 4793.73 1098.88C4790.53 1093.15 4787.87 1088.48 4787.87 1088.35C4787.87 1088.08 4784.27 1081.55 4779.87 1073.68C4775.47 1065.82 4771.87 1059.15 4771.87 1058.75C4771.87 1058.22 4809.2 992.749 4821.87 971.015C4825.73 964.349 4831.47 954.482 4834.53 949.015C4837.6 943.549 4841.2 937.149 4842.53 935.015C4843.87 932.749 4848.27 925.015 4852.53 917.682C4861.2 902.349 4861.73 905.682 4847.87 882.349C4834.27 859.149 4823.47 840.615 4821.73 837.682C4820.93 836.215 4814.4 824.749 4807.2 812.349C4800 799.815 4792.67 787.015 4790.8 783.682C4789.07 780.349 4787.07 777.015 4786.53 776.349C4786 775.549 4784.13 772.349 4782.27 769.015C4762.27 732.749 4747.33 706.882 4735.2 687.549C4733.07 684.082 4729.87 679.015 4728.27 676.349L4725.2 671.682L4755.33 671.949L4785.6 672.349L4790.4 680.615ZM4517.07 723.415C4525.2 736.749 4531.87 748.349 4531.87 749.015C4531.87 750.482 4518.53 774.482 4500.8 805.015C4494.13 816.349 4485.2 831.949 4480.8 839.682C4476.4 847.415 4470.67 857.549 4467.87 862.349C4465.2 867.149 4458.67 878.482 4453.47 887.549C4442.53 906.615 4442.13 901.682 4457.07 927.282C4470.4 950.349 4518.53 1036.62 4530.13 1058.35C4533.47 1064.62 4538.67 1073.02 4541.87 1077.02C4544.93 1081.02 4549.87 1088.88 4552.8 1094.35C4558 1103.95 4560.13 1107.95 4570 1125.82C4572.53 1130.22 4574.53 1134.35 4574.53 1134.75C4574.53 1135.28 4562.13 1135.68 4546.8 1135.68H4519.2L4513.73 1126.62C4468.67 1052.48 4440 1003.55 4407.87 945.682C4401.73 934.615 4394.4 921.815 4391.6 917.015C4388.8 912.215 4386.13 907.149 4385.73 905.549C4385.07 902.882 4388.8 895.682 4408.4 861.682C4412.27 855.015 4434.8 815.682 4458.53 773.949C4482.27 732.349 4501.73 698.482 4501.87 698.615C4502.13 698.882 4508.93 709.949 4517.07 723.415Z" fill="#001A23"/>
<path d="M4886.53 620.082C4886.53 620.349 4894.67 626.216 4904.53 633.149C4914.53 640.082 4928 649.416 4934.53 653.949L4946.4 662.349H5063.47H5180.53L5204.4 686.216L5228.13 709.949L5228.67 947.682C5228.93 1078.48 5229.33 1185.68 5229.6 1185.95C5229.87 1186.08 5240.93 1175.42 5254.27 1162.08L5278.53 1137.82V911.816V685.682L5245.47 652.616L5212.53 619.682H5049.47C4959.87 619.682 4886.53 619.949 4886.53 620.082Z" fill="#001A23"/>
<path d="M3369.2 689.682V717.016H3396.53H3423.87V689.682V662.349H3396.53H3369.2V689.682Z" fill="#001A23"/>
<path d="M3423.87 757.682V785.016H3450.53H3477.2V757.682V730.349H3450.53H3423.87V757.682Z" fill="#001A23"/>
<path d="M5137.87 731.949C5137.47 732.882 5137.33 824.749 5137.6 936.082L5137.87 1138.35L5162.93 1163.42L5187.87 1188.35V959.282V730.349H5163.2C5144.67 730.349 5138.27 730.749 5137.87 731.949Z" fill="#001A23"/>
<path d="M3773.73 773.415C3744.27 790.348 3720 804.882 3719.87 805.548C3719.6 806.882 3731.47 814.082 3781.87 843.015C3851.33 882.882 3912.53 918.482 3913.6 919.548C3914.13 920.215 3902.13 927.682 3886.93 936.348C3871.73 945.015 3855.07 954.615 3849.87 957.682C3834.93 966.882 3749.6 1015.95 3737.2 1022.75C3723.2 1030.21 3710.27 1035.01 3696.4 1037.68C3684.13 1039.95 3676.8 1044.48 3672.8 1052.08C3663.87 1069.28 3674.67 1089.15 3693.87 1091.41C3702.53 1092.35 3712.13 1087.15 3719.73 1077.68C3729.33 1065.55 3740.8 1056.75 3762.53 1044.48C3768.8 1040.88 3797.87 1024.08 3827.2 1007.01C3923.07 951.282 3940.53 941.282 3944 939.682C3950.8 936.615 3962 947.148 3965.33 959.948C3966.8 965.282 3966.67 967.282 3964.8 973.415C3963.47 977.548 3960.67 982.482 3958 985.148C3955.6 987.682 3935.07 1000.21 3912.4 1013.28C3877.73 1033.01 3815.07 1069.15 3781.2 1089.01C3695.2 1139.15 3688.67 1142.48 3667.87 1145.68C3650.53 1148.35 3640.8 1158.21 3640.8 1173.01C3640.8 1177.15 3641.73 1182.08 3642.8 1184.35C3647.2 1192.75 3657.87 1199.68 3666.13 1199.68C3675.6 1199.68 3679.6 1197.15 3696.13 1180.61C3711.87 1165.01 3713.6 1163.68 3737.2 1150.08C3750.8 1142.35 3788.53 1120.48 3821.2 1101.55C3870.8 1072.88 3940.13 1033.01 3956.8 1023.55C3986.4 1006.75 3996.8 990.482 3995.6 962.482C3995.2 951.548 3994.53 948.348 3990.8 940.615C3983.2 924.348 3977.6 920.082 3918.53 885.948C3889.6 869.282 3857.47 850.615 3847.2 844.482C3836.93 838.482 3818 827.682 3805.2 820.482C3792.4 813.282 3781.47 807.015 3780.8 806.482C3780.27 805.948 3790.67 799.415 3803.73 791.815L3827.73 778.082L3897.47 818.348C3935.87 840.482 3969.2 860.482 3971.6 862.748C3974.13 865.148 3977.73 869.682 3979.6 873.015C3982.67 878.215 3983.2 880.482 3983.2 889.682C3983.2 895.548 3982.67 902.082 3982.13 904.348C3981.07 908.215 3981.07 908.215 3983.73 905.682C3985.33 904.348 3988.53 899.282 3990.93 894.482C3994.93 886.215 3995.2 884.882 3995.2 871.015C3995.2 857.548 3994.93 855.682 3991.33 848.482C3987.07 839.415 3976.67 828.482 3967.87 823.548C3964.53 821.682 3950.13 813.415 3935.87 805.015C3899.47 783.948 3827.6 742.348 3827.33 742.348C3827.33 742.348 3803.07 756.348 3773.73 773.415ZM3702.13 1058.61C3706.13 1062.35 3706 1067.01 3701.87 1071.01C3697.87 1075.01 3694.67 1075.15 3690 1071.55C3685.73 1068.21 3685.47 1063.01 3689.47 1058.75C3693.07 1054.88 3698.13 1054.88 3702.13 1058.61ZM3673.2 1166.35C3675.87 1169.01 3676.67 1175.01 3674.8 1177.81C3673.47 1179.81 3668.53 1182.35 3665.87 1182.35C3662.93 1182.35 3657.2 1176.35 3657.2 1173.28C3657.2 1165.41 3667.73 1160.88 3673.2 1166.35Z" fill="#001A23"/>
<path d="M2673.2 943.548V1045.95L2678.93 1046.88C2682 1047.28 2697.2 1048.08 2712.53 1048.48C2737.73 1049.28 2763.73 1048.22 2790.93 1045.42L2798.53 1044.62V942.882V841.015H2735.87H2673.2V943.548Z" fill="#001A23"/>
<path d="M2814.53 1049.81C2769.33 1058.21 2695.2 1058.61 2646.27 1050.75L2641.2 1049.95V1080.88C2641.2 1105.01 2641.6 1111.68 2642.93 1111.68C2643.87 1111.68 2654.8 1109.95 2667.2 1107.68C2679.73 1105.55 2690.8 1103.81 2691.87 1103.81C2693.87 1103.95 2647.2 1115.01 2618.27 1121.41L2603.87 1124.61V1118.35C2603.87 1113.81 2604.53 1111.41 2606.53 1109.68C2609.2 1107.28 2610 1103.01 2608.13 1100.08C2607.6 1099.15 2607.87 1091.01 2608.8 1082.08C2610.93 1060.35 2610.93 1059.68 2608.53 1059.68C2606.93 1059.68 2606.53 1061.55 2606.27 1067.95L2606.13 1076.35L2605.2 1067.68L2604.27 1059.01L2603.87 1069.01L2603.33 1079.01L2602.53 1068.35L2601.73 1057.68L2601.2 1065.68L2600.8 1073.68L2599.87 1066.35L2599.07 1059.01L2598.4 1065.01L2597.6 1071.01L2597.47 1065.28C2597.2 1061.15 2596.67 1059.68 2595.07 1059.68C2593.47 1059.68 2593.2 1060.75 2593.73 1065.28C2596.13 1083.28 2597.07 1099.01 2595.87 1100.21C2593.6 1102.48 2594.4 1107.41 2597.6 1109.95C2600.13 1111.95 2600.53 1113.41 2600.13 1119.01L2599.6 1125.68L2567.73 1133.01C2550.27 1137.01 2535.87 1140.61 2535.87 1141.01C2535.87 1141.41 2580.93 1152.08 2636 1164.88L2736.13 1187.95L2836 1164.88C2890.93 1152.21 2935.87 1141.41 2935.87 1141.01C2935.87 1140.48 2921.87 1137.01 2904.93 1133.15C2887.87 1129.28 2864.27 1123.81 2852.53 1121.15L2831.2 1116.35L2830.8 1081.95L2830.53 1047.68L2827.47 1047.81C2825.87 1047.95 2820 1048.75 2814.53 1049.81ZM2698.13 1103.15C2697.73 1103.55 2696.53 1103.68 2695.6 1103.28C2694.53 1102.88 2694.93 1102.48 2696.4 1102.48C2697.87 1102.35 2698.67 1102.75 2698.13 1103.15Z" fill="#001A23"/>
<path d="M2499.47 1427.68C2496.67 1428.22 2493.07 1429.95 2491.47 1431.55C2488.8 1434.22 2488.53 1435.82 2488.53 1451.02C2488.53 1475.55 2488.53 1475.55 2532.93 1475.68H2561.2V1488.35V1501.02H2529.2H2497.2V1494.35C2497.2 1487.02 2496.93 1486.88 2488.67 1489.15L2483.47 1490.62L2484.27 1497.15C2486.13 1512.35 2488 1513.02 2529.47 1512.88C2547.33 1512.75 2563.33 1512.35 2565.07 1511.82C2571.73 1509.95 2573.87 1504.75 2574.27 1489.28C2574.53 1477.68 2574.27 1474.22 2572.27 1470.35C2568.67 1463.28 2564.8 1462.48 2530.13 1462.48L2499.73 1462.35L2500.13 1450.62L2500.53 1439.02L2530.93 1438.62L2561.2 1438.35V1444.88V1451.42L2566.93 1449.68C2572.13 1448.22 2572.53 1447.68 2572.93 1442.88C2573.47 1434.62 2569.6 1429.55 2561.2 1427.82C2553.73 1426.22 2507.6 1426.08 2499.47 1427.68Z" fill="#001A23"/>
<path d="M4897.87 1427.55C4891.2 1429.28 4888 1431.55 4886.93 1435.42C4886.27 1437.42 4885.87 1453.42 4885.87 1471.02C4885.87 1506.35 4886.13 1507.95 4893.87 1511.15C4899.73 1513.55 4966.4 1513.82 4973.07 1511.55C4980 1509.15 4981.6 1504.22 4982.27 1483.28L4982.93 1465.02H4957.33H4931.87V1470.35V1475.55L4949.6 1475.95L4967.2 1476.35L4967.6 1488.62L4968 1501.02H4933.87H4899.73L4900 1470.48L4900.27 1439.82L4908.4 1439.02C4912.8 1438.62 4928 1438.35 4941.87 1438.62L4967.2 1439.02L4967.6 1445.28L4968 1451.55L4972.27 1450.75C4982 1448.88 4982.67 1448.22 4981.73 1442.08C4980.8 1435.28 4978.4 1431.15 4974.27 1428.75C4970.8 1426.75 4904.93 1425.82 4897.87 1427.55Z" fill="#001A23"/>
<path d="M5318.13 1429.28C5313.87 1436.48 5306.53 1449.28 5306.53 1449.68C5306.53 1450.08 5301.6 1459.15 5295.6 1469.95C5281.73 1495.02 5273.2 1511.28 5273.2 1512.35C5273.2 1512.75 5276.27 1513.02 5280.13 1512.75L5287.07 1512.35L5292.53 1502.08L5297.87 1491.68H5326.53H5355.2L5360.93 1502.35L5366.67 1513.02H5374.67H5382.67L5377.47 1503.28C5374.53 1498.08 5368.4 1486.75 5363.6 1478.35C5358.8 1469.95 5352.8 1459.15 5350.27 1454.35C5347.73 1449.55 5343.2 1441.42 5340.27 1436.35L5334.93 1427.02L5327.47 1426.62C5320.93 1426.22 5319.73 1426.62 5318.13 1429.28ZM5337.87 1458.48C5343.73 1469.55 5348.8 1479.15 5348.93 1479.82C5349.2 1480.48 5340 1481.02 5326.53 1481.02H5303.6L5312 1465.28C5316.67 1456.75 5321.6 1447.15 5323.07 1443.95C5324.53 1440.88 5326 1438.35 5326.4 1438.35C5326.8 1438.35 5332 1447.42 5337.87 1458.48Z" fill="#001A23"/>
<path d="M5410.4 1434.22C5410.4 1438.75 5410.4 1454.35 5410.4 1469.02C5410.4 1483.68 5410.4 1499.55 5410.4 1504.35L5410.53 1513.02H5417.87H5425.2L5424.93 1469.95L5424.53 1427.02L5417.6 1426.62L5410.53 1426.22L5410.4 1434.22Z" fill="#001A23"/>
<path d="M2606.13 1449.55C2609.6 1453.55 2617.73 1462.48 2624.27 1469.42L2635.87 1481.95V1497.55V1513.02H2642.53H2649.2V1497.82V1482.75L2667.47 1462.88L2685.87 1443.02L2678.53 1442.62C2670.4 1442.08 2672.13 1440.75 2652.13 1463.02L2643.87 1472.35L2629.47 1457.28L2615.2 1442.22L2607.47 1442.35H2599.6L2606.13 1449.55Z" fill="#001A23"/>
<path d="M2706.53 1477.68V1513.02H2712.53H2718.53V1486.35V1459.68L2748.53 1486.35C2775.47 1510.35 2778.93 1513.02 2783.2 1513.02H2787.87V1477.68V1442.35H2781.87H2775.87V1469.28V1496.22L2768.27 1488.75C2764 1484.62 2750.67 1472.48 2738.53 1461.82C2718.53 1444.08 2716.13 1442.35 2711.6 1442.35H2706.53V1477.68Z" fill="#001A23"/>
<path d="M2807.87 1447.68V1453.02H2824.53H2841.2V1483.02V1513.02H2847.87H2854.53V1483.02V1453.02H2871.2H2887.87V1447.68V1442.35H2847.87H2807.87V1447.68Z" fill="#001A23"/>
<path d="M2907.87 1477.68V1513.02H2914.53H2921.2V1497.02V1481.02H2949.2H2977.2V1497.02V1513.02H2983.87H2990.53V1477.68V1442.35H2983.87H2977.2V1456.35V1470.35H2949.2H2921.2V1456.35V1442.35H2914.53H2907.87V1477.68Z" fill="#001A23"/>
<path d="M3023.87 1477.68V1513.02H3059.87H3095.87V1507.68V1502.35H3066.53H3037.2V1491.68V1481.02H3054.53H3071.87V1475.68V1470.35H3054.53H3037.2V1461.68V1453.02H3065.87H3094.53V1447.68V1442.35H3059.2H3023.87V1477.68Z" fill="#001A23"/>
<path d="M3127.87 1444.08C3122.4 1446.88 3121.07 1451.15 3121.47 1464.08C3121.87 1475.15 3122.13 1476.08 3125.6 1479.15C3129.33 1482.35 3129.73 1482.35 3156.67 1482.35H3183.87V1492.35V1502.35H3157.2H3130.53V1497.02C3130.53 1491.28 3130.67 1491.28 3120.93 1493.95C3117.2 1494.88 3117.73 1503.95 3121.73 1508.62L3124.93 1512.35H3157.07C3188.67 1512.35 3189.2 1512.35 3192.13 1509.28C3194.8 1506.75 3195.2 1504.62 3195.73 1494.22C3196.13 1481.68 3194.67 1475.42 3190.8 1473.42C3189.47 1472.88 3176.27 1472.08 3161.2 1471.68L3133.87 1471.02L3133.47 1461.95L3133.07 1453.02H3157.87H3182.53V1457.68C3182.53 1462.08 3182.8 1462.35 3186.27 1461.55C3194.4 1459.68 3194.53 1459.68 3194.53 1454.62C3194.4 1448.75 3192.4 1445.68 3187.33 1443.68C3181.87 1441.68 3132 1441.95 3127.87 1444.08Z" fill="#001A23"/>
<path d="M3226.53 1477.68V1513.02H3233.2H3239.87V1477.68V1442.35H3233.2H3226.53V1477.68Z" fill="#001A23"/>
<path d="M3271.87 1447.68V1453.02H3296.13H3320.53L3294.13 1479.42C3272.8 1500.75 3267.87 1506.35 3267.87 1509.42V1513.02H3305.2H3342.53V1507.68V1502.35H3315.6H3288.67L3315.6 1475.15C3333.87 1456.88 3342.53 1447.15 3342.53 1445.15C3342.53 1442.35 3342.4 1442.35 3307.2 1442.35H3271.87V1447.68Z" fill="#001A23"/>
<path d="M3374.53 1477.68V1513.02H3410.53H3446.53V1507.68V1502.35H3417.2H3387.73L3388.13 1491.95L3388.53 1481.68L3406.27 1481.28L3424 1480.88L3423.6 1475.95L3423.2 1471.02L3405.6 1470.62L3387.87 1470.22V1461.68V1453.02H3417.2H3446.53V1447.68V1442.35H3410.53H3374.53V1477.68Z" fill="#001A23"/>
<path d="M3477.2 1477.82V1513.28L3506.27 1512.75C3533.33 1512.35 3535.6 1512.08 3542.27 1509.15C3555.87 1503.02 3562.13 1491.42 3560.93 1474.48C3559.73 1458.48 3550.27 1446.88 3535.73 1443.82C3532.13 1443.02 3517.33 1442.35 3503.2 1442.35H3477.2V1477.82ZM3536.53 1456.48C3546.93 1461.82 3550.93 1477.42 3545.2 1490.08C3541.07 1499.28 3534.53 1501.42 3510.27 1502.08L3490.53 1502.62V1477.68V1452.75L3510.93 1453.15C3528.13 1453.68 3532 1454.08 3536.53 1456.48Z" fill="#001A23"/>
<path d="M3655.87 1477.68V1513.02H3687.2C3723.07 1513.02 3726.67 1512.35 3729.87 1504.48C3734 1494.62 3731.6 1482.35 3724.67 1478.22C3722.27 1476.75 3721.47 1475.68 3722.67 1475.68C3723.73 1475.68 3726 1474.35 3727.6 1472.62C3730 1469.95 3730.53 1467.95 3730.53 1459.82C3730.53 1450.88 3730.27 1449.82 3726.67 1446.22L3722.8 1442.35H3689.33H3655.87V1477.68ZM3715.73 1454.88C3716.67 1455.95 3717.2 1459.68 3716.93 1463.28L3716.53 1469.68L3692.93 1470.08L3669.2 1470.35V1461.68V1453.02H3691.73C3709.6 1453.02 3714.53 1453.42 3715.73 1454.88ZM3714.67 1482.35C3716.67 1483.55 3717.2 1485.28 3717.2 1491.42C3717.2 1495.68 3716.53 1499.82 3715.6 1500.75C3714.53 1501.82 3707.2 1502.35 3691.6 1502.35H3669.2V1491.68V1481.02H3690.67C3702.8 1481.02 3713.2 1481.55 3714.67 1482.35Z" fill="#001A23"/>
<path d="M3761.2 1477.68V1513.02H3767.87H3774.53V1499.02V1485.02H3783.6H3792.53L3807.47 1499.15L3822.4 1513.15L3830.8 1512.75L3839.07 1512.35L3823.87 1499.02L3808.8 1485.68L3817.6 1485.02C3830.4 1484.08 3832.27 1481.82 3832.93 1466.75C3833.6 1452.88 3831.47 1445.82 3825.87 1443.68C3823.87 1442.88 3808.8 1442.35 3791.73 1442.35H3761.2V1477.68ZM3817.2 1454.35C3820 1456.08 3820 1472.62 3817.2 1474.35C3816.13 1475.02 3806 1475.68 3794.93 1475.68H3774.53V1464.35V1453.02H3794.93C3806 1453.02 3816.13 1453.68 3817.2 1454.35Z" fill="#001A23"/>
<path d="M3862.53 1477.68V1513.02H3869.2H3875.87V1477.68V1442.35H3869.2H3862.53V1477.68Z" fill="#001A23"/>
<path d="M3907.87 1477.68V1513.02H3942.53H3977.2V1507.68V1502.35H3949.2H3921.2V1472.35V1442.35H3914.53H3907.87V1477.68Z" fill="#001A23"/>
<path d="M3997.2 1477.68V1513.02H4031.87H4066.53V1507.68V1502.35H4038.53H4010.53V1472.35V1442.35H4003.87H3997.2V1477.68Z" fill="#001A23"/>
<path d="M4086.53 1477.68V1513.02H4093.2H4099.87V1477.68V1442.35H4093.2H4086.53V1477.68Z" fill="#001A23"/>
<path d="M4153.87 1455.02C4143.73 1472.22 4121.2 1511.95 4121.2 1512.48C4121.2 1512.75 4124.13 1513.02 4127.87 1513.02H4134.53L4138.53 1505.02L4142.53 1497.02H4167.07H4191.47L4196 1504.62L4200.53 1512.35L4208.4 1512.75L4216.13 1513.15L4212.4 1506.75C4210.27 1503.15 4200.8 1487.28 4191.2 1471.28L4173.87 1442.35H4167.6H4161.33L4153.87 1455.02ZM4177.73 1471.55C4181.87 1479.15 4184.93 1485.68 4184.67 1485.95C4184.4 1486.22 4176.4 1486.22 4166.93 1486.08L4149.47 1485.68L4158.4 1469.55C4165.73 1456.08 4167.47 1453.68 4168.67 1455.55C4169.47 1456.75 4173.6 1463.95 4177.73 1471.55Z" fill="#001A23"/>
<path d="M4235.87 1477.68V1513.02H4242.67H4249.33L4248.93 1485.95L4248.53 1458.75L4265.2 1474.22C4274.4 1482.75 4284 1491.42 4286.53 1493.68C4309.2 1513.15 4308.93 1513.02 4313.73 1513.02H4318.53V1477.68V1442.35H4311.73H4304.93L4305.47 1468.75L4305.87 1495.28L4291.87 1482.48C4249.73 1444.35 4247.2 1442.35 4241.33 1442.35H4235.87V1477.68Z" fill="#001A23"/>
<path d="M4353.2 1446.22L4349.2 1450.08V1476.88C4349.2 1491.55 4349.73 1505.02 4350.4 1506.75C4352.4 1512.08 4358 1513.02 4388 1513.02C4417.47 1513.02 4421.2 1512.35 4423.73 1506.75C4425.33 1503.15 4425.73 1487.68 4424.27 1487.68C4423.6 1487.55 4420.67 1487.02 4417.6 1486.48L4411.87 1485.42V1493.82V1502.35H4387.2H4362.53V1477.68V1453.02H4387.2H4411.87V1460.35C4411.87 1468.22 4411.73 1468.22 4420.4 1466.75L4425.47 1465.95L4424.93 1457.42C4424.53 1450.88 4423.73 1448.22 4421.47 1445.95C4418.53 1443.15 4417.47 1443.02 4387.73 1442.62L4357.2 1442.22L4353.2 1446.22Z" fill="#001A23"/>
<path d="M4453.2 1477.68V1513.02H4489.2H4525.2V1507.68V1502.35L4496.27 1502.08L4467.2 1501.68V1492.08V1482.48L4484.53 1482.08L4501.87 1481.68L4502.27 1475.95L4502.67 1470.35H4484.8H4467.07V1461.68L4467.2 1453.02H4496.27H4525.2V1447.68V1442.35H4489.2H4453.2V1477.68Z" fill="#001A23"/>
<path d="M4617.2 1444.08C4611.87 1446.75 4610.67 1452.88 4610.67 1478.08C4610.53 1502.62 4611.73 1508.75 4616.93 1511.55C4618.67 1512.48 4632.13 1513.02 4654.4 1513.02H4689.07L4692.8 1509.82L4696.53 1506.62L4696.93 1480.35C4697.47 1452.62 4696.8 1448.08 4691.33 1444.35C4687.6 1441.68 4622.4 1441.42 4617.2 1444.08ZM4682.53 1477.68V1502.35H4653.87H4625.2V1477.68V1453.02H4653.87H4682.53V1477.68Z" fill="#001A23"/>
<path d="M4727.87 1477.68V1513.02H4734.53H4741.2V1499.02V1485.02H4758H4774.67L4774.27 1479.95L4773.87 1475.02L4757.6 1474.62L4741.2 1474.22V1463.68V1453.02H4769.87H4798.53V1447.68V1442.35H4763.2H4727.87V1477.68Z" fill="#001A23"/>
<path d="M5017.2 1477.68V1513.02H5053.2H5089.2V1507.68V1502.35H5059.87H5030.53V1492.35V1482.48L5047.6 1482.08L5064.53 1481.68L5064.93 1475.95L5065.33 1470.35H5048H5030.53V1461.68V1453.02H5059.2H5087.87V1447.68V1442.35H5052.53H5017.2V1477.68Z" fill="#001A23"/>
<path d="M5113.2 1477.68V1513.02H5120H5126.67L5126.27 1485.82L5125.87 1458.62L5135.2 1467.55C5140.4 1472.35 5154 1484.62 5165.47 1494.62C5184 1511.02 5186.8 1513.02 5191.07 1513.02H5195.87V1477.68V1442.35H5189.07H5182.27L5182.67 1468.75L5183.2 1495.15L5163.33 1477.15C5125.87 1442.88 5125.2 1442.35 5118.93 1442.35H5113.2V1477.68Z" fill="#001A23"/>
<path d="M5221.2 1468.35V1474.35H5239.2H5257.2V1468.35V1462.35H5239.2H5221.2V1468.35Z" fill="#001A23"/>
</svg>
