<svg width="1920" height="1080" viewBox="0 0 1920 1080" fill="none" xmlns="http://www.w3.org/2000/svg">
<g clip-path="url(#clip0_91_2)">
<path d="M1118.24 673.726C1125.66 682.479 1132.85 690.939 1139.95 699.47C1149.43 710.866 1158.8 722.36 1168.32 733.73C1174.82 741.501 1181.49 749.132 1188.69 757.529C1188.83 755.322 1188.99 753.952 1188.99 752.581C1189 727.259 1189 701.937 1189 676.615C1189 669.981 1189.02 669.983 1195.95 669.516C1196.23 669.496 1196.49 669.111 1196.78 669.08C1207.16 667.972 1209 669.638 1209 680.1C1209 714.086 1209 748.071 1209 782.056C1209 789.032 1207.96 789.299 1201.15 790.166C1191.71 791.37 1186.38 786.426 1181.19 779.777C1173.47 769.889 1165.21 760.424 1157.25 750.725C1148.78 740.413 1140.41 730.018 1131.95 719.703C1129.74 717.006 1127.32 714.473 1124.3 711.079C1124.16 713.504 1124.01 714.89 1124.01 716.276C1124 738.767 1123.91 761.257 1124.07 783.746C1124.11 788.523 1122.37 790.485 1117.66 790.033C1115.84 789.859 1114 790.009 1112.16 789.999C1105.81 789.962 1103.99 788.171 1103.99 781.9C1103.99 752.746 1103.81 723.59 1104.15 694.44C1104.22 688.285 1102.02 683.84 1098.16 679.616C1095.87 677.116 1093.83 674.39 1091.65 671.724C1098.42 666.988 1112.63 668.13 1118.24 673.726Z" fill="#0F1035"/>
<path d="M806.986 679.05C807.32 675.754 807.654 672.926 808.001 669.994C813.276 669.994 817.955 670.239 822.596 669.921C826.812 669.633 827.052 671.878 827.042 675.121C826.965 699.95 827 724.78 827 749.609C827 760.774 827.003 771.939 826.999 783.104C826.997 788.794 825.97 789.051 820.193 790.136C808.996 792.239 803.923 784.583 798.19 777.609C791.98 770.055 785.713 762.549 779.503 754.996C770.609 744.177 761.767 733.316 752.854 722.514C749.614 718.587 746.232 714.779 742 709.851C742 712.544 742 713.943 742 715.343C742 737.673 741.886 760.004 742.068 782.332C742.124 789.151 741.083 790.457 734.072 790.025C732.743 789.943 731.405 790.043 730.073 790.001C725.046 789.842 723.007 787.781 723.005 782.812C722.994 752.65 722.922 722.488 723.073 692.327C723.094 688.194 721.551 685.253 718.933 682.366C716.007 679.14 713.397 675.626 709.499 670.818C712.87 670.422 714.903 670.053 716.946 669.976C719.773 669.869 722.745 670.544 725.413 669.892C732.658 668.121 736.107 673.019 739.837 677.468C745.906 684.706 751.814 692.078 757.853 699.339C766.304 709.501 774.779 719.643 783.31 729.738C790.899 738.719 798.578 747.624 807.318 757.851C807.318 754.352 807.359 752.105 807.304 749.86C807.268 748.377 807.003 746.897 807.001 745.415C806.978 728.251 806.986 711.087 806.986 693.923C806.986 689.122 806.986 684.32 806.986 679.05Z" fill="#0F1035"/>
<path d="M1465 776.961C1465.06 791.343 1466.14 789.963 1452.45 790.022C1446.37 790.049 1444.76 788.47 1444.88 782.749C1445.22 767.28 1445 751.798 1445 737.245C1435.6 737.503 1426.47 738.241 1417.4 737.864C1408.13 737.479 1398.92 735.904 1389.66 735.075C1387.65 734.894 1385.48 735.458 1383.49 736.047C1379.84 737.125 1377.86 738.398 1378.69 743.543C1379.92 751.176 1379.01 759.153 1379.01 766.984C1379.01 772.316 1379.08 777.648 1378.99 782.978C1378.91 787.692 1376.77 789.978 1372.13 789.963C1358.24 789.92 1358.94 791.866 1358.98 777.533C1359.05 743.544 1359 709.555 1359 675.566C1359 670.015 1359.96 669.081 1365.63 668.995C1378.52 668.8 1378.99 669.253 1379 682.016C1379.01 691.18 1379.07 700.344 1378.99 709.507C1378.93 717.028 1378.77 716.333 1386.69 715.364C1392.39 714.666 1398.34 716.413 1404.2 716.568C1416.48 716.893 1428.78 716.809 1441.07 717.069C1444.67 717.146 1445.06 715.303 1445.04 712.393C1444.94 699.897 1445.13 687.398 1444.91 674.906C1444.85 671.667 1445.8 669.803 1448.94 669.558C1453.04 669.238 1457.2 668.889 1461.28 669.231C1464.32 669.487 1465.08 671.917 1465.07 675C1464.96 708.822 1465 742.645 1465 776.961Z" fill="#0F1035"/>
<path d="M883.111 788.989C872.091 785.228 863.934 778.046 856.573 769.892C855.747 768.977 856.397 766.703 856.439 765.061C856.445 764.827 856.901 764.614 857.132 764.375C866.305 754.878 865.886 755.415 876.193 763.447C886.129 771.189 897.545 774.722 910.678 772.3C917.742 770.998 924.488 770.237 930.317 765.383C935.977 760.669 938.645 754.806 936.789 748.459C934.345 740.099 929.345 737.732 922.416 737.086C911.792 736.094 901.069 736.077 890.473 734.887C879.808 733.689 869.903 730.249 863.869 720.362C856.12 707.664 857.78 698.172 864.87 686.893C872.778 674.314 885.32 668.507 899.895 667.009C917.355 665.213 932.902 669.884 946.52 680.977C947.384 681.681 948.978 682.038 949.217 682.854C949.825 684.928 950.814 687.743 949.925 689.231C947.945 692.547 945.127 695.482 942.178 698.025C941.27 698.809 938.178 698.496 937.2 697.543C928.212 688.777 916.757 686.611 905.116 686.282C899.48 686.123 893.323 686.917 888.195 690.894C883.15 694.807 879.843 701.185 881.013 706.842C881.895 711.11 887.962 715.53 894.159 715.953C901.885 716.481 909.656 716.418 917.369 717.063C927.177 717.884 936.685 719.929 945.102 725.538C952.345 730.365 955.575 737.552 956.96 745.688C960.393 765.859 944.328 785.865 925.695 789.062C918.555 790.286 911.448 792.712 904.324 792.718C897.389 792.725 890.453 790.338 883.111 788.989Z" fill="#0F1035"/>
<path d="M482.699 700.797C475.322 709.437 472.589 719.878 472.44 730.134C472.306 739.378 475.137 748.7 481.757 756.414C492.136 768.508 505.354 773.285 520.745 772.936C529.604 772.735 537.75 769.647 545.148 764.872C546.539 763.975 547.736 761.797 547.87 760.119C548.239 755.485 547.97 750.801 548.008 746.138C548.038 742.415 545.364 743.03 543.089 743.003C533.456 742.886 533.51 742.868 529.953 734.185C528.809 731.394 527.294 728.755 525.273 724.685C529.236 724.082 532.641 723.219 536.069 723.113C543.857 722.873 551.657 723.004 559.452 722.988C560.618 722.985 561.881 722.711 562.93 723.064C565.272 723.852 567.151 724.816 567.092 728.136C566.863 740.957 567.147 753.788 566.863 766.607C566.812 768.922 565.566 771.814 563.887 773.393C552.03 784.547 538.441 791.248 521.614 792.285C507.247 793.17 494.648 789.333 482.906 782.244C470.007 774.457 461.658 762.727 456.954 748.342C451.637 732.083 453.089 716.322 460.442 701.147C465.823 690.045 474.444 681.885 485.288 675.931C496.575 669.734 508.643 666.339 521.388 667.152C536.289 668.103 550.192 672.673 561.366 683.152C562.541 684.253 562.484 688.178 561.447 689.801C559.522 692.81 556.638 695.331 553.756 697.535C552.753 698.301 549.936 698.203 549.03 697.35C540.794 689.596 530.643 686.328 519.862 686.186C505.89 686.002 493.069 690.123 482.699 700.797Z" fill="#0F1035"/>
<path d="M598 723C598 707.005 598.105 691.509 597.935 676.016C597.885 671.474 599.611 669.913 604.089 669.937C628.746 670.07 653.406 670.094 678.063 669.915C682.519 669.883 683.934 671.988 683.993 675.759C684.187 688.307 684.143 690.292 670.338 690.067C655.847 689.83 641.349 689.995 626.854 690.03C623.957 690.037 619.43 689.194 618.519 690.599C616.874 693.139 617.157 697.071 617.051 700.435C616.868 706.28 616.918 712.137 617.065 717.984C617.099 719.348 617.916 720.693 618.366 722.026C632.58 717.069 647.074 717.995 661.473 718.074C663.726 718.086 665.209 719.233 665.094 722.136C664.947 725.862 665.806 729.63 665.632 733.352C665.491 736.372 663.625 738.123 660.189 738.058C652.361 737.91 644.519 737.774 636.701 738.089C632.214 738.269 627.778 739.483 623.29 739.976C618.208 740.534 617.286 744.31 617.086 748.164C616.768 754.293 617.183 760.458 616.931 766.593C616.779 770.27 618.324 771.07 621.65 771.052C642.143 770.944 662.636 770.998 683.13 771.002C690.263 771.003 690.919 771.771 690.034 778.64C689.844 780.115 690.002 781.635 690 783.134C689.99 788.788 689.065 789.936 683.146 789.964C661.653 790.067 640.16 790.046 618.667 789.988C613.418 789.974 608.152 789.846 602.927 789.391C598.924 789.043 597.879 786.405 597.916 782.48C598.1 762.822 598 743.16 598 723Z" fill="#0F1035"/>
<path d="M1293 754C1293 764.495 1292.91 774.49 1293.04 784.482C1293.1 788.536 1291.43 790.266 1287.41 790.025C1285.09 789.886 1282.75 790.033 1280.42 789.993C1275.55 789.909 1273.86 787.349 1274.67 782.504C1275.06 780.222 1274.03 777.74 1274.02 775.348C1273.97 749.044 1273.9 722.738 1274.05 696.435C1274.09 689.999 1274.45 690 1267.72 690C1258.06 689.999 1248.4 690.024 1238.74 689.99C1233.44 689.971 1232.08 688.611 1232.01 683.428C1231.97 681.429 1232 679.43 1232 677.431C1232 670.781 1233.73 668.997 1240.33 668.993C1263.82 668.978 1287.31 668.987 1310.79 668.987C1316.46 668.987 1322.12 668.966 1327.78 668.998C1334.18 669.033 1334.99 669.839 1335 675.985C1335 679.15 1335.53 682.444 1334.8 685.431C1334.37 687.204 1332 689.742 1330.42 689.798C1319.61 690.183 1308.76 690.358 1297.96 689.829C1293.69 689.62 1292.95 690.988 1292.97 694.535C1293.04 708.027 1293 721.519 1293 735.011C1293 741.174 1293 747.337 1293 754Z" fill="#0F1035"/>
<path d="M1027.71 717.784C1037.39 706.034 1045.72 693.834 1052.14 680.394C1052.42 679.818 1052.82 679.277 1052.97 678.671C1055.18 669.892 1058.07 668.875 1067.29 669.635C1068.47 669.732 1069.72 668.979 1070.89 669.077C1072.8 669.236 1075.34 669.188 1076.34 670.336C1077.19 671.31 1076.71 674.074 1075.99 675.668C1067.72 693.925 1056.52 710.379 1044.3 726.164C1041.99 729.139 1039.09 731.666 1036.94 734.738C1035.56 736.724 1034.37 739.298 1034.27 741.657C1033.92 750.109 1033.95 758.583 1034.07 767.045C1034.15 772.597 1034.81 778.14 1034.86 783.691C1034.88 785.269 1034.06 787.216 1032.96 788.338C1031.96 789.356 1030.05 789.914 1028.54 789.932C1013.15 790.123 1014.92 790.478 1014.99 777.355C1015.04 766.864 1014.64 756.355 1015.15 745.889C1015.42 740.184 1013.84 735.619 1010.12 731.686C998.708 719.606 989.595 705.86 981.242 691.612C977.568 685.343 974.745 678.575 970.757 670.445C974.649 670.11 977.412 669.798 980.185 669.655C982.778 669.521 985.44 669.217 987.96 669.644C989.943 669.98 992.916 670.862 993.469 672.276C1000.1 689.206 1010.13 703.98 1021.48 717.986C1023.53 720.513 1025.43 720.748 1027.71 717.784Z" fill="#0F1035"/>
<path d="M1064.81 389.983C1057.43 390.673 1053.58 395.567 1051.13 401.144C1043.77 417.952 1029.57 424.148 1013.4 421.77C1002.03 420.099 991.06 407.355 988.888 396.713C985.785 381.515 991.288 370.12 1003.68 362.069C1012.26 356.495 1021.96 354.188 1031.75 359.402C1042.57 365.171 1052.8 363.476 1063.05 358.044C1064.97 357.027 1067.26 356.643 1069.41 356.129C1077.88 354.108 1080.45 346.558 1084.26 340.242C1087.59 334.702 1091.65 329.795 1097.59 327.23C1108.62 322.464 1119.75 322.861 1129.87 329.519C1139.11 335.591 1144.82 344.578 1144.84 355.742C1144.88 371.521 1136.29 381.555 1121.47 388.087C1112.98 391.833 1105.24 388.959 1097.71 386.071C1090.07 383.137 1082.93 382.812 1075.49 386.053C1072.13 387.515 1068.64 388.673 1064.81 389.983ZM1089.38 346.093C1086.95 351.942 1084.33 358.056 1078.41 360.845C1070.08 364.765 1061.41 368.151 1052.6 370.809C1047.15 372.453 1041.47 372.118 1035.79 369.209C1029.33 365.899 1021.94 362.971 1014.65 365.284C996.797 370.946 989.751 390.908 1002.31 406.038C1012.8 418.683 1036.09 416.339 1043.16 400.244C1045.87 394.059 1049.29 387.738 1055.96 384.61C1059.27 383.06 1062.85 382.092 1066.35 380.975C1072.72 378.942 1079 376.204 1085.53 375.297C1089.66 374.723 1094.53 376.194 1098.46 378.043C1107.57 382.334 1116.62 381.32 1125.14 377.709C1131.16 375.161 1134.38 369.298 1135.81 362.607C1137.91 352.738 1134.11 340.269 1124.74 335.829C1114.79 331.115 1105.63 331.613 1096.87 337.804C1094.11 339.756 1092.23 342.955 1089.38 346.093Z" fill="#0F1035"/>
<path d="M972.987 482.932C968.11 477.156 967.087 470.752 966.822 463.649C966.449 453.654 970.337 445.767 977.233 439.411C994.066 423.894 1020.44 430.155 1029.13 451.132C1031.94 457.897 1032.59 464.392 1031.13 471.513C1030.09 476.58 1031.8 481.364 1035.12 485.497C1039.77 491.28 1044.28 497.176 1048.91 502.974C1052.18 507.062 1057.17 507.343 1061.68 507.896C1080.69 510.228 1089.03 522.386 1091.76 538.854C1092.99 546.256 1088.99 553.153 1085 559.49C1075.65 574.309 1056.35 576.658 1042.87 568.904C1033.9 563.75 1027.88 556.039 1027.06 545.267C1026.72 540.804 1026.54 536.235 1027.11 531.819C1027.99 524.911 1024.17 520.137 1020.62 515.147C1019.21 513.162 1017.24 511.532 1016.02 509.451C1010.99 500.851 1003.56 496.891 993.676 495.723C985.293 494.732 978.314 490.094 972.987 482.932ZM1066.72 517.961C1063.85 516.974 1060.99 515.237 1058.08 515.158C1052.01 514.991 1047.35 512.404 1043.66 508.061C1038.52 502.005 1034.12 495.274 1028.68 489.518C1024.49 485.092 1023.61 480.338 1023.95 474.736C1024.2 470.587 1024.15 466.405 1023.97 462.249C1023.48 451.012 1016.9 444.066 1007.1 440.136C999.332 437.019 991.697 438.814 985.007 443.56C977.422 448.942 974.389 456.368 974.862 465.837C975.434 477.3 985.081 487.435 996.405 488.114C1003.52 488.541 1010.61 490.261 1015.51 496.111C1019.98 501.449 1023.81 507.324 1028.26 512.68C1034.16 519.778 1036.29 527.895 1034.89 536.762C1033.59 545.056 1035.63 552.03 1041.43 557.885C1047.47 563.979 1054.73 565.135 1063.2 564.242C1070.56 563.468 1078.14 556.488 1081.02 551.095C1085.01 543.62 1084.34 535.946 1080.75 529.009C1078.11 523.916 1074.46 518.63 1066.72 517.961Z" fill="#0F1035"/>
<path d="M925.812 379.471C934.062 397.745 925.138 414.645 910.605 422.841C898.887 429.45 883.515 426.041 875.623 418.004C872.213 414.531 868.787 410.846 866.367 406.678C861.609 398.482 853.578 396.331 845.484 394.032C843.629 393.505 841.474 393.722 839.811 392.889C832.618 389.285 826.197 391.179 819.59 394.697C813.845 397.756 807.616 399.408 800.918 399.036C787.329 398.283 778.027 390.506 773.066 379.559C765.869 363.679 771.553 349.444 783.58 340.172C795.287 331.148 811.375 331.065 823.184 341.916C827.673 346.04 830.615 351.808 834.887 356.221C837.631 359.056 841.249 361.543 844.947 362.849C852.157 365.395 859.604 367.755 867.14 368.698C871.238 369.211 875.736 366.711 880.024 365.469C886.162 363.691 892.517 359.811 898.332 360.517C905.051 361.332 911.623 365.623 917.598 369.439C920.966 371.59 923.004 375.822 925.812 379.471ZM919.005 384.575C918.012 382.793 917.04 380.998 916.022 379.231C909.674 368.215 894.188 365.96 883.917 372.442C876.739 376.973 869.277 380.324 860.435 375.382C856.679 373.284 851.755 373.396 847.57 371.915C842.663 370.177 837.256 368.672 833.398 365.464C829.144 361.925 826.357 356.601 823.009 351.997C815.464 341.619 803.187 339.39 791.548 344.908C784.071 348.453 780.559 354.218 778.633 362.41C776.158 372.937 782.474 383.864 790.397 387.912C798.938 392.275 807.815 392.4 816.633 387.083C822.308 383.661 828.598 380.761 835.727 383.012C840.455 384.504 845.105 386.454 849.946 387.339C861.951 389.534 869.746 396.373 875.658 406.908C882.52 419.137 899.344 421.491 910.526 413.942C919.38 407.963 924.159 391.97 919.005 384.575Z" fill="#0F1035"/>
<path d="M926.196 266.584C920.461 258.352 920.823 249.129 922.349 240.643C923.805 232.545 928.846 225.306 936.563 221.234C948.401 214.987 960.873 214.172 971.942 222.167C986.835 232.923 993.04 252.613 979.291 269.031C973.448 276.009 969.63 283.041 970.88 292.484C971.551 297.56 971.165 302.804 970.95 307.959C970.758 312.572 972.534 316.125 975.724 319.254C981.199 324.624 985.945 330.477 988.499 337.909C992.398 349.251 988.718 358.937 981.75 367.59C976.61 373.973 969.932 377.291 961.29 378.491C955.95 379.233 950.998 379.422 946.488 377.621C936.287 373.548 924.672 362.678 924.673 347.676C924.673 337.612 928.089 329.752 934.557 323.205C941.607 316.069 941.361 307.683 940.942 298.965C940.762 295.209 940.452 291.449 939.964 287.722C939.475 283.988 939.13 280.469 935.546 277.626C931.932 274.761 929.39 270.543 926.196 266.584ZM933.974 234.543C929.193 239.01 929.686 245.145 929.477 250.733C929.185 258.535 933.58 264.354 939 269.708C942.139 272.809 945.919 276.679 946.531 280.647C948.174 291.298 948.745 302.19 948.706 312.983C948.693 316.559 946.3 320.89 943.659 323.55C935.683 331.583 931.679 340.513 932.822 352.075C933.446 358.39 942.523 368.777 946.918 369.894C955.935 372.186 964.505 371.1 972.452 365.899C978.972 361.631 983.003 350.42 981.413 342.726C979.95 335.647 976.371 330.265 971.134 325.557C965.429 320.428 962.308 314.155 962.921 306.14C963.338 300.676 963.718 295.037 962.843 289.685C961.278 280.109 965.948 273.515 971.563 266.829C978.258 258.857 981.512 250.219 976.462 239.734C972.943 232.427 967.926 226.6 960.201 225.258C950.54 223.58 941.073 225.24 933.974 234.543Z" fill="#0F1035"/>
<path d="M859.222 577.999C849.88 576.306 844.639 569.92 840.047 562.96C834.763 554.951 833.041 545.772 836.292 536.947C839.736 527.596 846.011 519.746 855.934 516.09C860.696 514.336 866.647 514.481 870.385 511.597C875.724 507.475 879.418 501.267 884.011 496.124C890.333 489.046 892.034 481.348 890.244 471.811C888.12 460.495 891.6 450.105 900.417 442.126C919.387 424.958 944.004 434.397 952.198 453.23C958.056 466.694 954.633 477.946 946.077 488.207C940.904 494.409 933.165 497.834 925.387 498.558C918.141 499.231 914.852 503.749 911.292 508.438C907.997 512.778 905.531 517.744 902.282 522.124C898.518 527.196 898.301 532.409 899.636 538.359C902.419 550.767 897.219 564.134 886.989 572.158C878.535 578.789 869.65 580.187 859.222 577.999ZM897.425 515.059C900.29 510.968 902.853 506.618 906.09 502.845C911.18 496.915 916.31 491.243 925.319 490.826C933.952 490.427 945.986 479.536 946.888 471.709C948.439 458.253 944.195 444.679 926.662 441.784C918.401 440.42 911.892 442.398 905.791 447.653C897.051 455.181 897.11 464.925 898.543 475.057C899.38 480.973 899.511 486.607 895.738 491.862C891.806 497.339 888.489 503.256 884.626 508.787C880.582 514.579 876.007 520.129 868.377 520.931C856.026 522.23 846.775 529.79 843.713 541.697C840.802 553.013 847.249 565.833 858.21 569.655C868.28 573.167 877.914 571.006 885.238 563.763C891.713 557.361 894.646 548.869 891.79 539.372C891.375 537.991 891.247 536.523 891.002 535.093C889.72 527.606 893.245 521.612 897.425 515.059Z" fill="#0F1035"/>
<path d="M1048.87 281.37C1041.45 273.753 1033.73 271.18 1023.16 274.564C1016.97 276.544 1010.34 272.071 1005.29 267.682C991.867 256.01 991.622 240.235 1002.69 228.268C1011.94 218.271 1027.29 213.95 1040.4 225.663C1046.71 231.301 1049.3 238.065 1051.27 245.872C1052.14 249.314 1055.76 252.216 1058.52 254.974C1060.55 257.003 1063.52 258.088 1065.52 260.136C1071.03 265.778 1078 265.788 1084.76 264.846C1096.66 263.189 1108.51 268.552 1114.01 279.122C1118.62 287.992 1118.65 297.204 1113.6 305.594C1107.9 315.05 1098.9 320.271 1087.66 319.899C1074.79 319.473 1062.73 307.004 1061.95 295.113C1061.55 288.984 1056.11 283.549 1048.87 281.37ZM1057.01 263.518C1050.2 259.379 1044.09 254.534 1043.05 245.959C1041.13 230.255 1024.86 222.114 1011.78 231.018C1005.43 235.342 1000.81 245.478 1003.27 251.524C1006.85 260.309 1012.98 266.997 1023.95 266.094C1029.51 265.636 1035.79 264.694 1040.63 266.684C1047.91 269.682 1054.34 274.887 1060.9 279.48C1065.88 282.966 1069.45 288.25 1069.77 294.026C1070.5 306.945 1088.08 317.26 1099.47 309.281C1106.24 304.535 1110.9 295.634 1108.92 287.82C1106.86 279.711 1098.44 272.971 1090.28 273.015C1085.11 273.042 1079.56 274.465 1074.86 273.031C1068.76 271.169 1063.33 267.09 1057.01 263.518Z" fill="#0F1035"/>
<path d="M990.414 604.798C987.723 602.913 985.197 601.411 983.059 599.479C978.614 595.461 973.685 593.179 967.571 593.992C962.59 594.654 957.479 594.781 952.655 596.031C949.414 596.871 945.867 598.623 943.68 601.064C935.893 609.755 925.952 611.402 915.44 609.808C907.928 608.669 897.419 597.76 895.831 588.71C894.042 578.513 897.245 570.212 903.655 563.002C909.06 556.922 921.964 551.797 931.179 556.763C936.226 559.484 940.762 563.139 945.704 566.078C947.958 567.418 950.614 568.768 953.127 568.848C958.348 569.013 963.603 567.985 968.83 568.098C974.102 568.213 978.237 566.806 981.837 562.77C987.394 556.538 994.791 552.651 1002.91 552.355C1007.8 552.177 1013.31 554.493 1017.65 557.146C1025.97 562.223 1030.88 569.956 1030.98 580.084C1031.09 590.38 1026.33 598.256 1017.85 603.545C1009.28 608.888 1000.06 609.732 990.414 604.798ZM960.429 587C962.039 586.78 963.656 586.603 965.258 586.333C971.573 585.272 977.619 585.755 983.031 589.55C985.679 591.407 988.196 593.45 990.814 595.351C1003.67 604.685 1018.28 599.958 1022.57 584.873C1025.12 575.924 1019.09 564.213 1009.43 561.935C1000.56 559.842 993.309 561.865 986.878 568.421C984.168 571.184 980.58 574.09 976.983 574.772C969.174 576.252 961.112 576.595 953.134 576.907C948.2 577.1 943.965 575.1 940.006 571.75C935.914 568.288 931.242 564.37 926.27 563.349C918.233 561.699 910.953 565.04 906.256 572.287C902.282 578.417 902.81 584.956 904.88 591.648C908.224 602.462 928.413 606.671 936.615 596.769C942.679 589.448 950.44 586.908 960.429 587Z" fill="#0F1035"/>
<path d="M1085.12 489.62C1088.81 482.763 1092.86 476.462 1099.58 473.125C1106.77 469.555 1108.85 463.524 1110.08 456.464C1110.65 453.194 1112.23 450.111 1112.95 446.854C1114.23 441.055 1111.43 436.147 1109 431.215C1103.65 420.314 1108.63 405.34 1118.18 398.83C1123.49 395.205 1129.09 393.336 1135.2 393.086C1144.36 392.712 1156.15 401.041 1159.83 409.368C1166.26 423.904 1158.25 440.291 1146.64 445.9C1140.87 448.689 1137.45 453.373 1136.84 460.22C1136.51 463.929 1133.92 467.432 1133.57 471.143C1133.22 474.819 1133.45 479.138 1135.1 482.305C1140.86 493.354 1141.78 503.854 1134.21 514.411C1129.93 520.387 1123.85 523.697 1117.01 524.861C1105.59 526.803 1095.7 522.971 1089.19 513.375C1085.21 507.517 1082.09 500.694 1084.93 492.999C1085.25 492.116 1085 491.018 1085.12 489.62ZM1136.31 401.042C1134.91 401.361 1133.53 401.874 1132.12 401.971C1116.29 403.063 1111.58 419.625 1116.96 430.446C1118.92 434.388 1120.71 438.917 1120.74 443.194C1120.79 448.711 1119.6 454.451 1117.82 459.713C1115.91 465.358 1115.35 471.909 1109.67 475.779C1105.93 478.323 1102.23 480.948 1098.71 483.778C1088.56 491.927 1090.72 507.085 1100.12 514.061C1105.23 517.856 1110.4 518.105 1116.55 517.188C1127.2 515.599 1135.29 501.768 1130.59 492.036C1127.01 484.627 1123.06 477.237 1126 468.536C1126.98 465.663 1128.71 462.837 1128.85 459.927C1129.42 448.42 1136.19 441.788 1145.72 437.018C1154.77 432.487 1157.21 415.995 1149.69 408.965C1145.9 405.42 1142.18 402.378 1136.31 401.042Z" fill="#0F1035"/>
<path d="M903.7 228.204C912.79 235.525 915.584 245.026 913.855 255.697C912.772 262.386 908.807 267.734 902.962 271.616C896.976 275.592 890.781 278.212 883.382 277.037C877.12 276.043 871.534 277.648 866.647 281.807C864.695 283.469 862.565 285.004 860.309 286.212C853.814 289.688 851.292 295.723 850.077 302.344C847.577 315.972 839.692 323.755 826.559 326.08C809.662 329.072 794.608 313.649 795.224 298.538C795.93 281.215 811.876 268.898 829.148 270.922C832.682 271.336 836.931 270.89 839.957 269.221C844.864 266.513 848.951 262.354 853.539 259.02C857.325 256.269 858.411 252.345 858.995 248.098C860.479 237.288 865.533 229.039 875.87 224.611C885.691 220.404 894.999 220.637 903.7 228.204ZM872.478 236.014C870.641 240.042 867.92 243.91 867.154 248.132C865.619 256.593 861.511 262.619 854.794 268.013C845.567 275.423 836.473 280.579 823.853 279.245C810.887 277.875 798.271 294.029 804.79 306.102C812.479 320.342 825.919 322.282 837.121 313.046C839.738 310.888 841.023 306.532 841.879 302.939C843.808 294.844 845.96 287.113 853.385 282.085C857.663 279.187 861.594 275.743 866.006 273.083C870.992 270.077 876.044 266.839 882.53 268.903C884.648 269.576 887.237 269.577 889.426 269.079C900.467 266.568 907.486 260.496 906.058 246.375C905.589 241.733 898.841 231.561 894.356 231.286C887.029 230.838 879.104 229.007 872.478 236.014Z" fill="#0F1035"/>
<path d="M814.927 531.999C803.867 533.734 793.903 528.656 787.83 519.511C781.673 510.24 782.631 500.98 786.845 491.707C789.426 486.026 788.869 480.988 786.327 475.629C785.037 472.909 784.383 469.881 783.511 466.972C781.804 461.277 778.035 457.693 772.809 454.885C764.572 450.458 759.011 443.868 756.579 434.337C754.15 424.817 760.094 413.631 765.672 409.116C774.563 401.919 784.32 399.525 795.309 404.923C804.027 409.205 808.412 416.45 811.006 425.279C812.977 431.984 809.959 437.864 807.582 443.648C805.634 448.389 805.31 452.618 807.578 457.208C808.844 459.77 810.11 462.479 810.585 465.257C811.942 473.196 816.878 477.702 823.796 481.039C842.887 490.248 842.957 518.93 824.515 528.057C821.539 529.529 818.41 530.692 814.927 531.999ZM804.001 471.258C802.539 466.899 801.332 462.431 799.551 458.206C797.173 452.565 797.338 447.244 799.996 441.774C806.178 429.048 804.474 422.459 795.876 414.476C787.161 406.385 772.248 409.245 766.98 418.949C760.907 430.134 763.6 441.468 776.58 448.332C780.432 450.37 784.57 453.14 786.79 456.691C790.035 461.885 791.531 468.146 794.023 473.842C796.996 480.638 797.389 487.243 794.032 494.07C788.654 505.007 792.253 516.569 799.831 521.511C809.257 527.658 823.381 523.608 827.619 516.137C832.752 507.09 830.53 494.482 821.252 488.836C814.135 484.506 807.315 480.177 804.001 471.258Z" fill="#0F1035"/>
<path d="M895 841.829C893.956 847.906 891.934 849.781 886.301 849.975C882.479 850.106 878.649 849.965 874.824 850.01C871.556 850.049 869.971 848.534 869.989 845.232C870.027 838.412 869.791 831.581 870.152 824.779C870.239 823.14 872.256 820.215 873.313 820.247C878.941 820.421 884.696 820.776 890.11 822.198C894.265 823.289 894.71 827.148 894.159 831.35C893.732 834.608 894.669 838.046 895 841.829ZM885.758 843.992C886.821 843.203 887.885 842.413 889.056 841.543C884.819 838.665 880.188 837.996 877.446 840.045C876.523 840.734 876.274 842.326 875.484 844C879.312 844 882.107 844 885.758 843.992ZM886.549 830.909C887.671 828.392 886.655 827.132 884.1 827.026C881.491 826.918 878.874 827.002 875.116 827.002C876.234 829.134 876.857 831.651 877.733 831.742C880.349 832.013 883.064 831.334 886.549 830.909Z" fill="#0F1035"/>
<path d="M903.904 849.981C902.326 848.303 900.275 846.671 900.16 844.913C899.752 838.619 900.032 832.283 899.989 825.963C899.962 821.986 901.788 819.812 905.833 820.03C910.716 820.293 915.777 820.075 920.418 821.332C926.731 823.041 928.196 831.494 923.467 836.026C920.217 839.141 920.373 841.448 924.316 843.979C926.212 845.196 928.353 846.617 926.461 848.602C925.452 849.66 922.075 849.682 920.609 848.789C918.468 847.486 916.298 845.187 915.56 842.862C914.449 839.362 912.116 838.328 909.492 839.256C908.192 839.717 907.843 842.766 906.988 844.608C906.148 846.419 905.212 848.184 903.904 849.981ZM918.502 828.017C915.647 827.694 912.792 827.184 909.939 827.194C909.299 827.196 908.666 829.021 908.029 830.007C908.979 830.357 909.913 830.946 910.881 831.007C913.016 831.143 915.191 831.179 917.299 830.89C917.937 830.803 918.411 829.514 918.502 828.017Z" fill="#0F1035"/>
<path d="M1152.3 850.985C1148.69 849.251 1145.11 847.996 1142.4 845.709C1137.17 841.29 1136.88 835.32 1139.05 829.246C1141.07 823.601 1148.26 818.913 1154.17 819.001C1159.71 819.084 1167.53 824.096 1168.84 828.612C1171.47 837.675 1169.18 844.072 1163.16 848.013C1160.27 849.907 1156.24 850.058 1152.3 850.985ZM1151.82 827C1147.04 827.835 1142.48 833.017 1144.22 836.622C1145.61 839.529 1148.43 842.681 1151.33 843.685C1154.42 844.756 1158.34 844.792 1161.22 840.778C1164 836.888 1164.55 833.714 1161.99 829.829C1159.65 826.286 1156.05 827.085 1151.82 827Z" fill="#0F1035"/>
<path d="M1278 842.941C1278 843.898 1278.03 844.399 1277.99 844.896C1277.83 847.041 1278.88 849.9 1275.11 849.994C1271.37 850.087 1272.02 847.347 1272.01 845.102C1271.98 840.277 1272.12 835.448 1271.95 830.629C1271.87 828.574 1271.1 826.552 1270.84 824.491C1270.69 823.207 1270.89 821.878 1270.94 820.569C1272.56 820.801 1274.79 820.438 1275.69 821.367C1279.68 825.452 1283.27 829.922 1287.04 834.228C1288.27 835.635 1289.59 836.965 1292 837.856C1292 833.634 1291.72 829.385 1292.13 825.203C1292.31 823.41 1293.91 821.757 1294.86 820.04C1296.24 821.743 1298.69 823.372 1298.81 825.162C1299.28 831.951 1299.19 838.801 1298.85 845.607C1298.78 847.112 1297.12 849.325 1295.74 849.751C1294.47 850.144 1292.18 848.969 1291.06 847.797C1287 843.576 1283.25 839.064 1279.38 834.662C1278.92 834.776 1278.46 834.889 1278 835.003C1278 837.496 1278 839.989 1278 842.941Z" fill="#0F1035"/>
<path d="M1061.95 849.967C1059.68 848.996 1057.47 848.363 1056.08 846.929C1052.28 843.013 1048.83 838.758 1045.25 834.638C1044.83 834.796 1044.41 834.955 1044 835.113C1044 838.494 1043.86 841.884 1044.05 845.254C1044.18 847.653 1043.63 850.072 1041.16 849.709C1039.6 849.479 1037.52 847.034 1037.19 845.297C1036.56 841.921 1037.1 838.34 1036.96 834.852C1036.8 830.788 1036.36 826.735 1036.22 822.67C1036.19 821.872 1037.01 820.342 1037.39 820.356C1038.89 820.406 1040.87 820.46 1041.76 821.387C1045.37 825.151 1048.61 829.261 1052.04 833.198C1053.59 834.975 1055.26 836.643 1058 837.833C1058 833.601 1057.66 829.329 1058.16 825.155C1058.37 823.337 1060.29 821.721 1061.44 820.013C1062.29 821.685 1063.81 823.33 1063.88 825.036C1064.17 831.678 1064.11 838.342 1063.93 844.992C1063.88 846.654 1062.91 848.291 1061.95 849.967Z" fill="#0F1035"/>
<path d="M834.103 820.001C838.36 820.658 842.272 820.928 845.919 822.055C852.559 824.107 856.225 830.786 854.993 837.649C853.798 844.302 847.563 849.918 841.274 849.997C839.942 850.014 838.609 850 837.276 850C829.865 850 829.134 849.446 829.049 842.035C829.005 838.144 829.684 834.249 829.863 830.347C829.911 829.301 829.482 828.145 828.997 827.177C825.676 820.536 826 820.007 834.103 820.001ZM841.136 827.001C837.343 826.427 835.598 827.746 835.931 831.875C836.249 835.807 836 839.786 836 843.704C844.667 844.369 848.248 841.202 848.048 833.797C847.935 829.627 844.792 828.56 841.136 827.001Z" fill="#0F1035"/>
<path d="M1225.94 844.953C1230.13 843.543 1233.52 842.141 1228.53 837.841C1227.71 837.13 1228.06 835.053 1227.83 833.34C1228.98 833.211 1229.99 832.827 1230.83 833.053C1233.31 833.715 1237.26 830.873 1237.99 835.868C1239.22 844.198 1237.94 847.224 1232.5 849.061C1222.45 852.454 1215.37 849.776 1210.88 841.747C1205.88 832.804 1211.28 825.743 1216.89 822.078C1223.51 817.749 1229.12 817.863 1234.3 822.126C1235.31 822.961 1235.41 824.911 1235.93 826.346C1234.56 826.687 1232.99 827.641 1231.87 827.262C1227.34 825.723 1222.88 825.764 1218.87 828.129C1215.23 830.275 1215.19 834.597 1216.27 837.806C1217.1 840.27 1220.16 842.055 1222.4 843.936C1223.18 844.591 1224.48 844.629 1225.94 844.953Z" fill="#0F1035"/>
<path d="M1101 840.861C1101 835.557 1101.18 830.728 1100.95 825.917C1100.73 821.334 1102.73 819.674 1107.15 819.954C1110.79 820.184 1114.48 820.224 1118.12 819.944C1122.58 819.6 1123.78 821.541 1122.56 826.29C1117.97 826.625 1113.14 826.977 1108.21 827.337C1107.07 833.545 1111.74 831.49 1114.72 832.078C1116.22 832.374 1117.57 833.472 1118.98 834.208C1117.81 835.748 1116.81 837.502 1115.38 838.734C1114.68 839.33 1113.13 839.082 1111.99 838.981C1108.48 838.673 1107.56 840.447 1108.23 844.001C1112.06 844.001 1116.05 843.699 1119.95 844.139C1121.71 844.336 1124.61 845.915 1124.7 847.044C1124.92 849.91 1122.37 850.166 1119.88 850.043C1116.4 849.871 1112.9 850 1109.41 850C1101 850 1101 850 1101 840.861Z" fill="#0F1035"/>
<path d="M611.222 821.411C613.407 821.337 616.182 820.884 617.246 822.026C621.202 826.274 624.532 831.098 628.25 835.58C629.077 836.577 630.525 837.059 631.688 837.778C631.806 836.542 632.014 835.307 632.026 834.07C632.069 829.873 632.042 825.676 632.042 821.716C637.689 819.965 639.059 822.125 639.016 826.198C638.952 832.184 639.179 838.18 638.894 844.154C638.804 846.04 637.47 847.866 636.705 849.72C634.614 848.788 632.008 848.354 630.534 846.827C626.714 842.872 623.392 838.435 618.858 832.968C618.458 835.975 618.119 837.694 618.027 839.426C617.911 841.582 618.294 843.805 617.898 845.892C617.621 847.351 616.398 848.63 615.597 849.989C614.732 848.693 613.215 847.442 613.12 846.091C612.804 841.623 613.253 837.1 612.922 832.634C612.651 828.985 611.685 825.386 611.222 821.411Z" fill="#0F1035"/>
<path d="M737.197 820.958C742.278 818.301 749.023 818.881 752.796 822.476C753.585 823.228 754.137 824.993 753.794 825.92C753.528 826.642 751.679 827.172 750.573 827.108C748.166 826.969 745.793 826.317 743.389 826.018C739.969 825.594 738.325 826.928 739.304 830.923C741.73 831.272 744.273 832.015 746.783 831.918C751.334 831.742 754.716 833.52 755.77 837.778C756.867 842.21 755.649 846.379 751.4 849.072C744.419 853.497 733.041 850.016 730.589 841.234C733.609 841.811 736.209 841.709 738.148 842.791C743.729 845.903 745.522 845.873 750.157 841.123C748.068 838.243 746.017 836.682 741.743 837.436C737.803 838.13 734.608 835.553 732.06 831.848C729.673 828.377 732.634 826.74 733.361 824.442C733.795 823.072 735.612 822.14 737.197 820.958Z" fill="#0F1035"/>
<path d="M1264.68 844.905C1265.67 845.849 1266.88 847.293 1266.75 847.434C1265.78 848.436 1264.56 849.831 1263.37 849.882C1257.55 850.13 1251.71 850.207 1245.92 849.807C1244.86 849.734 1243.19 847.2 1243.13 845.748C1242.84 838.607 1242.76 831.432 1243.2 824.306C1243.29 822.793 1245.73 820.402 1247.32 820.198C1251.74 819.631 1256.29 819.781 1260.75 820.152C1261.91 820.249 1263.92 822.364 1263.77 823.255C1263.53 824.637 1261.9 826.672 1260.66 826.829C1256.92 827.3 1253.08 826.999 1249.18 826.999C1248.3 833.408 1252.5 831.62 1255.74 831.895C1257.54 832.049 1259.24 833.462 1260.98 834.308C1259.62 835.866 1258.42 837.636 1256.82 838.888C1256.09 839.455 1254.55 839.092 1253.4 838.982C1249.91 838.649 1248.35 840.008 1249.18 843.566C1254.21 843.978 1259.24 844.39 1264.68 844.905Z" fill="#0F1035"/>
<path d="M556.001 844.907C556.306 840.58 557.587 840.105 561.023 842.323C564.278 844.425 567.959 846.397 572.177 843.463C574.889 841.576 575.161 840.05 572.209 838.768C569.91 837.769 567.147 837.861 564.809 836.923C561.802 835.717 557.675 834.656 556.449 832.283C554.699 828.895 555.69 824.706 559.536 821.9C563.908 818.71 573.137 818.741 576.902 822.565C577.778 823.456 577.849 825.14 578.623 827.455C574.942 826.9 572.114 826.303 569.258 826.112C567.707 826.008 566.019 826.372 564.571 826.963C563.843 827.26 563.221 828.501 563.121 829.38C563.067 829.852 564.144 830.792 564.839 830.949C567.032 831.445 569.432 831.295 571.479 832.093C574.144 833.133 577.699 834.273 578.76 836.415C579.978 838.873 579.755 842.856 578.601 845.497C576.654 849.953 569.684 852.27 565.032 850.435C561.845 849.178 559 847.053 556.001 844.907Z" fill="#0F1035"/>
<path d="M691.999 828.818C692.513 825.521 693.025 822.664 693.64 819.234C699.226 823.23 699.558 846.004 693.964 851.064C693.187 847.742 692.149 845.212 692.112 842.667C692.063 839.385 691.344 837.695 687.643 837.929C684.804 838.11 680.895 836.46 679.345 837.801C677.724 839.204 678.53 843.246 677.925 846.059C677.611 847.521 676.54 848.82 675.894 850.035C671.381 849.382 670.778 846.76 670.94 843.239C671.176 838.099 670.927 832.938 671.045 827.79C671.081 826.224 671.305 824.468 672.074 823.175C672.681 822.153 674.345 821.054 675.376 821.194C676.355 821.327 677.644 822.924 677.865 824.058C678.267 826.119 677.979 828.315 677.979 830.672C681.524 831.132 684.869 831.854 688.214 831.852C689.476 831.851 690.737 830.172 691.999 828.818Z" fill="#0F1035"/>
<path d="M817.615 834.162C815.688 839.967 810.535 838.584 806.264 839.217C805.472 843.123 806.036 844.904 810.743 844.171C814.635 843.565 818.757 844.435 822.622 844.643C823.472 848.474 822.672 850.147 819.151 850.037C814.337 849.887 809.514 849.967 804.696 850.01C801.343 850.041 799.962 848.351 799.986 845.113C800.035 838.3 800.028 831.486 799.989 824.674C799.97 821.314 801.655 819.933 804.9 819.985C809.054 820.051 813.236 819.735 817.347 820.156C818.66 820.29 819.787 822.242 820.999 823.363C819.833 824.573 818.86 826.412 817.456 826.841C815.479 827.444 812.998 827.551 811.058 826.9C805.954 825.188 805.46 827.588 806.113 831.005C810.018 832.006 813.676 832.943 817.615 834.162Z" fill="#0F1035"/>
<path d="M727.755 846.415C726.681 847.856 725.459 849.748 724.103 849.85C719.132 850.222 714.077 850.343 709.139 849.792C707.62 849.623 705.287 847.074 705.189 845.498C704.756 838.531 704.723 831.503 705.21 824.543C705.323 822.935 707.85 820.599 709.624 820.202C712.798 819.492 716.281 819.704 719.566 820.102C721.903 820.385 724.127 821.605 726.401 822.407C726.395 823.262 726.388 824.117 726.381 824.972C724.321 825.65 722.304 826.63 720.19 826.927C717.739 827.271 715.175 826.802 712.716 827.123C711.738 827.25 710.911 828.546 710.016 829.311C710.952 830.206 711.754 831.566 712.857 831.886C714.394 832.332 716.272 831.63 717.791 832.104C719.328 832.584 720.605 833.898 721.996 834.846C720.87 835.898 719.884 837.199 718.578 837.929C717.365 838.607 715.724 838.482 714.431 839.063C712.882 839.759 711.502 840.83 710.049 841.738C711.608 842.488 713.102 843.6 714.743 843.896C716.842 844.275 719.102 843.733 721.213 844.075C723.374 844.424 725.439 845.364 727.755 846.415Z" fill="#0F1035"/>
<path d="M1017.42 846.011C1014.47 847.056 1012.02 848.306 1009.42 849.042C1007.91 849.47 1006.17 849.072 1004.54 849.046C1004.68 847.372 1004.41 845.504 1005.06 844.057C1007.56 838.527 1010.48 833.194 1012.98 827.664C1014.25 824.844 1014.94 821.761 1015.92 818.704C1022.14 821.516 1032.36 842.386 1031.62 850.235C1026.71 849.789 1023.39 843.754 1017.42 846.011ZM1018.43 840.998C1019.62 840.535 1020.81 840.071 1022.43 839.439C1021.03 837.025 1019.76 834.811 1018.48 832.597C1018.09 832.753 1017.69 832.91 1017.3 833.067C1017.45 835.711 1011.86 838.326 1018.43 840.998Z" fill="#0F1035"/>
<path d="M1338.88 846.307C1335.94 847.352 1333.48 848.602 1330.88 849.338C1329.38 849.766 1327.64 849.368 1326 849.342C1326.15 847.667 1325.87 845.8 1326.52 844.352C1329.02 838.823 1331.95 833.49 1334.44 827.96C1335.71 825.14 1336.4 822.057 1337.38 819C1343.6 821.812 1353.82 842.682 1353.09 850.531C1348.17 850.085 1344.85 844.049 1338.88 846.307ZM1339.9 841.294C1341.08 840.83 1342.27 840.367 1343.89 839.735C1342.5 837.321 1341.22 835.107 1339.95 832.893C1339.55 833.049 1339.16 833.206 1338.76 833.363C1338.92 836.007 1333.32 838.622 1339.9 841.294Z" fill="#0F1035"/>
<path d="M795.155 845.652C796.044 849.427 793.94 850.02 791.191 850.006C786.199 849.981 781.199 850.161 776.22 849.912C774.469 849.824 771.731 849.115 771.31 847.991C770.794 846.612 771.849 844.227 772.897 842.755C776.514 837.673 780.423 832.798 784.875 826.991C781.248 826.991 778.56 827.42 776.113 826.836C774.56 826.466 773.367 824.589 772.012 823.389C773.57 822.259 775.028 820.373 776.705 820.155C780.468 819.663 784.362 819.753 788.156 820.104C790.059 820.281 793.035 821.176 793.425 822.41C793.966 824.124 793.057 826.856 791.848 828.459C788.125 833.401 783.964 838.013 779.471 843.35C784.913 844.057 789.893 844.703 795.155 845.652Z" fill="#0F1035"/>
<path d="M1078.35 828.161C1074.15 833.087 1073.99 836.683 1077.09 840.627C1080.57 845.054 1085.53 845.278 1090.18 842.526C1091.58 841.697 1095.02 841.6 1095.47 842.367C1096.94 844.898 1096.16 847.753 1093.2 848.902C1080.1 853.982 1069.64 848.305 1068.42 834.965C1068.07 831.052 1071.75 825.61 1075.16 822.79C1080.23 818.599 1086.84 817.199 1093.04 821.596C1094.28 822.475 1094.95 824.152 1095.88 825.46C1094.33 826 1092.71 827.129 1091.23 826.967C1086.94 826.496 1082.65 824.781 1078.35 828.161Z" fill="#0F1035"/>
<path d="M1180.29 848.908C1175.91 851.309 1174.21 849.144 1174.08 845.591C1173.82 838.941 1173.99 832.275 1174 825.615C1174.01 821.838 1175.99 820.015 1179.71 820.004C1183.87 819.992 1188.07 819.685 1192.17 820.156C1193.83 820.345 1195.28 822.26 1196.83 823.39C1195.33 824.591 1193.98 826.445 1192.3 826.841C1189.77 827.436 1186.96 826.737 1184.36 827.131C1183.15 827.314 1182.12 828.77 1181.01 829.649C1182.23 830.429 1183.4 831.318 1184.7 831.919C1185.07 832.093 1186.04 831.05 1186.38 831.231C1188.31 832.246 1190.14 833.464 1192 834.613C1190.56 836.071 1188.92 838.928 1187.71 838.757C1180.6 837.752 1180.52 841.914 1180.98 846.852C1181.04 847.488 1180.8 848.15 1180.29 848.908Z" fill="#0F1035"/>
<path d="M661.097 827.014C659.788 828.626 658.198 830.22 658.16 831.851C658.065 835.873 658.814 839.906 658.963 843.944C659.051 846.339 659.161 848.974 655.421 849.039C651.381 849.108 652.015 846.343 652.005 843.902C651.989 839.745 651.958 835.587 652.014 831.431C652.06 827.974 651.204 825.991 646.997 826.806C645.891 827.02 643.604 825.212 643.163 823.896C642.353 821.477 643.595 819.882 646.565 819.964C651.549 820.101 656.545 820.124 661.528 819.954C664.362 819.856 667.485 819.991 667.524 823.265C667.563 826.528 664.438 827.168 661.097 827.014Z" fill="#0F1035"/>
<path d="M606.382 820.891C608.32 826.619 604.225 830.327 601.489 833.446C598.194 837.2 597.692 840.843 598.051 845.107C598.253 847.512 597.672 849.782 595.317 849.671C594.145 849.616 591.946 846.595 592.193 845.289C593.551 838.089 588.216 833.985 585.268 828.786C584.718 827.814 583.526 826.891 583.554 825.973C583.609 824.217 584.326 822.481 584.769 820.736C586.183 821.74 587.884 822.509 588.944 823.802C590.55 825.762 591.441 828.335 593.139 830.186C594.738 831.928 596.197 831.346 597.53 829.093C599.341 826.032 601.748 823.313 604.028 820.555C604.294 820.233 605.378 820.588 606.382 820.891Z" fill="#0F1035"/>
<path d="M943.987 843.646C943.987 838.041 943.951 832.898 944.012 827.757C944.027 826.483 944.072 825.072 944.612 823.975C945.309 822.562 946.519 821.401 947.508 820.132C948.67 821.696 950.668 823.176 950.836 824.841C951.299 829.439 950.998 834.113 950.999 838.758C951 840.373 951 841.989 951 844.003C954.817 844.003 958.305 843.667 961.675 844.152C963.234 844.376 964.563 846.2 965.996 847.298C964.564 848.199 963.195 849.727 961.69 849.876C957.912 850.25 954.052 849.752 950.262 850.063C945.701 850.438 944.061 848.218 943.987 843.646Z" fill="#0F1035"/>
<path d="M974.999 839.727C974.728 842.965 975.932 844.168 978.753 844.032C981.579 843.896 984.482 843.648 987.221 844.154C988.604 844.409 989.7 846.222 990.926 847.33C989.635 848.22 988.407 849.742 987.042 849.877C983.412 850.237 979.723 850.001 976.057 849.999C970.099 849.995 969.14 849.097 969.02 842.831C968.914 837.335 969.017 831.835 968.995 826.337C968.984 823.416 969.323 820.041 972.826 820.374C974.077 820.494 975.655 824.672 975.814 827.082C976.08 831.105 975.325 835.197 974.999 839.727Z" fill="#0F1035"/>
<path d="M933.053 848.544C932.53 839.856 932.193 831.498 932.167 823.138C932.165 822.431 934.55 820.899 935.283 821.178C936.721 821.725 938.773 823.232 938.828 824.422C939.157 831.537 939.28 838.694 938.825 845.796C938.671 848.203 937.131 851.401 933.053 848.544Z" fill="#0F1035"/>
<path d="M766.99 824.525C766.999 831.591 767.228 838.221 766.847 844.814C766.745 846.587 764.785 848.252 763.678 849.967C762.452 848.287 760.285 846.67 760.169 844.918C759.744 838.495 759.812 832.018 760.137 825.584C760.215 824.023 761.986 822.547 762.979 821.032C764.313 822.047 765.647 823.061 766.99 824.525Z" fill="#0F1035"/>
<path d="M1000 842.832C999.999 844.469 1000.35 845.792 999.911 846.751C999.345 847.986 998.143 848.928 997.215 849.996C996.164 849.028 994.236 848.09 994.202 847.088C993.936 839.135 993.902 831.167 994.163 823.216C994.199 822.115 996.247 821.081 997.364 820.016C998.242 821.324 999.818 822.602 999.878 823.947C1000.15 830.073 999.999 836.218 1000 842.832Z" fill="#0F1035"/>
<path d="M1359.93 849.967C1359 849.135 1358.09 848.335 1358.08 847.523C1357.97 839.376 1357.94 831.224 1358.09 823.078C1358.1 822.053 1359.14 820.373 1359.94 820.218C1360.81 820.047 1362.27 821.073 1362.92 821.975C1363.61 822.941 1363.94 824.366 1363.95 825.598C1364.05 832.083 1364.25 838.586 1363.83 845.046C1363.72 846.762 1361.57 848.347 1359.93 849.967Z" fill="#0F1035"/>
<path d="M1311.17 838.999C1309.39 838.964 1307.74 839.413 1306.83 838.786C1305.31 837.743 1304.25 836.011 1303 834.569C1304.47 833.713 1305.88 832.273 1307.41 832.117C1311.02 831.751 1314.72 831.706 1318.3 832.152C1319.65 832.32 1320.77 834.212 1322 835.318C1320.86 836.541 1319.91 838.448 1318.54 838.829C1316.39 839.427 1313.95 838.995 1311.17 838.999Z" fill="#0F1035"/>
</g>
<defs>
<clipPath id="clip0_91_2">
<rect width="1920" height="1080" fill="white"/>
</clipPath>
</defs>
</svg>
