<svg width="407" height="395" viewBox="0 0 407 395" fill="none" xmlns="http://www.w3.org/2000/svg">
<path fill-rule="evenodd" clip-rule="evenodd" d="M166.348 24.643C164.823 33.1293 164.461 42.353 170.196 50.5844C171.118 51.727 171.986 52.8911 172.84 54.0385L172.846 54.0473C174.95 56.8705 176.977 59.5893 179.546 61.6264C183.009 64.3725 183.448 67.7523 183.915 71.3459L183.915 71.3461L183.964 71.7221C184.451 75.4496 184.762 79.2094 184.942 82.9643C185.36 91.683 185.607 100.069 178.556 107.205C172.088 113.751 168.673 121.612 168.672 131.675C168.671 146.678 180.287 157.548 190.487 161.621C194.997 163.421 199.949 163.233 205.29 162.492C213.931 161.29 220.609 157.973 225.75 151.589C232.718 142.937 236.397 133.25 232.499 121.91C229.945 114.477 225.198 108.624 219.723 103.254C216.533 100.125 214.757 96.5717 214.95 91.9594C214.978 91.2694 215.01 90.5784 215.042 89.8865L215.043 89.8588L215.045 89.8295C215.251 85.3657 215.459 80.8627 214.88 76.4848C213.63 67.0414 217.447 60.0092 223.291 53.0317C237.04 36.6137 230.835 16.9223 215.942 6.16644C204.873 -1.8277 192.4 -1.01324 180.563 5.23383C172.846 9.30609 167.804 16.5453 166.348 24.643ZM173.531 32.725C173.643 27.7133 173.759 22.4799 177.973 18.5434C185.072 9.24066 194.539 7.58051 204.201 9.25824C211.926 10.6 216.943 16.4272 220.462 23.7348C225.512 34.2192 222.258 42.8569 215.563 50.8295C209.947 57.5161 205.278 64.1098 206.843 73.685C207.717 79.0375 207.338 84.6762 206.92 90.1401C206.307 98.1557 209.429 104.429 215.134 109.557C220.37 114.265 223.949 119.647 225.412 126.727C227.002 134.421 222.971 145.632 216.451 149.899C208.505 155.1 199.934 156.186 190.918 153.894C186.523 152.778 177.445 142.391 176.821 136.075C175.679 124.513 179.682 115.583 187.659 107.55C190.299 104.891 192.693 100.559 192.705 96.9828C192.744 86.1909 192.174 75.2993 190.531 64.6479C189.919 60.6791 186.138 56.809 182.999 53.7084C177.58 48.3539 173.184 42.5356 173.476 34.7338C173.49 34.3696 173.501 34.0024 173.51 33.6332L173.531 32.725ZM308.805 173.984C301.432 174.673 297.575 179.567 295.131 185.144C287.765 201.953 273.571 208.149 257.395 205.771C246.027 204.099 235.06 191.356 232.887 180.713C229.785 165.515 235.287 154.12 247.678 146.07C256.259 140.496 265.959 138.189 275.745 143.403C286.573 149.171 296.796 147.477 307.053 142.044C307.739 141.681 308.471 141.399 309.227 141.162C310.203 140.856 311.218 140.627 312.226 140.401L312.852 140.258L313.409 140.129C320.388 138.464 323.364 133.044 326.324 127.654C326.956 126.503 327.588 125.354 328.257 124.243C331.593 118.703 335.646 113.796 341.586 111.231C352.622 106.465 363.746 106.862 373.875 113.52C383.111 119.591 388.815 128.579 388.841 139.743C388.878 155.521 380.29 165.556 365.474 172.087C356.975 175.833 349.237 172.959 341.713 170.072C334.069 167.138 326.934 166.812 319.488 170.054L319.019 170.256L318.536 170.459L318.041 170.664C317.076 171.056 316.098 171.43 315.102 171.794C314.516 172.009 313.923 172.221 313.323 172.432L312.337 172.777L311.758 172.976L309.853 173.626L308.805 173.984ZM333.383 130.093C330.952 135.942 328.331 142.057 322.406 144.845C314.075 148.766 305.409 152.152 296.598 154.81C291.15 156.454 285.47 156.119 279.792 153.209C273.333 149.9 265.944 146.972 258.651 149.285C240.797 154.947 233.75 174.909 246.307 190.039C256.801 202.684 280.087 200.339 287.156 184.245C289.873 178.06 293.288 171.739 299.961 168.61C302.556 167.391 305.327 166.536 308.09 165.682L308.099 165.679L308.108 165.676L308.116 165.673L308.125 165.67L308.134 165.667L308.143 165.664C308.881 165.437 309.618 165.209 310.351 164.975C312.101 164.416 313.845 163.804 315.589 163.192L315.605 163.186L315.621 163.18L315.625 163.179C320.214 161.567 324.808 159.953 329.532 159.297C333.664 158.724 338.53 160.195 342.457 162.043C351.573 166.334 360.619 165.321 369.144 161.709C375.161 159.162 378.384 153.298 379.809 146.607C381.912 136.739 378.107 124.27 368.738 119.83C358.793 115.116 349.631 115.614 340.873 121.804C339.083 123.069 337.663 124.858 336.111 126.814L336.102 126.826C335.261 127.885 334.382 128.993 333.383 130.093ZM210.822 247.65C211.087 254.752 212.11 261.157 216.987 266.932C222.314 274.094 229.293 278.733 237.676 279.724C247.555 280.892 254.986 284.851 260.024 293.452C260.717 294.635 261.652 295.673 262.589 296.714C263.298 297.502 264.009 298.292 264.617 299.147L265.307 300.112L265.308 300.113C268.642 304.764 271.935 309.359 271.106 315.82C270.54 320.236 270.715 324.804 271.055 329.267C271.876 340.039 277.9 347.749 286.866 352.905C300.354 360.659 319.654 358.31 328.997 343.49C332.992 337.153 336.991 330.256 335.764 322.854C333.035 306.386 324.685 294.228 305.676 291.896L305.219 291.841L304.646 291.774L304.645 291.774C300.422 291.279 295.929 290.752 292.91 286.974C290.745 284.264 288.607 281.533 286.468 278.801L284.562 276.368C282.759 274.068 280.951 271.774 279.12 269.497C275.799 265.365 274.093 260.581 275.131 255.513C276.589 248.392 275.937 241.897 273.134 235.132C264.439 214.156 238.065 207.895 221.232 223.412C214.337 229.767 210.448 237.654 210.822 247.65ZM308.034 300.892L308.042 300.895L308.049 300.898L308.056 300.901L308.064 300.904L308.071 300.907L308.115 300.924L308.157 300.942C308.498 301.088 308.838 301.233 309.179 301.373C309.527 301.516 309.875 301.654 310.222 301.783C310.389 301.845 310.556 301.905 310.724 301.961C318.457 302.63 322.106 307.917 324.746 313.01C328.343 319.947 329.007 327.62 325.016 335.096C322.137 340.489 314.557 347.468 307.2 348.243C298.726 349.135 291.473 347.979 285.433 341.885C279.632 336.031 277.585 329.056 278.892 320.762C280.29 311.895 278.158 303.778 272.258 296.68C271.559 295.839 270.875 294.985 270.202 294.122C269.97 293.826 269.739 293.528 269.51 293.229C268.703 292.178 267.909 291.117 267.12 290.052L265.985 288.518C265.541 287.916 265.096 287.315 264.651 286.714C264.035 285.886 263.417 285.061 262.792 284.241C262.569 283.948 262.344 283.656 262.119 283.365L261.552 282.637C261.209 282.2 260.863 281.765 260.513 281.332C260.354 281.136 260.195 280.941 260.035 280.747L259.832 280.5L259.508 280.111C254.609 274.261 247.52 272.541 240.405 272.115C229.081 271.435 219.434 261.3 218.862 249.837C218.389 240.368 221.422 232.943 229.007 227.561C235.697 222.814 243.332 221.019 251.1 224.136C260.898 228.067 267.481 235.012 267.97 246.249C268.152 250.405 268.204 254.588 267.95 258.736C267.606 264.338 268.494 269.093 272.678 273.518C275.866 276.888 278.694 280.594 281.524 284.302L281.53 284.311L281.544 284.329L281.559 284.346L281.573 284.365C283.559 286.968 285.546 289.573 287.662 292.062C291.352 296.405 296.01 298.992 302.083 299.158C304.081 299.212 306.058 300.052 308.034 300.892ZM169.812 163.471C178.061 181.746 169.138 198.645 154.605 206.841C142.886 213.45 127.515 210.041 119.623 202.004C116.213 198.532 112.786 194.846 110.367 190.678C105.697 182.633 97.8739 180.413 89.9331 178.16L89.9299 178.159L89.4836 178.033C88.718 177.815 87.901 177.725 87.0886 177.635C85.9332 177.506 84.7869 177.379 83.8107 176.89C76.6179 173.286 70.1965 175.179 63.5895 178.698C57.8449 181.756 51.6159 183.408 44.9177 183.037C31.3288 182.284 22.0266 174.506 17.0656 163.559C9.86884 147.679 15.5524 133.444 27.5798 124.172C39.2863 115.149 55.3742 115.066 67.1838 125.916C69.6179 128.153 71.5969 130.872 73.5798 133.596C75.2541 135.897 76.9308 138.201 78.8864 140.221C81.6306 143.056 85.2487 145.543 88.947 146.849C96.1569 149.395 103.604 151.755 111.14 152.699C114.04 153.062 117.139 151.916 120.224 150.775L120.225 150.775L120.233 150.772C121.504 150.301 122.773 149.831 124.024 149.469C125.961 148.908 127.921 148.137 129.878 147.368L129.878 147.368L129.885 147.365L129.887 147.364C134.126 145.697 138.355 144.035 142.331 144.517C148.873 145.311 155.274 149.399 161.122 153.133L161.125 153.135L161.132 153.141L161.598 153.439C163.96 154.948 165.669 157.481 167.447 160.119L167.457 160.133C168.211 161.25 168.977 162.387 169.812 163.471ZM163.005 168.575C162.69 168.01 162.377 167.444 162.064 166.877C161.39 165.658 160.716 164.438 160.021 163.232C153.674 152.216 138.187 149.96 127.917 156.443C120.738 160.973 113.277 164.325 104.434 159.383C102.244 158.16 99.6554 157.688 97.0485 157.212L97.0427 157.211C95.1818 156.872 93.3117 156.532 91.57 155.915C90.8646 155.665 90.1488 155.421 89.4292 155.175L89.2941 155.128C85.0475 153.679 80.6667 152.182 77.3981 149.464C74.341 146.921 72.0417 143.457 69.7477 140C68.8493 138.646 67.9514 137.293 67.009 135.997C59.4636 125.62 47.1862 123.391 35.5475 128.909C28.071 132.454 24.5588 138.218 22.6325 146.411C20.1574 156.938 26.4733 167.865 34.3972 171.913C42.9377 176.276 51.8151 176.4 60.6325 171.083C66.3073 167.662 72.5974 164.761 79.7272 167.012C80.5324 167.266 81.3351 167.534 82.1369 167.807C82.7458 168.014 83.3542 168.225 83.9626 168.436L83.9714 168.439L83.9802 168.442L83.989 168.445L83.9977 168.448L84.0065 168.451L84.0148 168.454C87.2928 169.589 90.5724 170.726 93.946 171.34C105.951 173.535 113.746 180.373 119.657 190.908C126.52 203.138 143.344 205.492 154.526 197.942C163.38 191.964 168.158 175.97 163.005 168.575ZM103.221 361.999C93.8796 360.306 88.6384 353.921 84.0466 346.961C78.7629 338.952 77.0412 329.772 80.2917 320.948C83.736 311.596 90.0104 303.747 99.9343 300.09C100.169 300.003 100.406 299.922 100.646 299.844C100.87 299.772 101.095 299.704 101.323 299.637C101.89 299.473 102.468 299.328 103.052 299.193C103.908 298.997 104.778 298.824 105.644 298.652L105.707 298.64C108.909 298.007 112.071 297.382 114.384 295.597C117.877 292.902 120.666 289.313 123.462 285.713L123.469 285.705L123.476 285.696C124.951 283.798 126.427 281.898 128.011 280.125C134.333 273.047 136.034 265.348 134.244 255.812C132.12 244.496 135.6 234.105 144.416 226.126C163.386 208.958 188.004 218.397 196.198 237.231C202.055 250.694 198.633 261.947 190.077 272.207C184.904 278.41 177.165 281.834 169.387 282.558C162.285 283.218 158.984 287.571 155.504 292.159L155.292 292.439C153.596 294.672 152.119 297.072 150.643 299.472C149.251 301.736 147.859 303.999 146.281 306.124C142.518 311.197 142.3 316.41 143.635 322.36C146.419 334.767 141.219 348.134 130.988 356.159C122.535 362.789 113.65 364.188 103.221 361.999ZM141.424 299.06C142.311 297.794 143.168 296.504 144.025 295.214C145.939 292.332 147.854 289.452 150.09 286.846C155.179 280.915 160.31 275.244 169.319 274.827C177.951 274.427 189.986 263.537 190.888 255.709C192.439 242.253 188.195 228.68 170.661 225.785C162.401 224.42 155.892 226.398 149.791 231.653C141.051 239.181 141.11 248.925 142.543 259.057C143.38 264.974 143.511 270.608 139.737 275.863C139.174 276.648 138.623 277.442 138.082 278.242C137.572 278.995 137.071 279.753 136.575 280.516C135.646 281.946 134.735 283.388 133.823 284.831L133.806 284.861C132.119 287.531 130.432 290.201 128.626 292.788C124.581 298.58 120.007 304.129 112.377 304.932C100.026 306.23 90.7751 313.79 87.7121 325.698C84.8015 337.014 91.2487 349.833 102.21 353.656C112.28 357.167 121.914 355.006 129.237 347.764C135.713 341.361 138.645 332.87 135.79 323.372C135.648 322.902 135.54 322.421 135.449 321.936C135.35 321.41 135.272 320.876 135.194 320.343L135.107 319.755C135.073 319.534 135.039 319.313 135.001 319.093C133.719 311.607 137.244 305.612 141.424 299.06ZM267.16 58.5639C277.731 55.1801 285.455 57.7534 292.866 65.3705C300.113 67.5502 305.553 72.9838 305.952 79.1137C306.726 91.0043 318.79 103.473 331.663 103.899C342.899 104.27 351.899 99.0493 357.597 89.5942C362.654 81.2036 362.623 71.9916 358.008 63.1215C352.509 52.5512 340.665 47.1889 328.762 48.8452C321.995 49.7875 315.032 49.7778 309.524 44.1362C308.512 43.0991 307.248 42.309 305.984 41.519L305.977 41.5131L305.969 41.5085C305.19 41.0208 304.41 40.5329 303.689 39.9868C303.275 39.6723 302.88 39.3383 302.516 38.9741C302.03 38.4887 301.519 37.9995 301 37.5034L300.997 37.5008C298.568 35.1763 295.988 32.7074 295.272 29.8725C293.3 22.0649 290.71 15.3002 284.401 9.66351C271.292 -2.05035 255.941 2.27094 246.693 12.268C235.621 24.2348 235.866 40.0102 249.291 51.6821C254.34 56.0707 260.974 60.5444 267.16 58.5639ZM287.046 29.9594C288.093 38.5336 294.197 43.3793 301.013 47.518C302.804 48.5304 304.524 49.5841 306.208 50.6162L306.243 50.6381C310.485 53.2397 314.502 55.7016 318.863 57.0317C322.017 57.9945 325.553 57.6694 329.102 57.3433L329.103 57.3432C329.499 57.3071 329.896 57.2709 330.293 57.2368C331.634 57.1196 332.97 57.0219 334.282 57.0151C342.439 56.9721 350.858 63.7123 352.919 71.8198C354.904 79.6342 350.24 88.5356 343.465 93.2817C332.076 101.26 314.496 90.9457 313.771 78.0268C313.447 72.2504 309.88 66.9662 304.899 63.4809C303.578 62.5561 302.262 61.6069 300.945 60.6557L300.933 60.6469L300.932 60.6466C295.706 56.8762 290.44 53.0765 284.626 50.685C280.418 48.9526 275.121 49.4399 270.151 49.8989L268.756 50.0248L267.948 50.0942C256.977 50.9975 250.845 44.31 247.271 35.5248C244.811 29.478 249.43 19.3432 255.78 15.018C268.856 6.11469 285.126 14.2553 287.046 29.9594ZM234.414 388.798C233.655 388.267 232.91 387.766 232.183 387.278L232.178 387.274C230.327 386.03 228.593 384.865 227.059 383.479C222.613 379.46 217.685 377.179 211.571 377.992C209.966 378.205 208.347 378.363 206.729 378.52C203.325 378.852 199.924 379.184 196.655 380.032C193.414 380.872 189.866 382.623 187.68 385.064C179.893 393.755 169.952 395.403 159.44 393.808C151.927 392.668 141.419 381.76 139.831 372.709C138.042 362.512 141.244 354.212 147.654 347.002C153.06 340.921 165.964 335.796 175.178 340.763C178.021 342.295 180.702 344.124 183.384 345.955L183.391 345.959C185.469 347.377 187.548 348.795 189.703 350.078C191.958 351.418 194.613 352.768 197.127 352.847C199.795 352.932 202.472 352.705 205.15 352.477L205.153 352.477L205.179 352.474C207.731 352.258 210.284 352.042 212.83 352.098C218.102 352.213 222.237 350.806 225.837 346.77C231.393 340.538 238.791 336.651 246.905 336.355C251.795 336.177 257.311 338.493 261.655 341.146C269.966 346.223 274.877 353.956 274.983 364.084C275.092 374.38 270.331 382.256 261.849 387.545C253.28 392.888 244.064 393.733 234.414 388.798ZM205.699 370.833L205.947 370.801C207.053 370.66 208.159 370.518 209.258 370.333C215.573 369.272 221.618 369.755 227.03 373.55C228.508 374.586 229.944 375.681 231.38 376.775L231.443 376.823C232.56 377.674 233.677 378.526 234.814 379.351C247.669 388.686 262.282 383.957 266.573 368.873C269.119 359.924 263.093 348.213 253.435 345.936C244.559 343.843 237.309 345.865 230.878 352.421C228.168 355.184 224.58 358.09 220.982 358.773C213.174 360.252 205.112 360.595 197.133 360.908C192.2 361.1 187.965 359.101 184.006 355.75C179.914 352.289 175.242 348.37 170.27 347.349C162.233 345.699 154.953 349.04 150.255 356.288C146.282 362.417 146.81 368.956 148.879 375.649C152.223 386.462 172.413 390.671 180.615 380.769C186.678 373.449 194.44 370.909 204.429 371C204.852 370.943 205.276 370.888 205.699 370.833ZM343.583 257.125C336.861 260.463 332.806 266.763 329.124 273.621C329.116 273.708 329.11 273.795 329.104 273.881C329.092 274.076 329.087 274.263 329.086 274.446L329.085 274.651L329.087 274.839L329.093 275.166V275.167C329.109 275.867 329.122 276.472 328.927 277C326.09 284.695 329.212 291.518 333.188 297.375C339.7 306.971 349.588 310.804 361.006 308.862C367.853 307.698 373.925 304.387 378.211 298.412C385.783 287.855 384.856 277.355 379.103 266.306C377.454 263.139 377.222 258.82 377.569 255.144C377.743 253.296 378.473 251.499 379.204 249.703L379.205 249.699C379.941 247.89 380.677 246.081 380.842 244.221C381.448 237.373 384.867 232.69 390.637 229.901C402.246 224.291 410.26 207.905 403.829 193.369C400.145 185.041 388.358 176.712 379.197 177.087C373.085 177.337 367.492 179.206 362.176 182.831C352.628 189.34 347.653 204.315 353.004 215.216C353.139 215.492 353.276 215.767 353.413 216.043C353.474 216.166 353.535 216.29 353.597 216.414C355.853 220.948 358.13 225.524 356.95 230.855C356.617 232.356 356.103 233.82 355.589 235.282L355.561 235.361C355.409 235.795 355.257 236.229 355.11 236.664C354.96 237.107 354.815 237.551 354.68 237.997C354.435 238.812 354.225 239.632 354.08 240.465C352.849 247.525 350.774 253.556 343.583 257.125ZM378.413 185.539C378.605 185.488 378.797 185.435 378.988 185.382L379.554 185.23C379.804 185.164 380.055 185.1 380.305 185.042C386.183 186.379 389.897 189.421 393.688 192.965C401.208 199.995 398.772 216.487 389.718 221.018C380.187 225.789 373.424 232.42 372.85 243.928C372.753 245.896 371.93 247.826 371.107 249.757C370.713 250.682 370.319 251.607 370.004 252.537C367.196 260.824 370.645 267.921 374.075 274.979L374.588 276.037C379.295 285.769 371.204 299.599 360.551 301.188C354.404 302.105 349.233 301.856 344.12 298.062C334.719 291.085 332.557 275.927 342.706 267.778C346.23 264.949 349.929 262.324 353.667 259.78C358.128 256.743 359.43 252.055 360.709 247.451L360.71 247.448C361.06 246.185 361.409 244.928 361.821 243.713C363.604 238.452 364.788 232.711 364.744 227.194C364.711 222.917 362.923 218.388 360.961 214.446C355.575 203.625 360.294 187.063 376.117 185.971C376.889 185.918 377.652 185.741 378.413 185.539ZM147.7 12.2045C156.79 19.5248 159.584 29.0258 157.855 39.6967C156.772 46.3862 152.807 51.7348 146.962 55.6166C140.975 59.5922 134.78 62.2123 127.381 61.0375C121.119 60.0424 115.533 61.6479 110.646 65.8071C108.694 67.4692 106.564 69.0043 104.309 70.2114C97.8137 73.6889 95.2917 79.7231 94.0768 86.3442C91.5764 99.9721 83.6921 107.755 70.5588 110.081C53.6618 113.072 38.6081 97.6489 39.2238 82.5375C39.9299 65.2153 55.8757 52.8979 73.1472 54.9213C76.6818 55.3354 80.9304 54.8901 83.9562 53.2211C87.0583 51.5092 89.8322 49.2182 92.612 46.9213L92.6546 46.8861C93.6287 46.0814 94.6035 45.2762 95.5934 44.4965L95.8483 44.2963L96.1594 44.0551C96.6149 43.7036 97.0739 43.3569 97.5383 43.02C101.325 40.269 102.411 36.3452 102.994 32.0981C104.479 21.2885 109.532 13.0385 119.87 8.61078C129.691 4.40375 138.999 4.63715 147.7 12.2045ZM116.478 20.0141C115.906 21.269 115.248 22.5082 114.591 23.7475C113.136 26.4868 111.681 29.226 111.154 32.1323C109.619 40.5932 105.511 46.6186 98.7932 52.0141C89.5666 59.4233 80.4728 64.5795 67.8527 63.2455C54.8864 61.8754 42.2712 78.0297 48.7902 90.103C56.4787 104.342 69.9186 106.283 81.1203 97.0463C83.7375 94.8891 85.0226 90.5327 85.8786 86.9389C87.8078 78.8442 89.9597 71.1137 97.3845 66.0854C99.1463 64.8924 100.849 63.6064 102.551 62.321L102.573 62.3041L102.576 62.3023C104.998 60.4719 107.419 58.6425 110.006 57.0834L110.459 56.811L110.46 56.8103C115.299 53.8867 120.24 50.902 126.53 52.9028C128.648 53.5766 131.236 53.5766 133.426 53.0795C144.467 50.5688 151.486 44.4965 150.057 30.3754C149.588 25.7338 142.841 15.561 138.356 15.2866C137.853 15.2553 137.347 15.2182 136.839 15.1772C136.434 15.1445 136.028 15.11 135.621 15.0754L135.566 15.0707L135.481 15.0649L135.419 15.059L135.415 15.0587C128.951 14.509 122.226 13.9372 116.478 20.0141ZM31.8298 303.511C37.903 312.657 47.8669 317.735 58.9265 315.999L59.2333 315.884C62.5936 314.624 65.6269 313.486 68.5153 312.057C86.9572 302.93 86.8864 274.248 67.7966 265.039C60.8776 261.703 55.9421 257.196 54.5847 249.257C54.1096 246.479 52.8444 243.77 51.5783 241.208C49.3098 236.619 49.634 232.389 51.5822 227.649C51.7326 227.283 51.8859 226.916 52.0397 226.549L52.3171 225.89L52.3172 225.89C54.5183 220.667 56.7775 215.307 55.006 209.28C52.4113 200.451 48.0266 193.205 39.3088 188.922C28.3195 183.525 18.5627 185.918 9.67206 193.116C4.09344 197.631 -1.84991 208.818 0.579285 218.337C3.01093 227.868 8.57147 234.458 16.8083 238.885C22.0344 241.694 25.8034 245.277 27.5104 250.972C27.7354 251.723 27.9459 252.481 28.1566 253.24C28.7624 255.423 29.3696 257.611 30.3268 259.629C32.8688 264.989 33.426 270.026 30.8444 275.707C26.631 284.98 25.673 294.241 31.8298 303.511ZM46.697 251.206L46.7189 251.277C47.1384 252.608 47.5578 253.938 48.0012 255.259C51.3146 264.177 58.1349 268.506 65.2512 272.836C74.53 278.483 76.7516 291.09 71.6188 300.138C67.381 307.608 53.2565 311.658 43.8303 305.511C36.2526 300.57 32.6535 289.007 38.0314 278.071C41.3889 271.244 40.9958 264.638 38.0231 257.842C37.1262 255.792 36.3581 253.669 35.5915 251.549C34.2277 247.778 32.8669 244.016 30.7897 240.692C28.57 237.14 24.4323 234.371 20.5798 232.332C7.59979 225.468 4.90643 214.135 10.9792 202.95C16.2477 193.246 31.1608 190.385 39.8757 198.477C48.4743 206.459 50.1779 213.048 43.9953 225.774C41.3381 231.245 41.1725 236.566 43.5505 242.206C44.7829 245.128 45.7399 248.167 46.697 251.206Z" fill="#DCF2F1"/>
</svg>
