<svg width="756" height="179" viewBox="0 0 756 179" fill="none" xmlns="http://www.w3.org/2000/svg">
<path d="M574 1.78363C563.333 4.31696 563.333 4.45029 575.733 4.45029C601.067 4.45029 623.467 16.5836 642.533 40.717C647.2 46.4503 654.267 55.2503 658.533 60.4503C662.8 65.517 668.667 73.517 671.733 78.0503C687.467 101.384 710.4 126.184 721.333 131.784C731.333 136.85 730.667 139.917 730.533 87.3836C730.533 33.3836 730.267 31.7836 720.267 24.1836C717.067 21.7836 713.067 19.7836 711.2 19.7836H708L707.733 56.717L707.333 93.7836L702.8 86.4503C685.867 59.117 660 27.7836 645.333 16.8503C637.6 10.9836 622.667 4.31696 612.4 1.91696C601.333 -0.616373 583.6 -0.616373 574 1.78363Z" fill="#001A23"/>
<path d="M11.4667 5.38366C12.1334 6.31699 17.6 13.2503 23.7334 20.717L34.9334 34.4503L38.9334 31.6503C44.1334 27.917 44.8 25.7837 42.1334 21.7837C40.9334 20.0503 40 18.317 40 17.917C40 16.4503 48.8 9.11699 50.6667 9.11699C51.7334 9.11699 54.4 11.2503 56.5334 13.917L60.2667 18.717L63.8667 15.2503C68.5334 10.717 71.0667 10.8503 75.2 15.917C79.6 21.117 79.6 22.8503 75.0667 27.117C70 31.7837 66.2667 31.3837 62.5334 25.917C59.6 21.6503 59.2 21.3837 57.0667 23.3837C54.1334 26.0503 54.1334 27.6503 57.2 31.6503C59.4667 34.5837 59.8667 34.717 64.4 32.9837C69.0667 31.3837 69.4667 31.3837 73.3334 35.117C78.5334 40.0503 78.4 42.317 72.8 46.717C67.2 51.117 66.4 51.2503 63.3334 47.7837C60.9334 45.117 56.6667 44.1837 55.6 46.1837C55.2 46.717 57.0667 49.7837 59.7334 53.117C64.1334 58.4503 65.0667 58.9837 67.7334 57.7837C69.3334 57.117 70.6667 55.517 70.6667 54.1837C70.6667 51.6503 80 43.7837 83.0667 43.7837C84.1334 43.7837 86.9334 45.917 89.3334 48.5837C93.2 52.9837 93.6 53.2503 95.8667 51.2503C99.3334 48.0503 103.467 48.5837 106.533 52.5837C110.267 57.3837 110.133 58.9837 105.2 62.9837C100.133 67.2503 99.6 67.2503 95.4667 62.8503L92.2667 59.3837L88 62.8503C85.7334 64.8503 83.0667 66.4503 82.1334 66.4503C80.9334 66.4503 80.5334 67.6503 80.9334 69.6503C81.6 72.717 81.7334 72.8503 85.6 70.5837C89.4667 68.4503 89.6 68.4503 93.4667 73.117C98.1334 78.5837 98.2667 79.917 94.2667 83.7837L91.0667 86.8503L96.1334 92.317L101.2 97.7837L105.067 94.0503C110 89.3837 112.267 89.517 117.333 94.717C123.733 101.65 123.733 103.65 117.867 108.717C111.067 114.45 107.733 114.317 103.2 108.317C100 104.184 99.3334 103.917 97.6 105.65C95.8667 107.25 96 107.917 98.1334 110.984C99.6 112.85 102 114.45 103.6 114.45C108.667 114.45 114.533 125.384 110.4 126.85C108 127.65 115.6 138.317 121.2 142.05C127.467 146.317 135.733 147.25 143.733 144.584C153.2 141.384 155.067 138.984 172 109.117C174.667 104.317 179.467 96.1837 182.4 90.8503C188.667 80.0503 189.867 74.9837 185.333 79.117C179.067 84.717 170.133 74.9837 176.133 68.9837C180.667 64.4503 188 67.117 188 73.2503C188 77.6503 193.067 73.2503 195.6 66.5837C197.867 60.717 197.867 60.717 194.933 58.717C191.067 56.1837 190.8 48.4503 194.533 46.4503C198.4 44.4503 201.067 44.8503 203.6 47.6503C205.733 50.1837 206 49.917 211.733 40.0503C214.933 34.4503 220 25.7837 222.8 20.9837C225.6 16.1837 228 11.917 228 11.517C228 10.9837 225.2 9.51699 221.733 8.18366C211.333 4.18366 198.8 4.98366 186.667 10.4503C174.8 15.6503 156.267 18.8503 145.067 17.6503L137.333 16.8503V33.6503V50.317L146 50.717L154.667 51.117L145.867 66.4503C141.067 74.8503 136.667 82.317 136.133 82.8503C135.467 83.517 129.733 74.717 123.333 63.517C94.9334 14.317 94.5334 13.6503 82 7.65033L74 3.78366H42.2667C17.2 3.78366 10.6667 4.18366 11.4667 5.38366ZM203.333 18.9837C203.333 25.917 194.933 27.2503 193.6 20.5837C192.667 16.1837 194.4 14.317 198.933 14.717C202.8 15.117 203.333 15.6503 203.333 18.9837ZM194.4 36.0503C198.667 40.317 192 47.6503 187.333 43.7837C185.333 42.0503 184.667 36.9837 186.267 35.3837C187.733 33.917 192.667 34.317 194.4 36.0503ZM188 52.4503C188.8 53.517 189.2 55.517 188.667 56.9837C187.6 60.317 183.2 61.7837 180.667 59.7837C178.667 58.0503 178 52.9837 179.6 51.3837C181.2 49.7837 186.267 50.4503 188 52.4503Z" fill="#001A23"/>
<path d="M196.667 18.5836C195.333 20.5836 196.8 21.6503 199.333 20.5836C200.533 20.1836 201.067 19.2503 200.667 18.4503C199.6 16.717 197.733 16.717 196.667 18.5836Z" fill="#001A23"/>
<path d="M188.933 38.0503C187.333 39.517 187.867 41.117 190 41.117C191.067 41.117 192 40.1837 192 39.117C192 36.9837 190.4 36.4503 188.933 38.0503Z" fill="#001A23"/>
<path d="M181.333 55.117C181.333 56.1837 182.267 57.117 183.333 57.117C184.4 57.117 185.333 56.1837 185.333 55.117C185.333 54.0503 184.4 53.117 183.333 53.117C182.267 53.117 181.333 54.0503 181.333 55.117Z" fill="#001A23"/>
<path d="M558.667 9.51696C544.4 12.8503 533.733 21.117 527.733 33.7836C524.8 40.1836 522.667 50.4503 524.4 50.4503C524.533 50.4503 526.8 49.917 529.333 49.117C534.133 47.7836 538.667 48.4503 538.667 50.5836C538.667 51.2503 536.933 51.7836 534.667 51.7836C532.533 51.7836 529.2 52.4503 527.333 53.3836C524.533 54.5836 524 55.7836 524 60.5836C524 64.9836 522.933 67.517 519.333 72.317C516.8 75.7836 514.667 78.9836 514.667 79.517C514.667 80.0503 516 81.117 517.733 81.7836C519.867 82.717 520.8 84.4503 521.067 88.0503C521.333 90.8503 522.133 93.117 522.933 93.117C523.733 93.117 524 94.317 523.6 95.7836C523.2 97.2503 523.467 98.4503 524.133 98.4503C524.8 98.4503 525.333 100.984 525.333 104.184C525.333 107.384 526 110.584 526.933 111.517C530.933 115.517 553.467 112.317 563.733 106.317C567.867 103.917 568.133 103.917 567.733 106.05C567.467 107.384 564.4 109.917 560.667 111.784C554.4 114.85 554 115.384 554.4 119.65C554.8 122.984 554 124.984 551.6 127.65C548.4 130.984 541.333 143.384 541.333 145.517C541.333 146.05 553.733 146.45 569.067 146.184C591.6 145.917 597.6 145.384 601.733 143.517L606.8 141.25L603.6 134.85C600 127.917 596 113.117 596 107.25C596 105.25 597.733 100.984 599.867 97.917C605.067 90.317 611.2 78.0503 614 69.2503C617.067 59.7836 616.267 42.9836 612.4 34.1836C603.733 14.9836 580.8 4.45029 558.667 9.51696ZM579.867 16.5836C582.267 19.3836 583.733 19.917 587.067 19.3836C592.533 18.5836 596 20.4503 596 24.1836C596 27.7836 598 30.9836 600.267 31.2503C601.2 31.2503 603.067 31.517 604.267 31.517C607.067 31.7836 608.533 36.317 606.933 39.3836C605.333 42.0503 607.333 48.5836 610.133 49.6503C612.533 50.5836 612.533 56.317 610 58.4503C608.667 59.517 606 59.7836 602 59.2503C598.667 58.717 596 58.5836 596 58.9836C596 60.717 599.2 66.4503 600.133 66.4503C600.8 66.4503 601.867 67.6503 602.667 69.2503C603.867 71.3836 603.733 72.717 602 75.3836C600.133 78.0503 599.067 78.5836 595.867 77.917C592.8 77.3836 591.067 78.0503 587.467 81.117C585.067 83.3836 582.133 85.117 580.933 85.117C577.6 85.117 575.6 81.3836 576.533 76.9836C577.467 72.317 572.8 62.4503 569.733 62.4503C568.8 62.4503 567.333 61.2503 566.4 59.7836C565.2 57.7836 563.2 57.117 559.333 57.117C556.267 57.117 553.2 57.7836 552.4 58.5836C548.4 62.5836 540.667 56.717 543.6 51.917C545.467 48.8503 544 42.0503 540.533 38.317C537.733 35.2503 539.2 30.9836 543.867 28.4503C547.867 26.4503 549.333 24.0503 549.333 19.6503C549.333 16.317 555.2 13.917 558.667 15.7836C562.133 17.6503 566.933 17.3836 569.867 15.117C573.733 12.1836 576.4 12.717 579.867 16.5836Z" fill="#001A23"/>
<path d="M572.267 18.717C573.067 21.117 576 21.517 576 19.2503C576 18.0503 575.067 17.117 573.867 17.117C572.667 17.117 572 17.7836 572.267 18.717Z" fill="#001A23"/>
<path d="M553.333 20.317C553.333 21.517 554.267 22.4503 555.467 22.4503C557.733 22.4503 557.333 19.517 554.933 18.717C554 18.4503 553.333 19.117 553.333 20.317Z" fill="#001A23"/>
<path d="M563.067 21.117C559.333 22.5837 559.2 24.0503 562.4 26.8503C565.6 29.7837 566.933 29.6503 568.8 26.717C570 24.8503 570 23.7837 568.667 22.0503C566.8 19.517 567.067 19.517 563.067 21.117Z" fill="#001A23"/>
<path d="M578.133 23.6503C577.733 24.1837 580 27.517 583.2 30.9837C587.2 35.2503 590.133 37.117 592.533 37.117C598.8 37.117 596.133 31.117 589.333 30.1837C587.333 29.917 585.333 28.317 584.267 26.0503C582.533 22.5837 579.6 21.2503 578.133 23.6503Z" fill="#001A23"/>
<path d="M588.8 23.517C588.4 24.317 588.667 25.3837 589.467 25.7837C591.467 27.117 592.8 25.3837 591.067 23.6503C590.133 22.717 589.333 22.717 588.8 23.517Z" fill="#001A23"/>
<path d="M550.133 27.6503C548.133 30.8503 553.333 34.4503 560.133 34.4503C562.267 34.4503 561.333 31.517 558.4 28.9837C555.067 26.317 551.333 25.6503 550.133 27.6503Z" fill="#001A23"/>
<path d="M571.2 28.8503C569.2 31.917 571.733 35.7836 575.867 35.7836C579.333 35.7836 579.467 33.3836 576.133 29.3836C573.067 25.7836 573.067 25.7836 571.2 28.8503Z" fill="#001A23"/>
<path d="M543.333 33.117C542.4 34.717 543.6 37.117 545.467 37.117C547.067 37.117 547.067 33.517 545.467 32.4503C544.8 32.0503 543.867 32.317 543.333 33.117Z" fill="#001A23"/>
<path d="M564.267 36.317C564.4 37.6503 565.333 38.5837 566 38.5837C568 38.4503 567.6 35.3837 565.6 34.717C564.4 34.317 563.867 34.9837 564.267 36.317Z" fill="#001A23"/>
<path d="M600.267 36.317C600.4 37.6503 601.333 38.5837 602 38.5837C604 38.4503 603.6 35.3837 601.6 34.717C600.4 34.317 599.867 34.9837 600.267 36.317Z" fill="#001A23"/>
<path d="M548.4 38.5837C546.667 40.317 547.867 46.4503 550.133 47.3837C551.6 47.917 555.867 45.6503 561.2 41.517C561.467 41.3837 560.933 40.317 560 39.117C558.133 36.8503 550.533 36.4503 548.4 38.5837Z" fill="#001A23"/>
<path d="M580.267 38.717C581.067 41.117 584 41.517 584 39.2503C584 38.0503 583.067 37.117 581.867 37.117C580.667 37.117 580 37.7836 580.267 38.717Z" fill="#001A23"/>
<path d="M570.133 40.9837C569.2 42.4503 571.867 50.4503 573.333 50.4503C575.867 50.4503 578.533 44.717 577.2 42.1837C575.867 39.6503 571.333 38.8503 570.133 40.9837Z" fill="#001A23"/>
<path d="M592 40.8503C586.933 41.6503 585.867 43.3837 588.667 46.4503C591.867 50.0503 592.933 49.7837 595.333 45.2503C597.6 40.8503 596.933 40.0503 592 40.8503Z" fill="#001A23"/>
<path d="M598.267 46.317C595.6 50.8503 595.333 54.4503 597.733 54.4503C600.667 54.317 603.733 48.717 602.533 45.3837C601.067 41.6503 601.067 41.6503 598.267 46.317Z" fill="#001A23"/>
<path d="M559.067 46.8503C553.6 50.4503 554.133 52.1836 560.8 53.3836C567.2 54.4503 568.667 53.117 567.067 48.317C565.467 43.517 564.267 43.3836 559.067 46.8503Z" fill="#001A23"/>
<path d="M579.333 49.117C576 52.8503 577.467 55.917 582.133 54.5837C586.8 53.3837 587.467 51.517 584.267 48.717C581.867 46.5837 581.6 46.5837 579.333 49.117Z" fill="#001A23"/>
<path d="M546.933 53.3836C547.733 55.7836 550.667 56.1836 550.667 53.917C550.667 52.717 549.733 51.7836 548.533 51.7836C547.333 51.7836 546.667 52.4503 546.933 53.3836Z" fill="#001A23"/>
<path d="M604.267 53.6503C604.4 54.9837 605.333 55.917 606 55.917C608 55.7837 607.6 52.717 605.6 52.0503C604.4 51.6503 603.867 52.317 604.267 53.6503Z" fill="#001A23"/>
<path d="M569.6 56.0503C570.4 58.4503 573.333 58.8503 573.333 56.5837C573.333 55.3837 572.4 54.4503 571.2 54.4503C570 54.4503 569.333 55.117 569.6 56.0503Z" fill="#001A23"/>
<path d="M589.6 56.317C589.733 57.6503 590.667 58.5837 591.333 58.5837C593.333 58.4503 592.933 55.3837 590.933 54.717C589.733 54.317 589.2 54.9837 589.6 56.317Z" fill="#001A23"/>
<path d="M576.667 59.6503C576.267 60.317 577.2 63.517 578.8 66.717C581.867 73.117 587.067 76.4503 590.533 74.4503C591.733 73.7837 592.133 73.117 591.467 73.117C590.933 73.117 591.333 71.517 592.667 69.6503C595.2 65.7837 593.6 62.4503 589.067 62.4503C587.733 62.4503 586.267 61.517 585.867 60.4503C584.933 58.317 578 57.6503 576.667 59.6503Z" fill="#001A23"/>
<path d="M596 72.317C596 73.517 596.933 74.4503 598.133 74.4503C600.4 74.4503 600 71.517 597.6 70.717C596.667 70.4503 596 71.117 596 72.317Z" fill="#001A23"/>
<path d="M580.267 78.5837C580.533 79.517 581.6 80.5837 582.533 80.8503C583.6 81.2503 584.133 80.717 583.733 79.6503C583.467 78.717 582.4 77.6503 581.467 77.3837C580.4 76.9837 579.867 77.517 580.267 78.5837Z" fill="#001A23"/>
<path d="M46.1333 15.6503C44 18.0503 44 18.5837 45.7333 21.117C48.4 24.9837 47.2 28.5837 41.7333 33.6503L37.0667 37.7837L42.2667 43.6503L47.3333 49.3837L52.5333 45.2503C58 40.8503 61.7333 40.717 64.9333 44.9837C66.1333 46.5837 67.0667 46.717 68.8 45.6503C73.4667 42.8503 74.1333 40.0503 71.2 36.9837C68.4 34.317 68.1333 34.317 64.9333 36.4503C60.8 39.117 57.6 37.7837 53.2 31.6503L50.2667 27.517L53.2 23.7837C56.6667 18.9837 56.6667 18.1837 53.6 15.3837C50.4 12.4503 48.9333 12.5837 46.1333 15.6503Z" fill="#001A23"/>
<path d="M66.1334 17.3836L62.4 20.5836L65.6 24.317L68.8 28.0503L72.4 24.9836L76 21.7836L72.9334 17.917L69.8667 14.1836L66.1334 17.3836Z" fill="#001A23"/>
<path d="M475.333 17.7837C472.933 20.0503 472 22.4503 472 26.1837C472 33.117 476.267 37.117 483.467 37.117C490.533 37.117 494.933 32.717 494.933 25.6503C494.933 15.517 482.4 10.5837 475.333 17.7837Z" fill="#001A23"/>
<path d="M224 25.6503C224 26.8503 224.933 27.7836 226.133 27.7836C228.4 27.7836 228 24.8503 225.6 24.0503C224.667 23.7836 224 24.4503 224 25.6503Z" fill="#001A23"/>
<path d="M750.4 32.0503C749.733 33.7837 748 34.4503 744.667 34.4503C738.4 34.4503 738.667 36.717 746 44.717L751.867 51.117L752 44.0503C752 38.8503 752.533 37.117 754 37.117C755.067 37.117 756 36.4503 756 35.7837C756 34.9837 755.2 34.4503 754.133 34.4503C753.067 34.4503 752 33.3837 751.733 32.0503C751.333 29.917 751.2 29.917 750.4 32.0503ZM750.4 41.3837C750.933 45.6503 749.333 46.1837 746.4 42.717C742.267 37.917 742.133 36.8503 746.133 37.3837C749.2 37.6503 750.133 38.5837 750.4 41.3837Z" fill="#001A23"/>
<path d="M235.6 34.0503C233.867 35.6503 234.667 39.517 236.933 40.317C238.133 40.8503 240 40.4503 240.933 39.3836C242 38.4503 242.4 36.5836 241.867 35.3836C241.067 33.117 237.2 32.317 235.6 34.0503Z" fill="#001A23"/>
<path d="M18.1333 39.917C11.3333 45.917 11.3333 46.0503 19.0666 55.117L23.6 60.317L30.5333 55.117C34.2666 52.317 37.3333 48.9836 37.3333 47.7836C37.3333 44.9836 28.4 34.4503 26.1333 34.4503C25.2 34.4503 21.6 36.8503 18.1333 39.917Z" fill="#001A23"/>
<path d="M218 35.6503C217.067 37.2503 219.6 38.8503 221.333 37.7837C222.8 36.8503 221.867 34.4503 220 34.4503C219.333 34.4503 218.533 34.9837 218 35.6503Z" fill="#001A23"/>
<path d="M286.267 38.0503C284.533 39.6503 285.333 45.2503 287.333 45.917C288.933 46.5837 289.333 49.117 289.333 57.117C289.333 65.117 288.933 67.6503 287.333 68.317C286.267 68.717 285.333 69.917 285.333 71.117C285.333 72.317 286.267 73.517 287.333 73.917C288.8 74.5837 289.333 76.717 289.2 82.317V89.7837L286.4 82.5837C281.2 69.517 263.6 54.4503 253.467 54.4503C252 54.4503 249.733 52.9837 248.533 51.117C245.067 45.7837 241.733 44.5837 237.867 47.117C235.333 48.717 234.667 50.317 234.667 54.4503C234.667 58.4503 233.867 60.1837 231.2 62.317C226.533 66.0503 225.333 65.917 219.333 61.117C213.2 56.1837 206.667 55.7837 202.667 60.0503C199.2 63.7837 199.2 70.4503 202.667 74.8503C208 81.517 204.4 91.7837 196.8 91.7837C194.933 91.7837 192.533 92.717 191.467 93.917C187.333 97.917 189.6 105.117 194.8 105.117C196.533 105.117 197.733 107.117 199.2 112.184C204.533 130.584 220.667 143.384 240.133 144.85C256.933 146.05 272.8 138.184 281.6 124.184C284 120.317 286.667 117.384 287.333 117.65C289.067 118.184 289.867 137.117 288.133 137.117C285.6 137.117 283.733 142.184 285.333 145.117C287.067 148.45 290 148.45 293.867 145.384C296.4 143.384 296.667 142.717 295.2 141.384C292.667 138.984 292.8 138.45 298 132.45L302.667 127.117L305.467 130.45C308 133.517 308.133 133.517 306.667 130.717C304.8 126.984 305.6 121.25 308.667 116.584C310 114.717 310.667 113.117 310.267 113.117C309.867 113.117 308.267 115.25 306.667 117.784C303.333 123.25 301.867 123.517 297.067 119.117C292.8 115.384 292.4 113.517 295.733 112.717C297.467 112.184 297.333 112.05 295.2 111.917C291.067 111.784 290.667 109.65 290.667 90.9837C290.667 77.3837 291.067 74.4503 292.667 74.4503C293.867 74.4503 294.267 73.6503 293.867 72.4503C293.333 71.2503 293.867 70.4503 294.8 70.317C295.867 70.317 295.333 69.7837 293.733 69.117C290.933 67.917 290.667 66.9837 290.667 57.3837C290.667 48.8503 291.2 46.4503 293.067 44.717C296 42.0503 308 41.6503 310.4 44.0503C311.733 45.3837 312.667 45.3837 314.667 44.0503C316.133 43.2503 321.6 42.4503 326.933 42.4503C336.533 42.4503 336.533 42.4503 333.333 44.717C331.467 46.0503 327.067 48.1837 323.333 49.3837C319.733 50.717 317.733 51.6503 319.067 51.7837C322 51.7837 322 52.4503 318.4 57.117C315.467 61.2503 312 62.4503 312 59.3837C311.867 58.5837 311.067 59.517 310.133 61.7837C308.533 65.2503 308.667 66.0503 310.4 67.3837C313.333 69.7837 314.267 69.517 316.933 66.4503C318.933 64.1837 320.933 63.7837 329.733 63.7837C346.133 63.7837 354 68.9837 350.667 77.6503C348.4 83.7837 344.533 85.117 329.733 85.117C317.467 85.117 316 84.8503 314.267 82.317C313.067 80.5837 312.133 80.1837 311.733 81.2503C311.333 82.317 310 82.1837 306.667 80.5837C304.133 79.3837 303.2 79.117 304.533 80.0503C306 80.9837 308.533 83.117 310.133 84.717C311.6 86.4503 313.333 87.7837 313.867 87.7837C315.6 87.7837 322.533 96.4503 322.667 98.717C322.667 101.517 316 106.317 313.333 105.384C312.267 104.984 310.267 103.384 308.933 101.917C306.533 99.117 306.4 99.117 308.533 102.45C309.733 104.184 310.667 107.117 310.667 108.717C310.667 112.184 312.267 112.717 314.667 109.784C315.867 108.45 318.8 107.784 324.533 107.784C332.533 107.784 332.8 107.917 336 112.85C337.867 115.517 343.2 123.384 347.867 130.184L356.4 142.45H370.267C377.867 142.45 384 142.184 384 141.917C384 141.65 378.933 134.184 372.667 125.117C356.933 102.584 357.6 104.717 363.867 99.117C378.8 85.517 378.667 62.717 363.6 49.7837C358.533 45.3837 351.6 42.4503 346.4 42.4503C345.2 42.4503 343.6 41.3837 342.8 40.0503C341.733 38.1837 341.067 38.0503 338.8 39.3837C335.467 41.3837 316 41.7837 316 39.7837C316 38.9837 314.8 38.4503 313.467 38.4503C312 38.4503 310.4 38.9837 310 39.7837C308.667 41.917 295.2 41.3837 293.333 39.117C291.6 36.9837 287.733 36.4503 286.267 38.0503ZM261.867 72.8503C262.8 74.4503 259.067 82.1837 256.4 83.517C255.067 84.1837 250.133 85.117 245.467 85.517C240.133 85.917 235.6 87.117 233.6 88.717C227.2 93.517 228.267 94.4503 239.867 94.4503C249.867 94.4503 250.667 94.5837 250.667 97.2503C250.667 98.717 248.933 101.784 246.8 103.917C243.333 107.25 241.867 107.784 235.067 107.784H227.333L231.733 112.05C235.867 116.317 236.533 116.45 248.667 116.85C260.933 117.384 261.333 117.517 261.333 120.45C261.333 122.317 259.6 124.984 257.2 126.984C253.733 129.917 251.867 130.45 244.8 130.45C223.2 130.45 208.933 112.184 215.067 92.5837C218 83.6503 226.667 75.2503 235.067 73.2503C242 71.7837 260.933 71.3837 261.867 72.8503ZM296.133 119.917C298.267 121.384 300 123.784 300 125.25C300 128.184 293.867 137.117 291.867 137.117C291.2 137.117 290.667 132.584 290.667 127.117C290.667 121.65 291.067 117.117 291.467 117.117C291.867 117.117 294 118.317 296.133 119.917Z" fill="#001A23"/>
<path d="M460.8 47.7836C457.067 60.317 460.8 66.0503 484.667 83.917C504.533 98.8503 510.667 106.05 510.667 114.717C510.667 121.117 512.133 121.117 515.6 114.717C519.467 107.917 520.133 102.184 517.867 93.6503C513.6 76.9836 497.733 60.1836 472.267 45.2503C468.4 42.9836 464.667 41.117 464 41.117C463.333 41.117 461.867 44.1836 460.8 47.7836Z" fill="#001A23"/>
<path d="M296 45.117C297.067 45.7837 298.667 46.4503 299.333 46.4503C300.133 46.4503 299.733 45.7837 298.667 45.117C297.6 44.4503 296.133 43.7837 295.333 43.7837C294.667 43.7837 294.933 44.4503 296 45.117Z" fill="#001A23"/>
<path d="M307.6 46.5837C306.267 47.3837 304.133 47.6503 302.933 47.117C301.067 46.4503 300.933 46.5837 302.4 47.917C304.667 50.317 304.4 53.7837 302 55.7837C300.8 56.717 298.133 60.0503 295.867 62.9837C292.933 66.8503 293.867 66.1837 299.067 60.5837C303.067 56.317 306.933 53.117 307.6 53.517C309.333 54.5837 311.733 50.1837 310.8 47.517C310.133 45.7837 309.467 45.6503 307.6 46.5837Z" fill="#001A23"/>
<path d="M621.333 93.6503C621.333 124.85 621.867 143.65 622.8 146.05C625.333 152.85 634.133 159.784 640.133 159.784C642.533 159.784 642.667 157.65 642.933 122.05L643.333 84.4503L647.2 91.117C657.467 109.117 674.4 130.85 683.6 138.05C703.067 153.25 727.067 155.917 746.133 145.117C750.133 142.717 753.333 140.584 753.067 140.317C752.8 140.05 749.333 140.717 745.333 141.784C735.333 144.45 725.867 144.317 716.133 141.25C699.467 136.05 688.4 125.917 676.667 105.117C667.067 88.1836 656.8 73.117 648.267 63.7836C640.933 55.517 626.8 45.117 623.067 45.117C621.6 45.117 621.333 53.917 621.333 93.6503Z" fill="#001A23"/>
<path d="M77.4667 50.4503L73.0667 54.1836L76.8 58.9836C78.9333 61.6503 80.9333 63.7836 81.3333 63.7836C81.7333 63.7836 84.1333 62.0503 86.6667 59.917L91.2 56.1836L87.6 51.2503C85.4667 48.5836 83.4667 46.4503 82.9333 46.4503C82.4 46.5836 80 48.317 77.4667 50.4503Z" fill="#001A23"/>
<path d="M414.8 52.0503C412.267 54.5837 409.467 59.917 407.333 66.317C403.067 79.2503 403.2 80.0503 407.867 73.6503C413.2 66.1837 419.333 61.3837 424.533 60.317C429.6 59.3837 439.867 63.2503 444.933 68.0503C448.667 71.517 448.8 70.5837 445.467 64.0503C440.8 55.117 431.2 47.7837 423.867 47.7837C420.133 47.7837 418 48.8503 414.8 52.0503Z" fill="#001A23"/>
<path d="M195.2 51.117C194.667 52.317 194.933 53.917 195.733 54.717C197.867 56.8503 202 55.3836 202 52.4503C202 48.9836 196.4 47.917 195.2 51.117Z" fill="#001A23"/>
<path d="M46.8 54.4503L42.4 58.1836L46 62.9836C48 65.6503 50.2667 67.7836 50.9334 67.7836C53.3334 67.7836 60 61.917 60 59.7836C60 57.917 53.4667 50.317 51.8667 50.4503C51.6 50.5836 49.3334 52.317 46.8 54.4503Z" fill="#001A23"/>
<path d="M221.2 52.5836C219.333 54.8503 220.533 57.917 224.4 60.317C226.133 61.3836 227.333 61.117 229.467 58.9836C231.733 56.5836 232 55.6503 230.8 53.2503C228.933 49.917 223.733 49.517 221.2 52.5836Z" fill="#001A23"/>
<path d="M97.2 54.317L94 56.9837L96.8 59.7837C99.2 62.1837 100.133 62.4504 102.533 61.2504C105.733 59.517 106 58.1837 104 54.317C102.267 51.117 101.067 51.117 97.2 54.317Z" fill="#001A23"/>
<path d="M740.933 58.0503C740.4 58.4503 740 61.7837 740 65.3837C740 70.0503 740.533 72.0503 742 72.717C743.2 73.117 744.533 72.9837 745.067 72.4503C745.6 71.917 745.2 71.117 744.4 70.8503C742.533 70.1837 742 59.7837 743.733 59.7837C744.267 59.7837 746.533 62.717 748.667 66.4503C754.133 75.517 756 75.117 756 65.117C756 59.517 755.467 57.117 754.267 57.117C753.067 57.117 752.667 58.8503 752.933 62.717C753.333 67.6503 753.2 68.1837 751.733 65.917C745.867 57.3837 743.333 55.517 740.933 58.0503Z" fill="#001A23"/>
<path d="M64.4 63.7837C61.2 66.1837 58.6667 68.5837 58.6667 69.3837C58.6667 70.1837 60.1334 72.4503 61.8667 74.5837C66.8 80.4503 65.7334 82.8503 53.0667 93.117L50.1334 95.517L55.8667 102.984C59.0667 107.117 62.6667 110.45 63.8667 110.45C65.2 110.45 68.6667 108.317 71.6 105.784C78.1334 100.184 80.6667 100.05 85.6 104.584L89.2 108.184L94 104.584L98.6667 100.984L95.8667 96.9837C92.2667 91.7837 89.8667 90.9837 86.8 93.6503C82.6667 97.3837 78 96.317 73.4667 90.5837C68.1334 83.917 68.2667 80.9837 74 76.5837C76.5334 74.5837 78.6667 72.317 78.6667 71.3837C78.6667 70.4503 76.6667 67.517 74.2667 64.717L70 59.6503L64.4 63.7837Z" fill="#001A23"/>
<path d="M4.66667 70.5836C2.13333 72.8503 0 75.117 0 75.6503C0 76.1836 2 78.8503 4.4 81.6503L8.66667 86.5836L13.2 83.2503C19.8667 78.317 23.0667 78.717 28.9333 85.7836C31.6 89.117 34.6667 91.7836 35.7333 91.7836C38 91.7836 48.9333 83.6503 50 81.2503C50.8 79.2503 40.5333 66.4503 38 66.4503C37.0667 66.4503 33.7333 68.5836 30.6667 71.117C23.6 76.9836 20.2667 76.9836 15.6 71.117C13.6 68.5836 11.3333 66.4503 10.6667 66.4503C10 66.4503 7.33333 68.317 4.66667 70.5836Z" fill="#001A23"/>
<path d="M303.733 67.3837C304.667 67.7837 305.867 67.6503 306.267 67.2503C306.8 66.8503 306 66.4503 304.533 66.5837C303.067 66.5837 302.667 66.9837 303.733 67.3837Z" fill="#001A23"/>
<path d="M298.4 68.717C299.333 69.117 300.533 68.9836 300.933 68.5836C301.467 68.1836 300.667 67.7836 299.2 67.917C297.733 67.917 297.333 68.317 298.4 68.717Z" fill="#001A23"/>
<path d="M178.667 71.117C176.533 73.6503 177.867 77.117 181.2 77.117C184.533 77.117 185.733 73.6503 183.2 71.117C180.667 68.717 180.667 68.717 178.667 71.117Z" fill="#001A23"/>
<path d="M394.667 73.517C387.733 78.8503 386.133 87.517 391.067 93.2503C396.8 100.05 402.933 103.25 431.067 113.784C460.133 124.717 460.933 136.184 433.333 145.384L426 147.784L432.667 146.984C447.333 145.25 459.6 139.65 464 132.584C467.6 126.584 467.467 120.317 463.467 115.117C459.867 110.317 446.4 102.984 433.333 98.4503C414.133 91.7836 401.733 83.7836 398.267 75.517C396.933 72.5836 396.267 72.1836 394.667 73.517Z" fill="#001A23"/>
<path d="M83.8666 75.517C80.9333 78.0503 80.9333 78.0503 83.4666 81.517C86.5333 85.6503 88.1333 85.917 91.0666 82.717C94 79.517 93.8666 78.0503 90.9333 75.3836C87.8666 72.5836 87.6 72.5836 83.8666 75.517Z" fill="#001A23"/>
<path d="M296 74.9836C296 75.3836 297.2 76.317 298.667 77.117C300.133 77.917 301.333 78.1836 301.333 77.917C301.333 77.517 300.133 76.5836 298.667 75.7836C297.2 74.9836 296 74.717 296 74.9836Z" fill="#001A23"/>
<path d="M192.133 77.6503C190 80.1837 190.667 83.7837 193.733 85.6503C197.067 87.7837 200.667 85.117 200.667 80.317C200.667 77.117 200 76.317 197.2 76.0503C195.333 75.7837 193.067 76.5837 192.133 77.6503Z" fill="#001A23"/>
<path d="M76.2667 78.717C73.8667 81.117 74.4 82.717 78.6667 87.3836C83.0667 92.1836 84 92.5836 86.4 90.1836C87.6 88.9836 87.2 88.317 85.0667 87.2503C83.6 86.4503 81.2 83.917 80 81.517C78.2667 78.317 77.3334 77.6503 76.2667 78.717Z" fill="#001A23"/>
<path d="M296 83.7837C296.8 85.2503 297.733 86.4503 298.133 86.4503C298.4 86.4503 298.133 85.2503 297.333 83.7837C296.533 82.317 295.6 81.117 295.2 81.117C294.933 81.117 295.2 82.317 296 83.7837Z" fill="#001A23"/>
<path d="M740.933 82.0503C740.4 82.4503 740 86.4503 740 90.717V98.4503H748H756V89.7837V81.117H748.933C744.933 81.117 741.333 81.517 740.933 82.0503ZM753.333 89.7837V95.7837H748H742.667V89.7837V83.7836H748H753.333V89.7837Z" fill="#001A23"/>
<path d="M468 115.117V147.784H483.333H498.667L498.4 125.517L498 103.384L488.667 96.0503C479.067 88.717 469.867 82.4503 468.667 82.4503C468.267 82.4503 468 97.117 468 115.117Z" fill="#001A23"/>
<path d="M297.867 89.7836C297.333 90.9836 297.333 92.1836 297.733 92.717C298.133 93.117 297.067 96.4503 295.2 100.05C293.333 103.784 292 106.984 292.4 107.25C292.667 107.517 294.267 104.717 296 101.117C299.467 93.7836 300.4 93.2503 304.533 96.717C307.2 98.9836 307.2 98.9836 305.333 96.5836C304.267 95.2503 303.467 92.8503 303.333 91.3836C303.333 87.917 299.067 86.717 297.867 89.7836Z" fill="#001A23"/>
<path d="M306.667 92.8503C307.733 93.517 310.133 94.5836 312 94.9836C314.267 95.6503 314.667 95.517 313.333 94.717C312.267 94.0503 309.867 92.9836 308 92.5836C305.733 91.917 305.333 92.0503 306.667 92.8503Z" fill="#001A23"/>
<path d="M107.067 96.5836C101.867 100.584 101.733 101.384 105.6 106.45C109.2 111.384 110.533 111.384 115.333 106.45L119.067 102.584L115.467 97.7836C113.467 95.2503 111.733 93.117 111.6 93.117C111.467 93.117 109.333 94.717 107.067 96.5836Z" fill="#001A23"/>
<path d="M317.333 97.117C318.4 97.7837 320 98.4503 320.667 98.4503C321.467 98.4503 321.067 97.7837 320 97.117C318.933 96.4503 317.467 95.7837 316.667 95.7837C316 95.7837 316.267 96.4503 317.333 97.117Z" fill="#001A23"/>
<path d="M31.6 100.717C28.9334 102.85 26.8 105.25 26.6667 106.317C26.6667 108.85 33.0667 117.117 35.0667 117.117C36 116.984 38.6667 115.25 41.0667 113.25C46.2667 108.85 46.1334 106.317 40.2667 100.717L36.5334 97.117L31.6 100.717Z" fill="#001A23"/>
<path d="M740.933 107.384C740.4 107.784 740 111.117 740 114.717C740 119.384 740.533 121.384 742 122.05C743.2 122.45 744.533 122.317 745.067 121.784C745.6 121.25 745.2 120.45 744.4 120.184C742.533 119.517 742 109.117 743.733 109.117C744.267 109.117 746.4 112.184 748.667 115.784C754 124.85 756 124.45 756 114.45C756 108.45 755.467 106.45 754.133 106.45C752.667 106.45 752.4 107.784 752.933 111.784C753.333 114.717 753.333 117.117 753.067 117.117C752.667 117.117 750.8 114.717 748.8 111.784C745.467 106.717 742.933 105.25 740.933 107.384Z" fill="#001A23"/>
<path d="M391.733 114.05C388.4 122.05 387.2 136.45 389.6 141.117C390.667 143.117 393.6 145.25 396.8 146.317C401.6 148.05 403.333 148.05 410.8 146.184C415.467 144.984 421.2 143.25 423.333 142.317C427.2 140.584 427.2 140.584 418.667 139.784C408.267 138.85 403.067 136.584 399.2 130.85C396 125.917 394.133 116.45 395.467 111.25C396.8 105.65 394.8 107.25 391.733 114.05Z" fill="#001A23"/>
<path d="M305.067 110.05C305.867 110.317 307.467 110.317 308.4 110.05C309.2 109.65 308.533 109.384 306.667 109.384C304.8 109.384 304.133 109.65 305.067 110.05Z" fill="#001A23"/>
<path d="M299.733 111.384C300.667 111.784 301.867 111.65 302.267 111.25C302.8 110.85 302 110.45 300.533 110.584C299.067 110.584 298.667 110.984 299.733 111.384Z" fill="#001A23"/>
<path d="M81.2 118.184L76.9333 122.05L80 126.184C83.7333 131.25 84.8 131.384 89.7333 127.117L93.4667 123.784L89.8667 119.117C88 116.584 86.1333 114.45 85.8667 114.45C85.6 114.45 83.4667 116.184 81.2 118.184Z" fill="#001A23"/>
<path d="M57.4667 118.584L54.2667 121.25L57.3333 124.45C59.7333 126.984 60.9333 127.384 62.9333 126.317C66.6667 124.317 67.3333 121.384 64.6667 118.45C61.7333 115.25 61.4667 115.25 57.4667 118.584Z" fill="#001A23"/>
<path d="M310.267 118.85C308.4 121.784 308.4 121.917 311.733 121.784C315.733 121.784 316.933 119.517 314.267 117.25C312.667 116.05 311.867 116.317 310.267 118.85Z" fill="#001A23"/>
<path d="M100 119.784L96.6667 122.317L99.6 125.25C101.333 126.984 103.333 127.784 104.533 127.384C108 126.05 108.667 122.45 105.867 119.784C103.333 117.25 103.2 117.25 100 119.784Z" fill="#001A23"/>
<path d="M309.733 137.917C310.133 138.45 310 139.917 309.333 141.117C307.733 144.05 310.933 147.117 314.133 145.917C317.2 144.717 315.867 139.65 312 138.184C310.267 137.517 309.2 137.384 309.733 137.917Z" fill="#001A23"/>
<path d="M415.333 171.25C413.333 174.584 412.133 177.784 412.667 178.184C413.2 178.717 414 178.317 414.267 177.384C415.067 175.517 424.8 175.25 426 177.117C426.4 177.784 427.467 178.45 428.133 178.45C428.933 178.45 427.867 175.517 425.733 171.784C423.733 168.184 421.333 165.117 420.4 165.117C419.6 165.117 417.333 167.917 415.333 171.25ZM422.667 172.717C422.667 173.65 421.467 174.45 420 174.45C416.933 174.45 416.8 173.917 418.8 170.184C420 167.917 420.533 167.784 421.467 169.25C422.133 170.317 422.667 171.917 422.667 172.717Z" fill="#001A23"/>
<path d="M434.667 171.784V178.45L441.733 178.317C448.533 178.05 448.533 178.05 443.333 177.25C438.133 176.45 438 176.317 437.6 170.717C437.067 162.85 434.667 163.65 434.667 171.784Z" fill="#001A23"/>
<path d="M454.667 171.784V178.45L461.733 178.184C468.4 178.05 468.4 177.917 463.067 177.517L457.333 176.984V170.984C457.333 167.784 456.8 165.117 456 165.117C455.333 165.117 454.667 168.05 454.667 171.784Z" fill="#001A23"/>
<path d="M484 171.784C484 175.384 484.667 178.45 485.333 178.45C486.133 178.45 486.667 175.384 486.667 171.784C486.667 168.05 486.133 165.117 485.333 165.117C484.667 165.117 484 168.05 484 171.784Z" fill="#001A23"/>
<path d="M494.667 171.784C494.667 175.384 495.333 178.45 496 178.45C496.8 178.45 497.333 176.317 497.333 173.65V168.984L503.2 173.65C506.267 176.317 509.333 178.45 509.867 178.45C510.267 178.45 510.667 175.384 510.667 171.784C510.667 168.05 510.133 165.117 509.333 165.117C508.667 165.117 508 167.25 508 169.917V174.717L502.4 169.917C499.333 167.25 496.4 165.117 495.733 165.117C495.2 165.117 494.667 168.05 494.667 171.784Z" fill="#001A23"/>
<path d="M518.667 171.784V178.45H526C531.733 178.45 533.467 177.917 534.667 175.917C538.133 169.25 534.533 165.117 525.2 165.117H518.667V171.784ZM531.333 168.584C534.267 171.517 533.333 174.85 529.2 176.317C524.133 178.05 521.333 176.584 521.333 172.05C521.333 169.917 521.733 167.784 522.267 167.384C523.867 165.65 529.067 166.45 531.333 168.584Z" fill="#001A23"/>
<path d="M542.667 171.784C542.667 175.384 543.333 178.45 544 178.45C544.8 178.45 545.333 175.384 545.333 171.784C545.333 168.05 544.8 165.117 544 165.117C543.333 165.117 542.667 168.05 542.667 171.784Z" fill="#001A23"/>
<path d="M557.733 166.717C554.933 170.184 551.867 177.384 552.8 178.184C553.333 178.717 554 178.317 554.267 177.384C555.067 175.517 565.333 175.117 565.333 177.117C565.333 177.784 566.267 178.45 567.333 178.45C568.8 178.45 568.4 176.984 565.6 172.184C561.6 165.384 559.733 164.184 557.733 166.717ZM561.867 169.917C563.2 173.384 562.8 174.45 560 174.45C558.533 174.45 557.333 173.917 557.333 173.25C557.333 170.984 558.933 167.784 560 167.784C560.533 167.784 561.467 168.717 561.867 169.917Z" fill="#001A23"/>
<path d="M585.333 171.784C585.333 175.384 586 178.45 586.667 178.45C587.467 178.45 588 176.45 588 174.05L588.133 169.784L591.333 173.384L594.533 177.117L597.867 172.717L601.333 168.45V173.384C601.333 176.184 602 178.45 602.667 178.45C603.467 178.45 604 175.384 604 171.784C604 168.05 603.467 165.117 602.8 165.117C602.133 165.117 600 167.117 598.133 169.384L594.667 173.784L591.2 169.384C589.333 167.117 587.2 165.117 586.533 165.117C585.867 165.117 585.333 168.05 585.333 171.784Z" fill="#001A23"/>
<path d="M611.2 166.984C610.8 168.05 610.667 170.85 610.933 173.384C611.333 177.65 611.467 177.784 617.867 178.184C621.467 178.45 624.933 178.05 625.733 177.25C627.867 175.117 625.733 173.784 623.467 175.65C622.4 176.584 619.867 177.117 617.733 176.85C614.4 176.45 614 175.917 614 171.784C614 167.65 614.4 167.117 617.867 166.717C620 166.45 622.267 166.85 623.067 167.65C625.2 169.784 626.667 169.384 625.867 167.117C624.8 164.45 612.267 164.317 611.2 166.984Z" fill="#001A23"/>
<path d="M638.267 166.05C634 173.117 632 177.65 632.8 178.317C633.333 178.717 634 178.317 634.267 177.384C635.067 175.384 644.933 175.25 645.6 177.25C645.867 178.184 646.933 178.584 647.733 178.317C648.933 177.917 648.133 175.784 645.467 171.384C641.6 165.384 639.6 163.917 638.267 166.05ZM641.867 169.917C643.067 173.25 642.8 174.45 640.8 174.45C638.267 174.45 637.067 172.584 638.133 169.917C639.2 167.25 640.8 167.25 641.867 169.917Z" fill="#001A23"/>
<path d="M665.333 171.784C665.333 175.384 666 178.45 666.667 178.45C667.467 178.45 668 176.184 668 173.384V168.45L671.467 172.85L674.933 177.25L678.133 172.984L681.333 168.584V173.517C681.333 176.184 682 178.45 682.667 178.45C683.467 178.45 684 175.384 684 171.784C684 164.184 682.667 163.517 678.667 169.117C677.067 171.25 675.467 173.117 674.933 173.117C674.4 173.117 672.8 171.25 671.333 169.117C667.333 163.117 665.333 164.05 665.333 171.784Z" fill="#001A23"/>
<path d="M692 171.784V178.45L699.733 178.184C707.2 177.917 707.2 177.917 701.067 177.517C696.533 177.117 694.667 176.45 694.667 174.984C694.667 173.917 696 173.117 698 173.117C699.867 173.117 701.333 172.45 701.333 171.784C701.333 170.984 699.867 170.45 698 170.45C696 170.45 694.667 169.65 694.667 168.584C694.667 167.117 696.533 166.45 701.067 166.05C707.2 165.65 707.2 165.65 699.733 165.384L692 165.117V171.784Z" fill="#001A23"/>
<path d="M713.333 171.784V178.45L720.4 178.184C727.067 178.05 727.067 177.917 721.733 177.517C715.333 176.85 713.333 173.117 719.333 173.117C721.2 173.117 722.667 172.45 722.667 171.784C722.667 170.984 721.2 170.45 719.333 170.45C713.333 170.45 715.333 166.717 721.733 166.05C727.067 165.65 727.067 165.517 720.4 165.384L713.333 165.117V171.784Z" fill="#001A23"/>
<path d="M733.333 166.317C736.133 167.117 736.8 168.184 737.067 172.85C737.333 175.917 738 178.45 738.667 178.45C739.333 178.45 740 175.917 740.267 172.85C740.533 168.184 741.2 167.117 744 166.317C746.133 165.784 744.133 165.384 738.667 165.384C733.2 165.384 731.2 165.784 733.333 166.317Z" fill="#001A23"/>
</svg>
