<svg width="828" height="960" viewBox="0 0 828 960" fill="none" xmlns="http://www.w3.org/2000/svg">
<path d="M366.012 311.033C357.567 310.651 349.118 310.328 340.677 309.854C337.679 309.685 335.798 310.216 334.915 313.664C327.932 340.94 320.813 368.181 313.633 395.406C299.238 449.987 284.776 504.551 270.356 559.125C270.103 560.083 270.019 561.086 269.56 562.751C269.103 564.25 268.986 565.077 268.774 565.878C259.331 601.561 249.887 637.243 240.427 672.921C234.662 694.662 228.871 716.397 222.828 737.99C222.09 737.217 221.618 736.587 221.157 735.558C221.255 734.513 221.302 733.858 221.434 733.222C223.25 724.48 225.077 715.742 226.902 707.002C226.902 707.002 227.029 706.605 227.358 706.148C228.496 701.486 229.306 697.282 230.116 693.078C230.116 693.078 230.077 693.001 230.368 692.858C230.741 691.821 230.823 690.928 230.904 690.035C230.904 690.035 231.026 689.614 231.347 689.141C234.067 677.781 236.466 666.894 238.864 656.006C238.935 655.603 239.007 655.2 239.392 654.24C240.171 651.142 240.636 648.601 241.1 646.06C241.1 646.06 241.045 645.994 241.339 645.846C241.709 644.815 241.786 643.932 241.862 643.049C241.929 642.642 241.997 642.234 242.336 641.33C242.721 640.227 242.834 639.622 242.947 639.016C242.999 638.586 243.051 638.156 243.43 637.165C244.129 634.403 244.502 632.202 244.875 630C244.875 630 245.002 629.578 245.333 629.109C247.084 622.1 248.503 615.56 249.922 609.02C249.967 608.584 250.012 608.149 250.387 607.14C252.1 600.047 253.484 593.526 254.867 587.005C254.867 587.005 254.995 586.58 255.288 586.181C255.728 585.185 255.874 584.587 256.02 583.99C256.046 583.261 256.072 582.532 256.418 581.214C256.862 579.44 256.986 578.254 257.11 577.068C257.11 577.068 257.055 577.014 257.287 576.954C257.667 576.599 257.815 576.304 257.963 576.009C258.021 574.957 258.078 573.904 258.468 572.228C259.161 569.412 259.521 567.221 259.881 565.03C259.881 565.03 260.007 564.599 260.293 564.2C260.686 563.211 260.792 562.622 260.897 562.033C260.952 561.325 261.007 560.616 261.371 559.305C262.826 553.161 263.972 547.62 265.117 542.08C265.117 542.08 265.089 541.999 265.4 541.816C266.028 540.376 266.379 539.126 266.658 537.86C269.141 526.591 271.611 515.32 274.084 504.049C274.084 504.049 274.028 504.003 274.268 503.936C274.672 503.579 274.837 503.29 275.001 503C275.035 502.263 275.069 501.525 275.406 500.165C277.427 491.364 279.145 483.186 280.863 475.007C280.929 474.614 280.995 474.221 281.3 473.387C281.699 472.628 281.858 472.31 282.018 471.992C282.03 471.285 282.042 470.578 282.34 469.306C282.708 467.844 282.791 466.945 282.873 466.047C282.873 466.047 283.005 465.606 283.311 465.168C283.704 463.835 283.792 462.94 283.879 462.044C283.963 461.606 284.047 461.167 284.464 460.15C285.483 456.05 286.168 452.529 286.853 449.007C286.853 449.007 286.974 448.562 287.274 448.165C287.723 447.175 287.87 446.583 288.018 445.991C288.037 445.554 288.055 445.118 288.383 444.122C289.09 441.385 289.489 439.207 289.888 437.028C289.933 436.608 289.978 436.188 290.299 435.28C290.68 434.205 290.785 433.62 290.89 433.035C290.946 432.322 291.002 431.609 291.331 430.359C291.712 429.222 291.82 428.623 291.928 428.023C291.974 427.588 292.021 427.154 292.359 426.227C292.74 425.157 292.828 424.58 292.917 424.004C292.975 423.32 293.032 422.637 293.311 421.465C293.658 420.659 293.784 420.341 293.91 420.023C293.934 419.572 293.958 419.121 294.146 418.015C294.577 415.93 294.845 414.5 295.112 413.07C295.112 413.07 295.068 412.998 295.383 412.815C296.757 407.422 297.816 402.211 298.874 397C299.257 395.615 299.64 394.229 300.344 392.232C301.398 387.748 302.131 383.876 302.864 380.004C302.864 380.004 302.992 379.577 303.307 379.148C303.734 377.818 303.845 376.917 303.956 376.016C304.004 375.585 304.052 375.155 304.416 374.187C305.164 372.1 305.596 370.549 306.028 368.998C306.06 368.264 306.093 367.531 306.427 366.18C307.447 361.71 308.166 357.858 308.885 354.006C308.885 354.006 309.009 353.594 309.252 353.251C309.643 352.611 309.791 352.314 309.938 352.017C309.991 350.97 310.044 349.922 310.42 348.254C311.138 345.755 311.534 343.879 311.929 342.002C311.976 341.565 312.023 341.128 312.41 340.109C314.91 329.517 317.068 319.507 319.313 309.094C314.585 309.094 310.792 309.094 307 309.094C306.298 309.037 305.596 308.979 304.267 308.616C301.446 308.255 299.252 308.199 297.057 308.144C294.998 308.087 292.938 308.031 290.029 307.921C285.256 307.532 281.329 307.234 277.411 306.853C267.598 305.899 257.788 304.907 247.977 303.93C247.523 303.958 247.068 303.986 245.855 304.015C242.006 303.67 238.912 303.351 235.827 302.971C228.382 302.054 220.944 301.074 213.495 300.186C207.353 299.454 201.199 298.817 195.05 298.137C194.594 298.091 194.138 298.044 192.999 297.832C189.543 297.099 186.77 296.531 183.997 295.964C182.946 295.951 181.896 295.938 180.223 295.607C178.401 295.241 177.203 295.193 176.004 295.144C175.593 295.085 175.181 295.025 174.193 294.644C170.094 293.85 166.571 293.38 163.049 292.909C163.049 292.909 162.995 292.971 162.842 292.668C161.797 292.258 160.906 292.152 160.016 292.045C159.287 291.991 158.558 291.936 157.219 291.566C154.407 290.851 152.204 290.453 150.002 290.055C149.573 290.013 149.144 289.97 148.151 289.603C144.391 288.499 141.194 287.721 137.996 286.943C137.58 286.937 137.164 286.932 136.314 286.713C135.587 286.335 135.293 286.17 135 286.005C134.569 285.974 134.138 285.943 133.153 285.605C128.756 284.161 124.912 283.023 121.068 281.884C121.068 281.884 121.016 281.942 120.961 281.713C120.612 281.354 120.318 281.224 120.024 281.094C119.632 281.036 119.239 280.978 118.339 280.639C116.572 279.875 115.311 279.392 114.051 278.91C114.051 278.91 113.999 278.975 113.891 278.684C113.207 278.217 112.63 278.041 112.052 277.865C112.052 277.865 112.014 277.964 111.871 277.636C106.229 273.405 100.392 269.89 95.3402 265.476C91.4885 262.112 91.7873 257.925 95.8271 254.751C99.6973 251.71 104.029 248.954 108.583 247.136C130.52 238.376 153.674 234.307 176.897 231.212C204.877 227.482 232.973 224.481 261.09 221.965C288.725 219.492 316.436 217.774 344.14 216.192C364.565 215.025 385.033 214.637 405.478 213.82C407.883 213.724 410.266 213.112 412.659 212.74C326.08 210.455 239.81 212.424 152.847 228.527C155.349 220.903 156.762 214.533 159.475 208.775C164.346 198.441 170.606 188.787 181.286 183.595C189.04 179.826 197.147 176.435 205.455 174.218C231.935 167.152 258.511 160.408 285.197 154.172C297.288 151.346 309.727 150.01 322.054 148.336C322.083 149.128 322.065 149.582 321.653 150.053C303.631 155.521 285.798 160.405 268.455 166.647C258.858 170.101 249.794 175.367 241.083 180.772C237.879 182.761 234.464 187.557 234.563 190.973C234.707 195.938 240.566 196.928 244.902 197.97C262.867 202.288 281.189 202.462 299.492 201.983C327.261 201.255 355.013 199.714 382.784 199.284C406.245 198.921 429.725 199.555 453.195 199.922C469.337 200.175 485.474 200.972 501.616 201.087C523.894 201.246 546.179 201.2 568.453 200.776C574.527 200.661 580.642 199.177 586.602 197.753C590.552 196.81 596.152 195.633 596.041 191.046C595.955 187.498 592.732 183.042 589.609 180.763C583.752 176.49 577.294 172.546 570.492 170.156C550.139 163.007 529.499 156.674 508.937 149.625C508.906 148.693 508.91 148.159 509.327 147.701C514.776 148.574 519.827 149.299 524.849 150.178C557.792 155.944 590.504 162.79 622.306 173.257C632.509 176.615 642.976 180.328 651.935 186.05C667.196 195.794 674.511 211.334 677.76 228.849C678.87 234.838 679.862 235.547 687.183 235.148C685.043 217.764 677.101 203.516 664.67 191.414C691.204 201.434 714.998 215.714 736.283 234.377C734.208 230.823 731.863 227.64 729.139 224.822C714.498 209.679 696.881 198.631 678.47 188.824C642.855 169.853 604.961 157.014 565.886 147.339C519.68 135.898 472.726 130.201 425.222 129.282C406.952 128.929 388.606 129.711 370.371 131.033C350.5 132.473 330.607 134.412 310.922 137.43C274.193 143.061 238.218 152.008 203.339 165.022C172.661 176.469 142.836 189.725 116.992 210.222C108.786 216.73 102.187 225.263 94.6696 232.983C94.5306 233.33 94.575 233.564 94.6194 233.798C94.8261 233.614 95.0328 233.43 95.5834 233.196C97.2919 232.206 98.7737 231.399 100.004 230.308C115.84 216.265 133.642 205.321 152.901 196.671C156.341 195.126 159.836 193.7 163.305 192.219C163.158 193.861 162.576 194.639 161.92 195.35C153.852 204.094 148.147 214.152 145.68 225.818C144.906 229.477 143.183 231.016 139.643 231.754C134.279 232.873 128.849 234.1 123.781 236.118C114.394 239.855 104.83 243.471 96.1166 248.486C86.686 253.913 86.3848 262.021 93.9888 269.93C94.6238 270.591 95.1898 271.318 95.7878 272.014C93.7057 272.178 92.0672 271.582 90.633 270.667C87.7362 268.818 84.9504 266.795 82.1189 264.843C82.1189 264.843 82.0549 264.886 82.0004 264.645C81.6613 264.162 81.3768 263.921 81.0922 263.681C81.0922 263.681 81.1344 263.343 81.0248 262.915C80.6208 262.284 80.3263 262.081 80.0319 261.877C79.5961 261.304 79.1603 260.731 78.4042 259.69C77.4095 257.763 76.7351 256.305 76.0607 254.846C76.0607 254.846 76.0163 254.403 76.0009 253.765C75.9518 251.418 75.9182 249.71 75.8845 248.002C75.9337 247.587 75.9829 247.172 76.3442 246.202C77.1483 243.125 77.6402 240.603 78.1321 238.08C78.1321 238.08 78.0775 238.024 78.3066 237.968C78.6716 237.613 78.8073 237.313 78.9429 237.013C78.9429 237.013 79.0244 236.591 79.2776 236.247C79.7065 235.595 79.882 235.288 80.0575 234.981C80.0575 234.981 80.1434 234.648 80.3535 234.315C80.724 233.649 80.8845 233.317 81.045 232.984C81.045 232.984 81.1464 232.649 81.4149 232.257C88.5187 223.613 95.3541 215.361 102.189 207.108C102.636 206.821 103.083 206.534 104.022 206.071C104.709 205.615 104.904 205.335 105.098 205.056C105.098 205.056 105.021 205.021 105.285 204.971C105.724 204.625 105.9 204.328 106.076 204.031C106.076 204.031 106.003 204.018 106.319 203.904C107.179 202.892 107.721 201.995 108.264 201.097C112.459 198.596 116.813 196.326 120.82 193.553C137.352 182.114 155.256 173.266 173.539 165.08C175.299 164.291 177.551 162.773 177.996 161.158C182.69 144.139 194.981 133.534 208.756 124.203C232.135 108.367 258.111 98.2309 284.94 90.0909C288.391 89.0439 290.306 87.1842 290.998 83.8544C294.277 68.062 301.88 54.4702 312.569 42.6277C331.065 22.1364 354.524 10.1094 381.161 4.31778C418.851 -3.87715 455.274 0.279266 489.03 19.2671C512.688 32.5746 531.08 51.4905 538.836 78.3374C541.289 86.8266 545.069 90.8333 553.616 93.4465C578.123 100.939 601.49 111.347 622.693 126.018C633.817 133.715 644.201 142.249 650.32 154.809C650.538 155.257 650.955 155.692 650.971 156.144C651.285 164.752 657.778 166.991 664.269 169.898C684.332 178.881 703.383 189.776 720.869 203.111C733.333 212.616 744.901 223.342 751.235 238.101C753.576 243.555 754.553 249.896 754.769 255.882C755.024 262.98 749.231 267.25 744.128 270.667C733.624 277.7 721.754 281.954 709.482 284.974C699.413 287.452 689.388 290.144 679.244 292.272C668.799 294.464 658.265 296.279 647.716 297.909C635.693 299.767 623.63 301.398 611.548 302.821C603.194 303.805 594.775 304.222 586.392 304.976C576.057 305.906 565.738 307.046 555.394 307.858C547.968 308.441 540.512 308.621 533.071 309.01C526.159 309.373 519.249 309.775 511.739 310.193C513.613 318.569 515.33 326.442 517.141 334.294C523.091 360.092 529.041 385.89 535.054 411.673C541.322 438.549 547.721 465.394 553.959 492.276C566.342 545.641 578.653 599.023 591 652.396C591.224 653.363 591.526 654.311 591.663 655.756C591.392 656.568 591.495 656.811 591.843 656.972C592.154 657.795 592.465 658.618 592.552 660.009C592.778 661.717 593.229 662.857 593.679 663.996C593.752 664.447 593.825 664.898 593.737 665.799C593.719 666.499 593.863 666.748 594.007 666.996C594.007 666.996 594 667 593.999 667.362C594.322 668.817 594.646 669.91 594.97 671.004C595.275 671.799 595.58 672.594 595.625 673.913C594.015 674.623 592.665 674.809 591.316 674.994C591.271 674.535 591.227 674.076 591.41 673.009C591.661 671.431 591.911 670.401 591.672 669.5C588.566 657.765 585.454 646.03 582.169 634.343C581.634 632.442 580.257 630.777 579.269 629.002C579.224 628.549 579.178 628.096 579.339 627.063C578.466 623.656 577.388 620.829 576.31 618.003C576.265 617.544 576.22 617.085 576.397 616.021C575.612 612.283 574.604 609.15 573.596 606.018C573.447 605.574 573.297 605.129 573.341 604.111C572.784 602.024 572.036 600.51 571.287 598.997C571.246 598.54 571.206 598.083 571.386 597.04C570.602 593.312 569.597 590.17 568.592 587.028C568.441 586.579 568.289 586.131 567.998 585.154C567.735 584.394 567.561 584.21 567.336 584.074C567.302 583.589 567.269 583.104 567.445 582.014C566.866 579.606 566.076 577.803 565.286 576.001C565.243 575.545 565.201 575.089 565.333 574.124C565.087 573.077 564.665 572.538 564.244 571.999C564.198 571.551 564.152 571.102 564.331 570.077C562.595 560.867 560.677 552.222 558.593 543.618C558.427 542.935 557.104 542.532 556.32 541.999C556.293 541.522 556.267 541.045 556.476 539.964C556.165 538.23 555.62 537.1 555.074 535.971C555.074 535.971 555.017 536.001 554.921 535.785C554.665 535.334 554.457 535.157 554.199 535.039C549.05 515.169 543.963 495.284 538.735 475.435C532.589 452.098 526.313 428.795 520.107 405.474C513.943 382.313 507.781 359.151 501.653 335.981C499.888 329.309 497.996 322.654 496.644 315.895C495.879 312.069 494.318 310.416 490.372 310.951C488.245 311.238 486.051 311.027 483.071 310.927C475.188 310.936 468.123 311.058 461.057 311.18C459.311 311.154 457.565 311.129 455.071 311.092C453.899 311.132 453.474 311.183 453.049 311.234C446.008 311.244 438.966 311.253 431.014 311.241C425.733 311.298 421.362 311.378 416.991 311.457C407.291 311.326 397.591 311.195 386.964 311.033C379.363 311.012 372.688 311.022 366.012 311.033ZM619.224 250.519C619.828 250.362 620.431 250.205 621.53 249.536C622.886 244.399 618.382 243.72 615.695 243.409C606.017 242.29 596.255 241.874 586.515 241.36C584.742 241.266 582.904 241.866 581.139 242.316C579.421 242.755 577.759 243.412 576.072 243.973C588.327 242.112 600.369 241.788 612.232 245.084C614.751 245.784 616.763 248.312 619.224 250.519ZM213.871 246.52C220.164 241.593 227.812 241.523 235.146 241.226C241.683 240.962 248.272 242.011 254.838 242.481C250.45 241.149 245.919 239.538 241.45 239.698C232.432 240.02 223.365 240.83 214.483 242.38C209.583 243.235 209.205 245.561 212.4 249.623C213.796 250.449 215.192 251.275 216.157 251.846C227.719 242.379 240.747 246.939 253.142 246.043C249.928 245.113 246.626 244.146 243.297 244.044C233.215 243.736 223.058 243.143 213.871 246.52ZM368.276 17.9758C366.559 18.8808 364.335 19.3741 363.207 20.7594C357.143 28.2077 350.726 35.4835 345.622 43.5705C339.15 53.8248 335.063 65.1837 334.573 77.5714C343.069 78.3495 343.914 77.2002 346.04 69.7386C349.026 59.2597 352.304 48.7756 356.608 38.79C359.775 31.4431 364.786 24.8912 369.195 17.8885L369.227 17.622C369.227 17.622 369.017 18.0265 368.276 17.9758ZM341.299 31.0633C321.168 43.8382 307.238 61.1812 300.356 85.5325C305.86 84.3935 309.859 83.4685 313.895 82.7627C316.938 82.2307 318.362 80.5675 318.866 77.5463C321.355 62.6257 327.844 49.5429 337.32 37.8405C339.052 35.7014 340.459 33.2985 342.497 31.0559C342.682 30.7887 342.868 30.5215 343.053 30.2544C342.699 30.4996 342.346 30.7449 341.299 31.0633ZM443.845 261.072C445.199 261.108 446.552 261.144 448.156 261.446C448.469 261.362 448.782 261.277 449.855 261.193C451.615 261.417 453.374 261.64 455.511 262.38C456.666 262.243 457.821 262.106 459.896 261.989C464.156 262.18 468.417 262.37 473.505 262.809C475.096 262.809 476.687 262.809 479.104 262.809C476.255 257.411 473.792 252.747 471.355 248.132C471.643 248.03 472.309 247.796 472.546 247.713C471.295 246.195 470.103 244.749 468.882 243.267C469.664 243.013 470.312 242.802 469.726 242.992C468.764 240.885 467.874 238.936 467.798 237.013C469.152 237.077 470.507 237.141 472.182 237.861C474.788 237.909 477.393 237.958 480.809 238.042C482.158 238.097 483.507 238.152 485.204 238.882C488.82 238.961 492.436 239.04 496.867 239.157C498.841 239.433 500.838 239.597 502.786 240.001C516.914 242.934 531.058 245.803 545.133 248.975C548.021 249.626 550.641 251.468 553.92 253.013C547.294 260.96 540.953 267.808 535.516 275.31C530.518 282.207 523.708 285.218 515.932 287.017C514.153 287.429 512.36 287.787 510.567 288.134C506.843 288.852 506.178 290.6 509.362 294.447C516.836 291.647 524.83 289.315 532.135 285.622C535.524 283.908 537.489 279.47 540.25 276.402C545.371 270.712 550.693 265.202 555.761 259.467C560.752 253.819 559.852 248.186 553.154 244.733C549.202 242.695 544.908 241.063 540.581 240.05C510.315 232.963 479.398 231.212 448.521 230.363C421.085 229.608 393.568 229.932 366.144 231.115C343.777 232.08 321.431 234.523 299.208 237.347C291.386 238.341 283.541 241.624 276.481 245.334C271.192 248.113 271.462 253.477 275.497 258.046C281.662 265.027 288.337 271.635 293.801 279.127C297.162 283.735 300.869 286.941 306.132 288.539C310.425 289.843 314.754 291.03 319.093 292.175C321.221 292.737 324.076 294.273 324.513 290.585C324.627 289.622 321.958 287.586 320.336 287.282C310.058 285.359 301.079 281.83 294.796 272.589C289.989 265.518 284.033 259.229 278.402 252.367C279.536 251.481 280.101 250.862 280.801 250.519C292.794 244.646 305.816 242.78 318.837 241.07C319.904 240.93 321.979 242.746 322.359 244.019C324.781 252.128 330.632 257.55 336.589 262.91C337.284 263.536 338.468 263.619 338.982 263.799C338.982 256.253 338.768 249.057 339.171 241.896C339.247 240.542 341.672 238.361 343.184 238.203C352.402 237.236 361.669 236.744 370.851 236.758C368.311 238.428 365.772 240.098 363.223 241.774C364.464 241.918 365.736 242.067 366.554 242.162C364.493 243.591 362.312 245.105 360.11 246.632C361.098 246.88 362.066 247.123 361.842 247.066C359.84 250.352 357.822 253.664 355.855 256.894C355.765 256.861 356.362 257.077 356.959 257.292C356.62 256.93 356.28 256.569 355.94 256.207C354.503 257.28 353.066 258.353 351.629 259.426C352.321 260.269 353.013 261.112 353.705 261.955C355.825 261.955 357.946 261.955 360.938 261.978C362.976 261.962 365.015 261.946 367.529 262.419C369.095 262.078 370.661 261.737 373.072 261.288C375.364 261.23 377.657 261.172 380.625 261.589C387.076 261.307 393.528 261.026 400.916 260.777C406.288 260.737 411.66 260.697 417.563 261.315C426.053 261.232 434.543 261.148 443.845 261.072ZM591.766 122.935C605.126 129.568 618.486 136.201 631.461 142.642C631.225 142.38 630.71 141.496 629.944 140.999C617.547 132.958 605.759 123.66 592.583 117.193C541.895 92.3133 487.625 81.2068 431.544 79.3764C409.004 78.6407 386.293 80.1242 363.787 82.0722C327.816 85.1857 292.957 93.6878 259.344 107.047C239.919 114.767 221.249 123.89 204.918 137.139C200.279 140.902 196.26 145.429 191.957 149.606C192.318 150.031 192.679 150.455 193.041 150.88C206.681 138.755 222.153 129.78 240.39 122.517C234.032 129.776 229.582 136.507 227.718 144.815C231.961 145.2 233.549 143.299 234.769 139.797C238.931 127.855 245.955 118.704 258.526 114C285.954 103.738 314.453 98.074 343.127 92.9841C345.416 92.5777 347.717 92.2294 350.017 91.8887C352.22 91.5623 354.43 91.2809 355.287 91.1639C339.422 96.5362 322.359 102.085 305.491 108.171C300.723 109.892 296.244 112.805 292.129 115.843C286.432 120.05 287.13 124.585 293.805 126.563C297.493 127.656 301.673 127.86 305.533 127.475C332.141 124.823 358.667 120.871 385.333 119.4C408.056 118.145 430.976 118.862 453.725 120.16C474.927 121.369 496.031 124.393 517.154 126.829C524.598 127.687 531.961 129.451 539.235 126.042C543.285 124.144 544.169 121.686 541.453 118.246C540.038 116.454 538.243 114.725 536.248 113.673C530.373 110.574 524.511 107.269 518.284 105.059C505.321 100.458 492.126 96.5108 479.026 92.2948C485.899 92.6868 492.7 93.7303 499.463 94.979C523.364 99.3917 547.03 104.675 569.982 112.907C583.765 117.85 592.436 127.381 596.871 140.997C598.023 144.535 599.9 146.27 603.999 146.17C602.348 136.758 596.435 130.01 591 122.999C591 122.999 591.01 122.987 591.766 122.935ZM478.611 75.938C496.151 79.1275 513.691 82.317 531.558 85.566C531.013 83.4926 530.617 81.5548 529.997 79.6919C524.234 62.3957 513.503 48.49 499.387 37.4294C473.74 17.3321 444.188 8.84273 411.788 10.0288C410.004 10.0942 407.457 11.386 406.665 12.8594C402.352 20.8846 397.616 28.849 394.667 37.4003C390.876 48.3883 389.491 59.9535 392.525 71.8855C394.44 71.8855 396.081 71.8807 397.723 71.8862C411.505 71.9328 425.311 71.5001 439.064 72.1688C451.98 72.7969 464.839 74.5892 478.611 75.938ZM448.016 268.41C441.556 267.964 435.094 267.117 428.637 267.152C413.347 267.235 398.029 267.261 382.782 268.241C373.24 268.854 363.744 270.869 354.36 272.875C351.476 273.491 349.029 276.154 346.381 277.88C349.05 279.589 351.552 282.386 354.414 282.824C369.805 285.176 385.239 287.869 400.748 288.654C416.977 289.475 433.335 288.727 449.583 287.77C459.134 287.207 468.636 285.161 478.042 283.21C480.609 282.677 482.747 280.076 485.081 278.425C482.684 276.677 480.497 273.911 477.852 273.363C468.289 271.384 458.571 270.15 448.016 268.41ZM698.186 228.958C702.132 230.265 706.247 231.21 709.993 232.948C719.606 237.41 729.565 241.436 738.411 247.147C745.475 251.708 744.622 256.253 737.521 261.065C726.244 268.707 713.245 272.368 700.238 274.721C663.463 281.374 626.511 287.049 589.62 293.055C582.821 294.162 575.98 295.011 569.158 295.98C569.214 296.488 569.27 296.996 569.326 297.504C590.025 296.034 610.736 294.716 631.419 293.056C658.657 290.869 685.634 286.767 711.8 278.804C721.877 275.737 731.917 271.501 740.846 265.975C751.94 259.109 751.228 249.348 740.424 242.22C729.192 234.808 716.311 232.004 703.48 229.07C702.349 228.811 701.217 228.475 700.069 228.395C699.26 228.338 698.425 228.653 698.186 228.958ZM491.125 296.076C490.955 294.481 490.785 292.886 490.669 291.791C474.097 292.865 458.367 294.403 442.608 294.797C410.159 295.607 377.717 295.228 345.434 291.136C342.195 290.725 339.867 291.378 340.56 296.161C355.839 297.368 371.03 299.217 386.261 299.64C421.032 300.606 455.816 300.657 491.125 296.076ZM235.35 279.835C235.822 280.88 236.09 282.647 236.802 282.849C240.805 283.988 244.881 285.074 249.003 285.507C251.104 285.727 253.353 284.544 255.535 283.995C255.478 283.623 255.42 283.252 255.363 282.88C253.878 282.427 252.394 281.974 250.954 281.535C253.385 280.874 255.803 280.217 258.222 279.559C258.12 279.003 258.017 278.446 257.915 277.89C250.495 276.801 243.068 275.555 235.35 279.835ZM578.137 283.966C578.116 284.635 578.096 285.304 578.075 285.974C581.393 285.961 584.773 286.34 588.01 285.822C591.063 285.334 593.964 283.901 598.252 282.432C589.607 276.323 581.862 277.803 574.152 278.953C574.075 279.622 573.999 280.291 573.922 280.961C578.695 281.522 583.468 282.083 588.241 282.644C588.209 283.071 588.176 283.497 588.143 283.924C585.088 283.924 582.033 283.924 578.137 283.966ZM615.107 248.082C603.467 244.013 591.78 243.921 580.049 247.435C588.264 247.999 596.522 247.552 604.693 248.197C608.495 248.498 612.13 250.919 615.841 252.379C618.323 252.08 618.422 250.363 615.107 248.082ZM237.451 250.037C226.212 250.022 226.212 250.022 223.404 252.626C232.034 253.787 240.289 254.959 248.451 252.441C248.474 251.883 248.497 251.325 248.52 250.767C245.151 250.526 241.782 250.285 237.451 250.037ZM145.605 262.738C146.554 262.28 147.503 261.821 149.825 260.7C140.707 258.534 133.152 258.227 125.562 261.011C131.765 263.93 138.328 262.826 145.605 262.738ZM697.231 261.158C692.717 261.506 688.202 261.854 683.688 262.202C683.744 262.909 683.8 263.616 683.856 264.323C691.371 264.323 698.887 264.323 706.403 264.323C706.46 263.765 706.517 263.207 706.574 262.65C703.759 262.156 700.944 261.661 697.231 261.158ZM602.986 254.932C604.77 254.553 606.554 254.174 608.339 253.796C608.27 253.373 608.201 252.95 608.132 252.528C599.954 252.528 591.776 252.528 583.597 252.528C583.576 253.166 583.555 253.805 583.534 254.443C589.72 254.611 595.906 254.779 602.986 254.932ZM577.328 248.517C577.134 248.527 576.939 248.537 576.745 248.547C576.873 248.599 577.001 248.651 577.328 248.517ZM93.6198 235.461L93.4311 235.338C93.4311 235.338 93.4479 235.581 93.6198 235.461Z" fill="#0F1035"/>
<path d="M107.967 415.009C107.967 415.009 108.065 414.612 108.449 414.215C110.757 413.48 112.679 412.854 114.603 412.847C134.424 412.775 154.245 412.801 174.066 412.804C180.882 412.806 180.883 412.812 180.883 419.462C180.883 489.918 180.882 560.374 180.881 630.83C180.881 638.325 181.109 645.83 180.795 653.312C180.622 657.417 182.151 658.404 185.965 658.306C193.282 658.118 200.61 658.393 207.934 658.475C207.946 658.821 207.959 659.167 207.962 660.232C207.896 680.609 207.839 700.267 207.416 720.097C200.093 720.469 193.131 720.928 186.183 720.771C182.101 720.679 180.742 721.813 180.791 726.05C181.007 744.698 180.84 763.35 180.923 782C180.937 785.188 180.275 786.963 176.541 786.933C155.729 786.769 134.915 786.773 114.102 786.72C114.102 786.72 114.115 786.354 114.12 785.711C114.138 765.905 114.155 746.742 114.165 727.58C114.168 720.889 114.161 720.876 107.524 720.875C74.6976 720.871 41.8708 720.863 9.04401 720.894C6.492 720.896 3.953 721.162 2.97021 718.001C3.3399 702.557 4.25775 687.098 3.83411 671.676C3.64002 664.608 5.16779 658.592 7.89435 652.324C17.5068 630.229 26.8554 608.017 36.192 585.803C43.3582 568.752 50.3242 551.618 57.4398 534.545C61.5698 524.637 65.8195 514.778 70.3408 504.322C74.0804 495.499 77.4944 487.251 80.9085 479.002C80.9085 479.002 81.0173 478.597 81.2773 478.258C81.707 477.606 81.8768 477.295 82.0466 476.983C82.0466 476.983 82.1324 476.645 82.3386 476.315C82.6913 475.658 82.8379 475.331 82.9844 475.004C83.0214 474.6 83.0585 474.196 83.3694 473.27C84.7903 469.847 85.9373 466.947 87.0844 464.047C87.0844 464.047 87.0259 463.994 87.3423 463.836C91.7559 453.786 95.853 443.892 99.95 433.999C99.95 433.999 100.044 433.591 100.349 433.171C101.79 430.167 102.927 427.583 104.063 424.998C104.063 424.998 104.147 424.66 104.348 424.328C104.695 423.665 104.841 423.334 104.987 423.003C105.031 422.578 105.074 422.152 105.415 421.195C106.187 419.139 106.661 417.615 107.135 416.091C107.135 416.091 107.085 416.031 107.313 415.973C107.682 415.613 107.825 415.311 107.967 415.009ZM101.487 658.797C105.576 658.797 109.666 658.797 114.157 658.797C114.157 623.507 114.157 589.071 114.157 554.636C113.88 554.58 113.604 554.524 113.327 554.468C98.7901 588.966 84.2527 623.464 69.3639 658.796C80.5599 658.796 90.5251 658.796 101.487 658.797Z" fill="#0F1035"/>
<path d="M800.801 657.078C804.484 657.646 808.151 658.508 811.854 658.713C816.962 658.996 822.098 658.784 827.569 658.784C827.569 679.612 827.569 699.853 827.569 720.864C820.743 720.864 813.962 721.155 807.221 720.766C802.348 720.485 800.621 721.688 800.727 726.997C801.09 745.319 800.821 763.654 800.905 781.984C800.92 785.153 800.317 786.957 796.553 786.933C776.724 786.808 756.894 786.871 737.064 786.849C736.263 786.848 735.463 786.649 734.196 786.48C734.196 783.716 734.172 781.118 734.2 778.521C734.384 761.371 734.543 744.221 734.798 727.072C734.862 722.697 733.656 720.691 728.564 720.73C695.905 720.983 663.243 720.873 630.582 720.859C628.596 720.858 626.609 720.652 624.345 719.801C624.049 700.04 624.03 681.018 624.011 661.996C629.875 647.988 635.738 633.979 641.604 619.972C647.599 605.653 653.59 591.333 659.597 577.019C665.791 562.259 671.954 547.486 678.219 532.756C684.426 518.162 690.799 503.638 696.999 489.04C706.678 466.248 716.622 443.559 725.681 420.522C728.287 413.893 731.738 412.522 738.17 412.657C757.322 413.06 776.489 412.921 795.647 412.709C799.865 412.662 800.951 413.979 800.944 418.082C800.827 496.389 800.847 574.697 800.631 653.689C800.549 655.275 800.675 656.176 800.801 657.078ZM696.167 642.618C694.036 647.741 691.905 652.865 689.436 658.801C703.672 658.801 716.784 658.649 729.888 658.89C734.077 658.967 734.859 657.291 734.846 653.576C734.733 621.799 734.781 590.021 734.757 558.243C734.756 557.021 734.508 555.8 734.376 554.578C734.029 554.509 733.682 554.44 733.335 554.371C721.054 583.555 708.772 612.739 696.167 642.618Z" fill="#0F1035"/>
<path d="M500.256 539.278C486.581 569.573 473.164 599.566 459.534 629.463C453.002 643.792 446.722 658.298 439.151 672.077C429.751 689.186 415.39 700.886 395.856 704.754C382.887 707.322 370.239 704.376 358.278 699.385C346.924 694.648 336.145 688.737 327.841 679.219C315.706 665.309 311.224 649.446 313.783 631.018C315.901 615.766 322.737 602.472 328.8 588.781C337.899 568.233 347.011 547.69 356.237 527.199C363.758 510.496 371.145 493.722 379.173 477.262C385.236 464.831 392.79 453.281 404.617 445.337C420.474 434.688 437.74 433.639 455.63 438.501C469.254 442.204 481.782 448.415 492.141 458.071C503.075 468.262 509.374 480.845 510.074 496.178C510.769 511.408 506.612 525.356 500.256 539.278ZM365.39 635.284C363.708 645.971 366.73 651.305 376.344 654.621C384.531 657.444 390.949 654.389 395.778 645.334C396.718 643.571 397.607 641.777 398.43 639.957C414.144 605.227 429.878 570.507 445.527 535.748C449.967 525.887 454.573 516.066 458.318 505.938C461.451 497.464 458.106 490.836 450.091 487.024C441.495 482.934 435.17 484.651 429.926 492.62C428.654 494.553 427.551 496.624 426.593 498.732C413.083 528.433 399.549 558.122 386.157 587.876C379.191 603.352 372.491 618.948 365.39 635.284Z" fill="#0F1035"/>
<path d="M368.05 885.852C368.087 881.5 367.46 877.009 368.333 872.832C369.351 867.956 373.897 866.346 378.345 866.272C383.298 866.189 388.266 866.975 393.756 867.427C393.756 876.575 394.221 885.815 393.449 894.95C393.241 897.421 389.631 900.131 386.983 901.754C382.373 904.579 373.566 903.339 370.455 899.694C369.207 898.232 368.9 895.966 368.581 893.586C372.279 893.657 375.639 893.934 378.824 894.832C382.56 895.884 384.717 894.585 385.118 890.265C379.344 892.077 373.816 892.38 369.149 887.692C369.149 887.692 369.166 887.346 369.048 886.915C368.636 886.273 368.343 886.063 368.05 885.852ZM382.898 883.456C385.817 881.23 385.892 878.341 384.025 875.672C383.333 874.682 380.33 873.917 379.878 874.413C378.513 875.913 377.199 878.055 377.123 879.996C377.008 882.946 379.166 884.264 382.898 883.456Z" fill="#0F1035"/>
<path d="M190.748 869.669C190.827 872.418 190.837 874.741 190.873 877.064C190.986 884.332 187.81 889.515 180.886 891.906C174.999 893.938 169.256 893.752 164.197 889.414C159.85 885.687 159.425 880.313 159.217 875.404C158.478 857.927 173.1 854.524 183.419 859.153C187.765 861.103 189.654 864.879 190.748 869.669ZM172.3 866.393C168.893 869.999 167.865 877.534 170.232 881.552C172.202 884.897 175.607 885.752 178.71 883.683C181.508 881.817 182.708 874.462 181.139 869.749C179.733 865.526 176.545 865.563 172.3 866.393Z" fill="#0F1035"/>
<path d="M329.141 880.315C325.424 881.182 322.067 881.879 318.261 882.669C318.151 883.597 317.909 884.855 317.869 886.12C317.706 891.205 315.612 893.354 310.694 892.723C309.719 892.597 308.286 890.54 308.264 889.351C308.069 879.238 308.152 869.119 308.152 857.775C315.245 858.161 322.153 857.981 328.855 859.071C334.55 859.997 336.827 863.547 336.983 868.775C337.163 874.792 335.121 877.895 329.141 880.315ZM318.811 866.236C318.911 868.435 319.011 870.633 319.111 872.831C321.649 872.521 324.245 872.422 326.682 871.748C327.273 871.585 327.857 868.653 327.563 868.479C325.728 867.391 323.663 866.669 321.629 865.954C321.049 865.75 320.32 865.971 318.811 866.236Z" fill="#0F1035"/>
<path d="M671.17 860.099C671.167 869.723 671.163 879.346 671.1 889.716C671.044 890.656 671.048 890.85 671.052 891.044C669.652 891.69 668.278 892.814 666.848 892.891C662.497 893.125 658.122 893.01 653.76 892.905C652.651 892.878 651.466 892.561 650.464 892.074C645.381 889.603 642.816 879.628 645.333 872.41C646.886 867.96 652.574 865.605 658.701 866.843C659.493 867.003 660.321 866.987 661.675 867.097C661.849 865.545 662.06 864.16 662.142 862.767C662.219 861.46 662.159 860.145 662.159 858.355C665.054 858.355 667.78 858.355 670.782 858.94C671.095 859.715 671.133 859.907 671.17 860.099ZM661.648 876.283C659.689 875.794 657.731 875.306 655.772 874.817C655.318 877.39 654.455 879.991 654.637 882.518C654.699 883.385 658.382 884.998 658.683 884.672C660.159 883.077 661.119 880.974 662.106 878.975C662.352 878.477 662.023 877.695 661.648 876.283Z" fill="#0F1035"/>
<path d="M251.014 879.908C250.886 890.405 245.511 894.374 234.232 892.258C234.092 894.887 233.955 897.464 233.806 900.262C232.391 900.735 231.028 901.228 229.643 901.647C226.721 902.531 225.121 901.514 225.074 898.37C224.934 888.818 224.756 879.265 224.728 869.712C224.726 868.853 225.652 867.276 226.222 867.241C231.81 866.893 237.511 866.086 242.989 866.825C249.468 867.699 250.98 870.856 251.014 879.908ZM234.033 878.641C234.927 880.639 235.535 882.868 236.865 884.513C237.347 885.111 240.399 884.79 240.807 884.063C241.856 882.195 242.629 879.813 242.436 877.737C242.314 876.421 239.939 874.09 239.141 874.307C237.276 874.812 235.753 876.579 234.033 878.641Z" fill="#0F1035"/>
<path d="M341.803 869.81C347.166 865.831 352.599 865.008 358.364 867.805C361.907 869.524 364.115 872.129 363.951 876.386C363.806 880.162 364.099 883.957 363.885 887.726C363.621 892.35 360.878 893.991 356.427 892.909C354.3 892.393 351.94 892.205 349.791 892.542C345.399 893.233 341.478 893.229 339.018 888.734C336.795 884.673 338.104 880.476 342.421 878.439C344.195 877.602 346.161 877.15 348.065 876.616C349.842 876.117 351.654 875.739 353.45 875.309C353.356 874.808 353.261 874.306 353.166 873.805C350.369 874.181 347.582 874.716 344.773 874.866C343.406 874.938 342 874.292 340.611 873.972C340.922 872.678 341.233 871.384 341.803 869.81Z" fill="#0F1035"/>
<path d="M614.809 868.068C620.659 867.511 626.53 866.371 632.353 866.577C637.127 866.746 640.152 870.454 640.672 875.169C641.181 879.779 641.036 884.494 640.795 889.143C640.612 892.659 637.893 893.019 634.972 893.015C631.848 893.011 630.929 891.413 631.001 888.606C631.086 885.276 631.35 881.889 630.848 878.634C630.638 877.278 628.65 876.198 627.471 874.992C626.289 876.208 624.458 877.252 624.076 878.682C623.493 880.86 623.915 883.307 623.908 885.64C623.889 892.79 622.974 893.548 615.279 892.028C614.956 891.338 614.899 891.18 614.842 891.023C614.845 890.243 614.849 889.462 614.873 887.843C614.866 880.692 614.837 874.38 614.809 868.068Z" fill="#0F1035"/>
<path d="M455.759 879.377C455.019 876.297 453.72 873.88 450.659 875.223C449.314 875.813 448.381 878.323 448.087 880.098C447.659 882.685 447.884 885.399 448.001 888.052C448.139 891.186 447.382 893.059 443.636 893.061C440.111 893.064 438.946 891.697 439.037 888.316C439.211 881.843 439.114 875.362 439.166 868.884C439.17 868.429 439.479 867.977 439.627 867.574C444.73 867.093 449.727 866.343 454.74 866.22C460.528 866.078 464.727 870.327 464.942 876.144C465.095 880.291 464.892 884.451 465.006 888.6C465.098 891.957 463.149 892.812 460.316 892.994C457.378 893.182 455.998 891.996 456.059 888.977C456.122 885.905 455.974 882.828 455.759 879.377Z" fill="#0F1035"/>
<path d="M597.854 892.765C587.041 894.43 582.87 888.499 583.031 878.309C583.086 874.834 583.04 871.357 583.04 867.436C586.309 867.436 589.204 867.436 592.922 867.436C592.922 871.269 592.899 875.192 592.931 879.115C592.95 881.449 592.646 884.04 596.253 883.981C599.822 883.922 600.04 881.505 600.014 878.825C599.978 875.181 600.005 871.536 600.005 867.334C603.073 867.334 605.805 867.334 608.792 868.083C608.982 876.49 608.917 884.149 608.852 891.808C606.854 891.881 604.855 891.954 602.296 891.723C600.441 891.867 599.147 892.316 597.854 892.765Z" fill="#0F1035"/>
<path d="M206.193 866.154C220.77 866.648 222.799 877.367 219.687 885.439C217.485 891.15 210.478 894.227 203.355 892.877C197.977 891.859 194.236 887.001 194.139 880.909C193.987 871.349 195.914 868.911 206.193 866.154ZM204.605 875.075C204.101 876.574 203.226 878.06 203.171 879.575C203.063 882.545 204.437 884.896 207.731 884.775C210.926 884.657 212.163 882.496 212.064 879.359C211.922 874.917 210.322 873.742 204.605 875.075Z" fill="#0F1035"/>
<path d="M480.272 892.885C469.705 889.842 465.01 878.783 470.624 871.172C473.808 866.855 482.722 864.957 488.372 867.392C493.803 869.732 496.964 876.141 495.679 882.205C494.151 889.422 490.005 892.367 480.272 892.885ZM478.074 877.876C478.982 880.141 479.619 882.595 480.977 884.546C481.349 885.081 485.136 884.313 485.221 883.792C485.685 880.977 486.618 877.186 485.236 875.365C483.117 872.573 479.909 873.633 478.074 877.876Z" fill="#0F1035"/>
<path d="M555.429 888.407C551.204 880.411 552.219 872.109 557.992 868.551C564.352 864.632 574.048 865.897 577.657 871.53C582.086 878.442 580.416 887.538 573.389 890.882C567.335 893.763 560.946 894.364 555.429 888.407ZM568.811 884.402C569.543 882.523 571.103 880.484 570.782 878.807C570.444 877.045 568.38 874.478 566.929 874.381C565.441 874.282 562.958 876.457 562.364 878.148C560.981 882.083 563.511 884.664 568.811 884.402Z" fill="#0F1035"/>
<path d="M423.913 884.18C422.609 890.12 416.353 893.632 408.255 892.969C403.279 892.562 398.057 887.456 398.147 882.436C398.21 878.898 399.162 875.375 400.194 871.409C401.152 870.332 401.635 869.692 402.118 869.051C402.42 868.974 402.671 868.816 403.355 868.302C411.106 865.115 417.579 865.95 422.928 872.079C422.928 872.079 422.937 871.991 422.972 872.402C423.676 875.207 424.345 877.602 425.014 879.997C424.808 880.552 424.603 881.107 423.736 881.884C417.93 882.106 412.787 882.106 406.69 882.106C408.853 885.972 411.042 886.173 413.874 885.575C417.171 884.879 420.563 884.626 423.913 884.18ZM414.794 874.884C411.629 871.458 409.539 873.021 407.618 875.366C407.738 876.012 407.858 876.659 407.978 877.305C410.29 876.756 412.601 876.207 414.794 874.884Z" fill="#0F1035"/>
<path d="M257.492 890.646C256.006 888.784 254.856 887.111 253.707 885.437C253.96 884.935 254.214 884.433 254.467 883.931C259.122 884.475 263.777 885.018 268.432 885.562C268.487 885.081 268.542 884.601 268.597 884.12C266.948 883.708 265.32 883.11 263.646 882.918C258.042 882.276 255.375 880.143 255.087 875.84C254.677 869.73 255.661 867.854 262.357 867.078C266.502 866.598 270.986 867.847 275.109 869.04C276.537 869.453 277.336 872.038 279.133 874.674C274.711 874.674 271.931 874.674 269.15 874.674C269.058 875.031 268.966 875.388 268.874 875.746C270.387 876.25 272.297 876.343 273.329 877.344C275.447 879.398 278.505 881.917 278.541 884.284C278.577 886.668 275.888 890.398 273.56 891.243C268.549 893.062 262.958 894.482 257.492 890.646Z" fill="#0F1035"/>
<path d="M548.937 863.882C547.172 864.127 545.815 864.353 544.458 864.579C544.424 865.049 544.39 865.519 544.356 865.989C546.365 866.515 548.374 867.042 550.695 867.65C550.695 869.791 550.695 872.035 550.695 874.612C548.643 874.847 546.717 875.067 544.245 875.35C544.245 880.504 544.245 885.747 544.245 890.396C543.463 891.2 543.27 891.587 543.01 891.638C535.118 893.183 535.117 893.178 535.119 884.881C535.12 881.903 535.119 878.926 535.119 875.554C529.639 875.37 529.391 871.985 530.252 867.966C530.632 868.173 531.012 868.379 531.392 868.585C532.63 866.539 534.053 864.58 535.064 862.428C536.853 858.621 539.873 856.636 543.869 856.182C546.298 855.907 548.783 856.131 551.665 856.131C551.443 859.188 553.752 862.393 548.937 863.882Z" fill="#0F1035"/>
<path d="M497.011 870.083C497.085 869.171 497.064 868.283 497.235 868.245C502.576 867.042 502.394 862.845 502.042 858.876C510.236 856.772 510.611 857.057 512.557 866.683C514.063 866.878 515.663 867.085 517.199 867.284C518.84 873.678 518.413 874.416 512.643 875.395C510.53 883.441 511.526 885.118 519.195 884.766C518.737 887.394 519.121 890.902 517.666 892.023C516.016 893.295 512.59 892.966 510.163 892.385C504.586 891.05 502.073 887.36 502.01 881.529C501.991 879.704 502.007 877.878 500.808 876.633C499.541 874.589 498.274 872.546 497.011 870.083Z" fill="#0F1035"/>
<path d="M597.992 684.003C598.779 686.953 599.645 689.884 600.339 692.856C605.578 715.279 610.783 737.709 615.991 760.139C616.065 760.457 616.036 760.799 615.933 761.78C615.269 762.57 614.727 762.71 614.185 762.849C608.031 739.335 601.871 715.823 595.729 692.307C594.901 689.139 594.161 685.95 593.77 682.502C595.438 682.823 596.715 683.413 597.992 684.003Z" fill="#0F1035"/>
<path d="M292.205 862.95C292.165 864.687 292.126 866.424 292.097 868.83C292.108 869.498 292.209 869.972 292.209 869.972C292.119 873.572 292.029 877.173 291.467 881.281C288.663 881.847 286.334 881.906 284.004 881.963C283.397 877.017 282.751 872.075 282.221 867.12C282.14 866.362 282.785 865.543 282.765 864.761C282.58 857.716 285.282 856.081 291.986 860.024C292.106 861.494 292.155 862.222 292.205 862.95Z" fill="#0F1035"/>
<path d="M217.981 747.345C218.912 743.544 219.839 740.087 220.956 736.293C221.618 736.586 222.09 737.216 222.828 737.99C223.091 738.851 223.089 739.568 223.115 740.644C222.766 742.416 222.39 743.83 221.99 745.617C220.68 750.238 219.268 754.454 218.126 758.742C214.597 771.982 211.171 785.249 207.706 798.505C207.261 798.416 206.816 798.327 206.371 798.238C206.906 795.753 207.441 793.268 207.966 790.391C208.012 789.569 208.069 789.138 208.381 788.115C208.751 786.347 208.867 785.172 208.982 783.997C208.982 783.997 209.002 784.003 209.207 783.894C209.68 783.607 209.836 783.358 209.878 783.038C209.945 782.297 210.013 781.557 210.345 780.15C212.368 771.988 214.126 764.493 215.884 756.998C215.953 756.266 216.022 755.534 216.332 754.196C216.654 752.729 216.735 751.87 216.815 751.01C216.84 750.826 216.865 750.641 217.137 750.099C217.644 749.584 217.789 749.354 217.82 749.051C217.873 748.597 217.925 748.142 217.981 747.345Z" fill="#0F1035"/>
<path d="M614.227 763.236C614.727 762.709 615.269 762.57 615.983 762.189C618.097 769.025 620.172 776.068 621.939 783.188C623.303 788.683 624.28 794.273 625.429 799.821C624.999 799.921 624.57 800.021 624.14 800.121C620.85 787.955 617.56 775.789 614.227 763.236Z" fill="#0F1035"/>
<path d="M579.213 629.391C580.257 630.777 581.634 632.442 582.169 634.344C585.454 646.03 588.566 657.766 591.672 669.501C591.911 670.402 591.661 671.431 591.394 672.664C588.471 663.592 585.753 654.269 583.13 644.919C581.721 639.896 580.476 634.827 579.213 629.391Z" fill="#0F1035"/>
<path d="M291.915 885.162C291.297 887.877 293.863 891.872 289.081 892.919C283.656 894.108 282.165 891.808 284.351 884.628C287.277 884.557 289.597 884.859 291.915 885.162Z" fill="#0F1035"/>
<path d="M440.415 415.124C441.003 415.425 441.453 415.719 441.41 415.863C439.889 420.878 435.788 418.703 432.721 418.672C429.97 418.644 427.508 417.392 428.597 412.924C432.452 413.639 436.249 414.343 440.415 415.124Z" fill="#0F1035"/>
<path d="M532.652 629.212C535.641 629.98 538.216 630.674 541.358 631.52C535.068 636.253 529.801 635.395 526.156 629.137C528.448 629.137 530.344 629.137 532.652 629.212Z" fill="#0F1035"/>
<path d="M556.25 542.381C557.104 542.532 558.427 542.935 558.592 543.619C560.677 552.223 562.595 560.867 564.298 569.741C562.714 565.653 561.33 561.343 560.077 556.995C558.714 552.269 557.474 547.508 556.25 542.381Z" fill="#0F1035"/>
<path d="M609.228 891.775C608.917 884.15 608.982 876.491 609.109 868.355C609.727 868.781 610.746 869.674 610.765 870.588C610.902 876.993 610.868 883.403 610.776 889.81C610.767 890.459 610.012 891.098 609.228 891.775Z" fill="#0F1035"/>
<path d="M387.234 453.179C387.676 449.948 388.154 447.086 388.631 444.225C389.5 444.263 390.369 444.3 391.239 444.338C391.294 446.531 391.844 448.878 391.221 450.857C390.846 452.05 388.648 452.67 387.234 453.179Z" fill="#0F1035"/>
<path d="M304.48 597.431C301.598 593.457 303.61 590.675 306.52 587.439C309.787 592.054 307.938 594.828 304.48 597.431Z" fill="#0F1035"/>
<path d="M597.99 683.626C596.715 683.414 595.437 682.824 593.904 682.144C593.484 681.602 593.322 681.151 593.333 680.181C594.617 679.43 595.727 679.2 596.838 678.969C597.221 680.395 597.605 681.822 597.99 683.626Z" fill="#0F1035"/>
<path d="M573.45 606.377C574.604 609.15 575.612 612.282 576.373 615.675C575.185 612.869 574.245 609.803 573.45 606.377Z" fill="#0F1035"/>
<path d="M596.88 678.607C595.727 679.199 594.617 679.43 593.264 679.827C592.402 678.557 591.782 677.121 591.239 675.34C592.665 674.809 594.015 674.623 595.588 674.248C596.181 675.454 596.552 676.85 596.88 678.607Z" fill="#0F1035"/>
<path d="M568.43 587.387C569.597 590.17 570.602 593.312 571.368 596.697C570.174 593.875 569.221 590.81 568.43 587.387Z" fill="#0F1035"/>
<path d="M576.301 618.377C577.388 620.83 578.467 623.656 579.315 626.722C578.154 624.224 577.223 621.487 576.301 618.377Z" fill="#0F1035"/>
<path d="M565.199 576.365C566.075 577.804 566.865 579.606 567.434 581.65C566.513 580.17 565.812 578.45 565.199 576.365Z" fill="#0F1035"/>
<path d="M571.218 599.342C572.036 600.51 572.784 602.023 573.278 603.764C572.398 602.556 571.773 601.122 571.218 599.342Z" fill="#0F1035"/>
<path d="M598.228 892.789C599.148 892.317 600.441 891.868 601.868 891.682C600.867 892.234 599.735 892.524 598.228 892.789Z" fill="#0F1035"/>
<path d="M555.092 536.336C555.619 537.099 556.165 538.229 556.514 539.606C555.914 538.803 555.512 537.752 555.092 536.336Z" fill="#0F1035"/>
<path d="M593.717 663.661C593.229 662.857 592.778 661.717 592.529 660.34C593.071 661.177 593.413 662.251 593.717 663.661Z" fill="#0F1035"/>
<path d="M594.977 670.643C594.646 669.911 594.322 668.817 594.002 667.359C594.332 668.091 594.658 669.186 594.977 670.643Z" fill="#0F1035"/>
<path d="M564.174 572.301C564.665 572.539 565.087 573.077 565.311 573.782C564.777 573.5 564.441 573.051 564.174 572.301Z" fill="#0F1035"/>
<path d="M800.882 656.688C800.675 656.176 800.549 655.274 800.62 654.152C800.866 654.721 800.915 655.51 800.882 656.688Z" fill="#0F1035"/>
<path d="M593.988 666.75C593.863 666.747 593.719 666.498 593.707 666.141C593.839 666.032 593.969 666.506 593.988 666.75Z" fill="#0F1035"/>
<path d="M671.208 890.943C671.048 890.85 671.044 890.656 671.104 890.178C671.291 890.1 671.439 890.296 671.522 890.517C671.551 890.595 671.422 890.731 671.208 890.943Z" fill="#0F1035"/>
<path d="M591.87 656.738C591.495 656.811 591.392 656.568 591.655 656.146C591.775 656.049 591.896 656.504 591.87 656.738Z" fill="#0F1035"/>
<path d="M367.965 925.695C367.904 925.864 367.712 925.908 367.228 925.927C367.234 925.791 367.535 925.68 367.965 925.695Z" fill="#0F1035"/>
<path d="M464.953 925.758C464.872 925.917 464.676 925.935 464.193 925.887C464.216 925.753 464.528 925.685 464.953 925.758Z" fill="#0F1035"/>
<path d="M671.302 859.969C671.133 859.907 671.095 859.715 671.077 859.23C671.209 859.238 671.322 859.539 671.302 859.969Z" fill="#0F1035"/>
<path d="M554.223 535.266C554.457 535.157 554.665 535.333 554.92 535.752C554.682 535.924 554.426 535.776 554.223 535.266Z" fill="#0F1035"/>
<path d="M567.31 584.293C567.561 584.21 567.735 584.393 567.93 584.804C567.676 584.956 567.438 584.8 567.31 584.293Z" fill="#0F1035"/>
<path d="M473.091 262.684C470.194 261.798 467.711 261.035 464.985 260.198C467.331 260.047 469.549 259.904 471.767 259.761C471.787 259.612 471.808 259.464 471.828 259.316C468.575 258.72 465.321 258.124 462.068 257.528C462.07 257.406 462.073 257.284 462.075 257.162C464.345 257.052 466.615 256.941 470.175 256.769C465.942 255.942 462.989 255.365 460.036 254.789C460.053 254.584 460.07 254.38 460.086 254.175C461.694 254.075 463.303 253.975 464.911 253.876C464.911 253.686 464.911 253.497 464.911 253.308C463.362 253.137 461.813 252.966 460.264 252.795C460.252 252.606 460.239 252.416 460.227 252.227C462.124 252.052 464.021 251.877 466.853 251.615C463.032 250.865 460.145 250.299 457.259 249.732C457.253 249.548 457.247 249.365 457.241 249.181C459.36 249.066 461.479 248.952 463.597 248.838C463.622 248.711 463.647 248.584 463.672 248.457C460.485 247.896 457.299 247.334 454.112 246.773C454.111 246.621 454.11 246.469 454.109 246.317C455.636 246.144 457.162 245.971 458.689 245.799C458.716 245.662 458.742 245.525 458.769 245.388C457.22 245.147 455.671 244.907 454.122 244.667C454.122 244.495 454.123 244.323 454.124 244.15C456.336 244.021 458.547 243.892 462.071 243.685C457.542 242.836 454.288 242.225 451.034 241.615C451.042 241.449 451.05 241.284 451.059 241.118C452.991 241.03 454.923 240.941 456.855 240.853C456.861 240.729 456.867 240.604 456.874 240.48C453.917 239.881 450.959 239.283 448.002 238.684C448.009 238.512 448.015 238.341 448.022 238.169C449.613 238.063 451.205 237.956 454.115 237.761C450.232 236.983 447.645 236.464 445.058 235.945C445.099 235.635 445.14 235.324 445.181 235.014C452.171 235.637 459.161 236.261 466.568 236.935C467.874 238.935 468.764 240.885 469.726 242.992C470.312 242.801 469.664 243.012 468.882 243.267C470.103 244.748 471.295 246.194 472.546 247.712C472.309 247.796 471.643 248.03 471.355 248.131C473.792 252.747 476.255 257.41 479.104 262.808C476.687 262.808 475.096 262.808 473.091 262.684Z" fill="#0F1035"/>
<path d="M370.885 236.426C376.181 235.668 381.442 235.242 386.704 234.816C386.746 235.112 386.788 235.408 386.831 235.703C383.584 236.303 380.338 236.903 375.669 237.765C379.014 237.922 380.946 238.013 382.879 238.104C382.894 238.265 382.908 238.426 382.923 238.587C380.292 239.145 377.662 239.703 373.855 240.512C376.275 240.826 377.517 240.987 380.112 241.324C377.628 241.848 376.416 242.104 374.091 242.594C376.773 242.912 378.383 243.102 379.993 243.293C380.012 243.535 380.031 243.777 380.049 244.019C377.168 244.486 374.286 244.952 369.924 245.658C373.513 245.909 375.703 246.062 379.33 246.315C375.33 247.034 372.765 247.494 368.927 248.183C371.021 248.783 371.932 249.044 373.743 249.563C371.661 249.89 370.369 250.093 367.704 250.512C370.37 250.903 371.691 251.097 374.275 251.476C370.371 252.338 367.714 252.925 363.891 253.77C367.011 253.919 368.965 254.013 371.63 254.141C367.854 255.989 364.736 257.515 361.946 258.88C363.735 258.88 366.232 258.88 368.728 258.88C368.735 259.056 368.743 259.233 368.75 259.409C366.016 260.076 363.282 260.743 360.307 261.683C357.946 261.955 355.825 261.955 353.705 261.955C353.013 261.112 352.321 260.269 351.629 259.426C353.066 258.353 354.503 257.28 355.94 256.207C356.28 256.569 356.62 256.93 356.959 257.292C356.362 257.077 355.765 256.861 355.855 256.894C357.822 253.664 359.84 250.352 361.842 247.067C362.066 247.123 361.098 246.88 360.111 246.632C362.312 245.105 364.493 243.591 366.554 242.162C365.737 242.067 364.464 241.918 363.223 241.774C365.772 240.098 368.312 238.428 370.885 236.426Z" fill="#0F1035"/>
<path d="M235.596 279.543C243.068 275.554 250.495 276.8 257.915 277.889C258.018 278.445 258.12 279.002 258.222 279.558C255.803 280.216 253.385 280.873 250.954 281.534C252.394 281.973 253.878 282.426 255.363 282.879C255.42 283.251 255.478 283.622 255.535 283.994C253.353 284.543 251.105 285.726 249.003 285.506C244.881 285.073 240.805 283.987 236.802 282.848C236.09 282.646 235.822 280.879 235.596 279.543ZM250.698 279.001C251.456 278.961 252.213 278.921 252.971 278.881C252.963 278.607 252.955 278.332 252.947 278.057C251.668 278.175 250.389 278.294 249.11 278.412C249.269 278.584 249.406 278.786 249.594 278.917C249.71 278.997 249.902 278.967 250.698 279.001Z" fill="#0F1035"/>
<path d="M578.557 283.945C582.033 283.924 585.088 283.924 588.143 283.924C588.176 283.498 588.208 283.071 588.241 282.644C583.468 282.083 578.695 281.522 573.922 280.961C573.999 280.292 574.075 279.623 574.152 278.953C581.862 277.803 589.607 276.323 598.251 282.432C593.964 283.901 591.063 285.334 588.01 285.822C584.773 286.34 581.393 285.961 578.075 285.974C578.096 285.305 578.116 284.636 578.557 283.945Z" fill="#0F1035"/>
<path d="M212.177 249.37C212.337 248.581 212.72 248.045 213.255 247.329C223.058 243.143 233.215 243.736 243.297 244.044C246.626 244.145 249.928 245.112 253.143 246.043C240.747 246.939 227.719 242.379 216.157 251.846C215.192 251.275 213.796 250.449 212.177 249.37Z" fill="#0F1035"/>
<path d="M615.428 248.274C618.422 250.363 618.323 252.079 615.841 252.378C612.13 250.918 608.495 248.497 604.693 248.196C596.522 247.551 588.264 247.998 580.049 247.434C591.78 243.921 603.467 244.012 615.428 248.274Z" fill="#0F1035"/>
<path d="M322.054 148.336C327.919 146.68 333.816 145.296 339.747 144.078C342.106 143.593 344.541 143.477 347.077 143.935C338.993 145.964 330.909 147.992 322.436 150.028C322.065 149.582 322.083 149.128 322.054 148.336Z" fill="#0F1035"/>
<path d="M508.937 149.624C502.798 148.612 496.625 147.201 490.452 145.791C490.544 145.255 490.636 144.718 490.728 144.182C496.602 145.19 502.476 146.198 508.632 147.415C508.91 148.158 508.906 148.692 508.937 149.624Z" fill="#0F1035"/>
<path d="M417.297 260.986C425.392 260.755 433.752 260.855 442.573 261.009C434.543 261.148 426.053 261.232 417.297 260.986Z" fill="#0F1035"/>
<path d="M380.287 261.352C386.409 260.85 392.868 260.585 399.654 260.533C393.528 261.027 387.077 261.308 380.287 261.352Z" fill="#0F1035"/>
<path d="M485.03 238.545C488.301 238.468 491.745 238.728 495.621 239.053C492.436 239.04 488.82 238.961 485.03 238.545Z" fill="#0F1035"/>
<path d="M472.022 237.532C474.307 237.435 476.752 237.666 479.598 237.951C477.393 237.957 474.788 237.909 472.022 237.532Z" fill="#0F1035"/>
<path d="M367.291 262.175C368.53 261.691 370.007 261.452 371.855 261.305C370.661 261.737 369.095 262.078 367.291 262.175Z" fill="#0F1035"/>
<path d="M455.322 262.122C456.158 261.874 457.183 261.883 458.592 261.931C457.821 262.107 456.666 262.244 455.322 262.122Z" fill="#0F1035"/>
<path d="M619.116 250.259C619.458 250.01 619.908 250.023 620.697 250.042C620.431 250.206 619.827 250.363 619.116 250.259Z" fill="#0F1035"/>
<path d="M577.228 248.611C577.001 248.652 576.873 248.6 576.746 248.547C576.94 248.538 577.134 248.528 577.228 248.611Z" fill="#0F1035"/>
<path d="M448.031 261.312C448.104 261.152 448.302 261.124 448.798 261.145C448.782 261.277 448.469 261.362 448.031 261.312Z" fill="#0F1035"/>
<path d="M590.995 123.004C590.851 122.834 590.711 122.659 590.572 122.484C590.695 122.532 590.818 122.58 590.976 122.808C591.011 122.987 591 122.999 590.995 123.004Z" fill="#0F1035"/>
<path d="M466.965 23.7793C489.374 32.4564 506.236 47.7497 518.924 67.8272C519.975 69.4905 519.604 72.6692 518.761 74.665C518.306 75.7405 515.275 76.5591 513.696 76.204C485.034 69.7578 456.056 66.471 426.666 66.9549C426.179 66.963 425.689 66.8294 425.144 66.2015C429.013 65.8112 432.873 65.2355 436.752 65.0612C459.093 64.0569 481.267 65.7459 503.352 69.1396C505.306 69.4399 508.778 68.6947 509.291 67.4812C510.068 65.6466 509.609 62.4315 508.383 60.7405C497.65 45.9415 483.891 34.6069 467.296 25.766C466.96 24.7615 466.963 24.2704 466.965 23.7793Z" fill="#0F1035"/>
<path d="M466.731 23.5311C466.963 24.2694 466.96 24.7605 466.983 25.6185C457.591 22.8977 448.176 19.8102 437.67 16.3652C448.433 16.9745 457.599 19.5428 466.731 23.5311Z" fill="#0F1035"/>
<path d="M250.379 278.995C249.902 278.969 249.71 278.998 249.594 278.918C249.406 278.788 249.269 278.586 249.11 278.414C250.389 278.295 251.668 278.177 252.947 278.059C252.955 278.333 252.963 278.608 252.971 278.883C252.213 278.923 251.456 278.963 250.379 278.995Z" fill="#0F1035"/>
</svg>
