<svg width="270" height="270" viewBox="0 0 270 270" fill="none" xmlns="http://www.w3.org/2000/svg">
<path d="M263 7.00002C258.999 3.00064 253.574 0.753906 247.917 0.753906C242.26 0.753906 236.835 3.00064 232.835 7.00002L135 104.835L37.1653 7.00002C33.1647 3.00064 27.7395 0.753906 22.0827 0.753906C16.4258 0.753906 11.0006 3.00064 6.99999 7.00002C3.00061 11.0006 0.753876 16.4258 0.753876 22.0827C0.753876 27.7395 3.00061 33.1648 6.99999 37.1654L104.835 135L6.99999 232.835C3.00061 236.835 0.753876 242.261 0.753876 247.917C0.753876 253.574 3.00061 258.999 6.99999 263C11.0006 266.999 16.4258 269.246 22.0827 269.246C27.7395 269.246 33.1647 266.999 37.1653 263L135 165.165L232.835 263C236.835 266.999 242.26 269.246 247.917 269.246C253.574 269.246 258.999 266.999 263 263C266.999 258.999 269.246 253.574 269.246 247.917C269.246 242.261 266.999 236.835 263 232.835L165.165 135L263 37.1654C266.999 33.1648 269.246 27.7395 269.246 22.0827C269.246 16.4258 266.999 11.0006 263 7.00002Z" fill="white"/>
</svg>
