<svg width="800" height="567" viewBox="0 0 800 567" fill="none" xmlns="http://www.w3.org/2000/svg">
<rect x="164" y="66" width="448" height="376" fill="#0F1035"/>
<path fill-rule="evenodd" clip-rule="evenodd" d="M317.4 387.832L317.375 161.462L533.525 275.038L317.4 387.832ZM792 122.236C792 122.236 784.175 66.7202 760.2 42.2729C729.775 10.1718 695.675 10.0205 680.05 8.15735C568.1 -0.000118216 400.175 0 400.175 0H399.825C399.825 0 231.9 -0.000118216 119.95 8.15735C104.3 10.0205 70.2251 10.1718 39.7751 42.2729C15.8001 66.7202 7.99993 122.236 7.99993 122.236C7.99993 122.236 0 187.445 0 252.63V313.76C0 378.97 7.99993 444.154 7.99993 444.154C7.99993 444.154 15.8001 499.67 39.7751 524.117C70.2251 556.218 110.2 555.211 128 558.56C192 564.753 400 566.667 400 566.667C400 566.667 568.1 566.415 680.05 558.258C695.675 556.369 729.775 556.218 760.2 524.117C784.175 499.67 792 444.154 792 444.154C792 444.154 800 378.97 800 313.76V252.63C800 187.445 792 122.236 792 122.236Z" fill="#7FC7D9"/>
</svg>
